<svg width="54" height="54" viewBox="0 0 54 54" fill="none" xmlns="http://www.w3.org/2000/svg">
<path d="M25.9414 4.7389C27.871 4.39032 29.4832 6.66234 29.7073 8.35547C29.9861 12.5903 29.0498 17.2604 29.8601 21.4393C29.8997 21.6435 29.9195 21.7456 29.9876 21.8662C30.0361 21.9523 30.1494 22.0795 30.2293 22.1375C30.3414 22.2189 30.4201 22.2439 30.5776 22.2937C31.2857 22.5178 32.0226 22.5422 32.7823 22.5665C36.7226 22.6225 40.6877 22.3735 44.6217 22.5541C45.9227 22.6039 47.0432 23.1454 47.6345 24.3468C48.5558 26.1271 47.6719 28.4489 45.7048 28.9904C40.9926 30.2756 35.7189 29.081 31.0005 29.9985C30.8502 30.0278 30.775 30.0424 30.68 30.0867C30.6134 30.1177 30.5046 30.192 30.4515 30.2428C30.3757 30.3152 30.3452 30.3634 30.2841 30.4598C29.3033 32.0098 29.5608 34.3557 29.5953 36.0804C29.669 39.4539 30.2948 43.1308 29.6641 46.4582C29.6557 46.5024 29.6515 46.5245 29.6436 46.5543C29.638 46.5755 29.6263 46.612 29.6187 46.6326C29.6079 46.6615 29.6006 46.6776 29.5859 46.7099C28.3319 49.4574 24.1004 49.2263 23.3519 46.1955C22.7045 41.6391 22.8352 36.9207 22.5551 32.3269C22.5427 30.9637 21.665 29.6938 20.2333 29.5942C16.1199 29.3784 11.64 30.3295 7.53193 29.6753C7.49201 29.6689 7.47204 29.6657 7.44545 29.6597C7.42648 29.6555 7.39385 29.6466 7.37531 29.6408C7.34933 29.6325 7.33477 29.6269 7.30566 29.6155C4.48468 28.5186 4.74145 24.2565 7.7465 23.5313C12.0416 22.8031 16.5358 22.9836 20.8682 22.5976C21.3837 22.5156 22.3511 22.2187 22.4427 21.6082C22.4947 21.2618 22.3648 22.1276 22.3651 22.1255C22.3679 22.106 22.3632 22.1394 22.3659 22.1198C22.3662 22.1177 22.3992 21.8691 22.4652 21.372C23.0401 17.0439 22.3306 12.5116 22.9721 8.17495C23.2709 6.51917 24.1237 4.98789 25.9414 4.7389Z" fill="#908F8E" fill-opacity="0.7"/>
</svg>
