<svg width="35" height="35" viewBox="0 0 35 35" fill="none" xmlns="http://www.w3.org/2000/svg">
<path d="M19.3141 5.64015C20.5558 5.58333 21.8085 5.65988 23.0436 5.6587C23.826 5.74333 24.709 5.78831 25.4186 6.1421C25.7114 6.29057 26.0205 6.4019 26.3151 6.54738C26.5246 6.65273 26.6811 6.80318 26.8639 6.94581C27.0307 7.0771 27.1988 7.19489 27.3395 7.35695C27.6129 7.67415 27.8459 8.03415 28.1276 8.34425C28.5052 8.76506 28.8143 9.28947 28.9362 9.84523C29.0291 10.2542 29.1454 10.6411 29.1803 11.063C29.2171 11.5581 29.3348 12.0456 29.3727 12.5396C29.3923 13.0734 29.4217 13.6073 29.443 14.1411C29.4933 14.5772 29.5035 15.0035 29.4958 15.4419C29.5129 16.8155 29.4133 18.1926 29.279 19.5591C29.2127 20.1101 28.963 20.5311 28.7487 21.0288C28.467 21.7461 27.8974 22.3657 27.2848 22.8208C26.9576 23.0895 26.5843 23.2898 26.1901 23.4419C25.7391 23.6177 25.3175 23.8164 24.8434 23.9282C24.4855 24.0199 24.1338 24.0043 23.7741 24.0523C23.5332 24.0872 23.2939 24.1402 23.0553 24.19C23.1175 24.6333 23.034 25.0627 22.905 25.4859C22.7931 25.835 22.539 26.0904 22.2975 26.3579C21.9146 26.7401 21.3977 26.9619 20.903 27.1519C20.4686 27.3572 20.0433 27.5722 19.5876 27.729C18.5276 28.1113 17.3698 28.2806 16.3093 28.6528C15.547 28.9097 14.7506 28.8774 13.9919 29.1148C13.6091 29.1982 13.2168 29.227 12.8346 29.3169C12.1493 29.4595 11.504 29.337 10.8346 29.186C10.54 29.1043 10.2685 28.9205 9.98796 28.7944C9.73644 28.6808 9.50985 28.5374 9.33171 28.3237C9.04362 27.9778 8.67219 27.7395 8.40007 27.3628C8.20358 27.0829 8.14501 26.7346 7.96746 26.4321C7.78754 26.1303 7.61015 25.8171 7.50066 25.481C7.40779 25.1958 7.33205 24.9056 7.23503 24.6216C7.12143 24.2932 7.04963 23.9613 6.91179 23.6411C6.75081 23.2795 6.66617 22.8788 6.63836 22.4859C6.60226 22.0718 6.52974 21.6648 6.3825 21.2749C6.17596 20.7174 6.03737 20.1429 5.90007 19.5659C5.80065 19.1167 5.79685 18.6751 5.74773 18.2241C5.71222 17.8755 5.66392 17.5292 5.62664 17.1812C5.58343 16.7491 5.46568 16.3537 5.50652 15.9146C5.5515 15.2984 5.5112 14.7439 5.66863 14.1704C5.74852 13.8692 5.79783 13.5447 5.96941 13.2837C6.1144 13.0665 6.276 12.835 6.48015 12.6704C6.79088 12.4177 7.11938 12.1897 7.47332 12.0015C7.79113 11.8003 8.10525 11.5974 8.44793 11.44C9.12617 11.1003 9.8329 10.9624 10.5378 10.6919C10.7981 10.5907 11.1518 10.5627 11.3678 10.3853C11.4583 10.2711 11.4915 10.1034 11.527 9.96437C11.6418 9.39455 11.7978 8.83092 11.9694 8.27589C12.0694 7.94504 12.3103 7.726 12.5387 7.48097C12.8766 7.1283 13.2837 6.86648 13.7204 6.65285C13.9701 6.53509 14.238 6.46677 14.4948 6.36085C14.7475 6.25965 15.0046 6.18404 15.2721 6.13136C15.8065 6.02955 16.3824 5.82426 16.9469 5.79347C17.3629 5.76388 17.7742 5.7059 18.1872 5.65382C18.5653 5.60708 18.9354 5.65077 19.3141 5.64015ZM10.8688 12.7368C10.7053 12.7188 10.3229 12.8229 10.1657 12.8989C9.74446 13.1031 9.33151 13.2292 8.95086 13.4907C8.73076 13.6343 8.55657 13.8207 8.34929 13.981C8.25013 14.0627 8.15187 14.1263 8.10808 14.2544C8.00889 14.5243 7.86169 14.8067 7.83464 15.0933C7.76258 15.9297 7.88303 16.7095 7.98992 17.5337C8.16637 18.4173 8.30804 19.3083 8.49285 20.19C8.574 20.6028 8.73637 20.9896 8.82976 21.3999C8.98625 22.0851 9.1212 22.8914 9.50945 23.4898C9.68077 23.768 9.74509 24.0607 9.86101 24.3628C10.0812 24.9475 10.2787 25.5044 10.6598 26.0093C10.8402 26.247 10.9613 26.5148 11.2311 26.6616C11.4886 26.8051 11.7634 26.9336 12.0505 27.0064C12.3635 27.0843 12.6408 27.0026 12.9538 26.9859C13.2718 26.9691 13.5726 26.9916 13.8893 26.9253C14.2957 26.8397 14.6705 26.6594 15.0768 26.5698C15.6217 26.4269 16.1766 26.3275 16.7028 26.1382C17.3887 25.9051 18.0835 25.7519 18.7848 25.5806C18.9251 25.5407 19.2624 25.1718 19.3805 25.0825C19.5068 24.9093 19.4974 24.5533 19.2624 24.4683C18.9944 24.4496 18.723 24.5046 18.4538 24.4878C17.4969 24.4266 16.464 24.4028 15.5251 24.1948C14.8488 24.0119 14.19 23.7787 13.5749 23.44C13.222 23.2429 12.9408 22.9173 12.6149 22.6636C12.2111 22.3048 11.8058 22.0072 11.5153 21.5718C11.3634 21.3535 11.2752 21.1103 11.1979 20.8579C11.0653 20.4142 10.9203 19.987 10.8688 19.5239C10.809 19.1569 10.7945 18.7848 10.7243 18.4204C10.6335 17.9425 10.6604 17.4392 10.6501 16.9478C10.6385 16.497 10.6301 16.0463 10.6198 15.5962C10.6095 15.0101 10.7309 14.4441 10.7136 13.8579C10.7336 13.4215 10.8842 13.1771 10.8688 12.7368ZM24.1999 8.36769C22.8855 8.10022 21.5411 8.03904 20.2048 8.15089C19.8492 8.17987 19.4936 8.17767 19.1374 8.17531C18.5171 8.1688 17.9174 8.27773 17.2995 8.28956C16.9859 8.29668 16.6925 8.3656 16.3854 8.41945C16.012 8.49283 15.6597 8.55102 15.3141 8.7173C14.9436 8.89367 14.5817 9.12026 14.2887 9.40968C13.8431 9.92516 13.5959 10.5626 13.5094 11.2349C13.4698 11.6001 13.3113 11.9299 13.2663 12.2944C13.197 12.8425 13.161 13.3966 13.1403 13.9487C13.1001 14.408 13.0357 14.8609 13.0446 15.3237C13.0008 16.1523 13.0255 16.98 13.0173 17.8091C13.0108 18.1256 13.0517 18.437 13.1061 18.7476C13.1659 19.0813 13.1811 19.4016 13.3307 19.7075C13.5041 20.0531 13.6632 20.4222 13.9401 20.6968C14.2366 20.9874 14.5338 21.2512 14.9528 21.3394C15.7305 21.4998 16.4436 21.6911 17.2438 21.6763C18.3854 21.6195 19.5325 21.6513 20.6764 21.646C21.1741 21.6691 21.6594 21.5823 22.1559 21.5669C22.5501 21.5391 22.9454 21.5334 23.3395 21.5044C23.7615 21.4784 24.1542 21.4736 24.5602 21.3345C24.7429 21.2735 24.9051 21.1661 25.0866 21.104C25.431 21.0247 25.822 20.9549 26.1344 20.7827C26.4191 20.5418 26.6406 20.2037 26.7311 19.8403C26.8477 19.3859 26.9507 18.9315 26.943 18.4605C26.9395 18.0829 26.9395 17.707 26.9792 17.3306C27.0271 16.8862 26.9992 16.4406 27.03 15.9956C27.056 15.6968 27.062 15.3965 27.0407 15.0972C26.9857 14.4811 27.0466 13.8677 26.9567 13.2534C26.9449 12.7362 26.9307 12.2319 26.8171 11.7241C26.6431 11.053 26.6789 10.325 26.2712 9.72902C26.1078 9.49523 25.9919 9.16122 25.7516 9.00734C25.2711 8.71324 24.7508 8.49256 24.1999 8.36769Z" fill="#A7A9AB"/>
</svg>
