<svg width="35" height="35" viewBox="0 0 35 35" fill="none" xmlns="http://www.w3.org/2000/svg">
<path fill-rule="evenodd" clip-rule="evenodd" d="M11.0119 16.2205C15.471 16.2167 19.9608 15.8885 24.4084 16.1405C24.9658 16.2091 25.7406 16.141 26.1262 16.6258C27.0384 18.0001 26.8933 19.466 26.9162 21.035C26.898 22.6217 27.0619 24.3099 26.7942 25.8817C26.7857 25.9314 26.7815 25.9562 26.7604 26.0274C26.7504 26.061 26.7044 26.18 26.6892 26.2116C26.657 26.2785 26.6587 26.2757 26.658 26.2768C26.3204 26.8049 25.7868 26.6161 25.344 26.2079C24.3323 25.0816 23.4877 23.7192 22.3996 22.6502C22.1369 22.3899 21.8804 22.2254 21.5771 22.1462C21.5266 22.133 21.5014 22.1264 21.3219 22.1324C21.2257 22.1356 20.9494 22.199 20.8614 22.2381C20.6973 22.311 20.6387 22.3611 20.5216 22.4611C19.1615 23.6227 18.1185 25.2625 16.8651 26.5825C16.6879 26.7692 16.5993 26.8625 16.3186 26.9613C16.1532 27.0196 15.721 27.0297 15.553 26.9792C15.268 26.8936 15.2065 26.8346 15.0834 26.7166C14.5359 26.1915 14.018 25.5374 13.4442 25.2645C13.4202 25.2531 13.4802 25.2816 13.2777 25.2579C13.1903 25.2476 12.8291 25.2844 12.7456 25.312C12.552 25.3761 12.5262 25.3956 12.4746 25.4346C11.3474 26.2859 10.6007 27.6247 9.68282 28.4647C9.11411 28.8613 8.30113 28.4376 8.25118 27.7508C8.01066 25.2731 8.0334 22.7605 8.0754 20.2713C8.13266 19.3437 8.09891 18.2329 8.51876 17.3778C9.04561 16.5264 10.046 16.1824 11.0119 16.2205ZM13.5764 18.4764C12.8434 18.0184 11.5607 17.5951 10.801 18.1483C9.42703 19.0776 9.35769 20.9744 10.6129 21.9484C10.6383 21.9681 10.651 21.9779 10.7172 22.0172C10.7499 22.0367 10.8657 22.0929 10.9013 22.1067C10.9731 22.1345 10.9891 22.1385 11.0211 22.1465C12.0758 22.4103 13.57 22.1075 14.1789 21.1607C14.1881 21.1463 14.1927 21.1392 14.226 21.0697C14.2425 21.0351 14.2883 20.9148 14.2989 20.878C14.3203 20.8039 14.3241 20.78 14.3316 20.732C14.4631 19.896 14.3737 18.952 13.5764 18.4764ZM10.9104 7.13852C11.5708 6.00092 13.0864 6.22223 13.6936 7.29477C14.6442 9.08147 15.6259 11.0215 16.0344 13.0106C16.2402 13.8656 15.8124 14.7626 14.843 14.6864C14.1775 14.6398 13.9146 14.1535 13.7396 13.6008C13.6759 13.3996 13.644 13.2989 13.5867 13.1939C13.4203 12.8893 13.0804 12.6403 12.7398 12.5736C12.6223 12.5506 12.5242 12.5506 12.3282 12.5506C12.1329 12.5505 12.0352 12.5505 11.9208 12.5723C11.5904 12.6351 11.2545 12.8723 11.0849 13.1627C11.0262 13.2633 10.9927 13.3578 10.9256 13.5467C10.7747 13.9724 10.5813 14.3744 10.2424 14.5711C9.42928 15.1434 8.41803 14.3157 8.7004 13.411C9.27685 11.3075 9.95983 9.10456 10.9104 7.13852ZM19.424 11.3954C21.455 11.319 23.5394 11.1505 25.5627 11.3719C26.6032 11.5536 26.789 12.9129 25.9338 13.4316C25.9308 13.4334 25.9383 13.4289 25.8643 13.4614C25.8306 13.4763 25.6964 13.5218 25.6607 13.5306C25.5821 13.5498 25.5596 13.5523 25.5145 13.5572C24.6428 13.6531 23.7401 13.577 22.8635 13.5946C21.2675 13.5504 19.5648 13.7655 17.989 13.485C17.9462 13.4774 17.9247 13.4735 17.8703 13.4586C17.8428 13.4511 17.7545 13.421 17.7281 13.4102C17.676 13.3888 17.672 13.3867 17.6641 13.3826C17.3049 13.1955 17.247 12.9493 17.2359 12.5786C17.2346 12.5361 17.234 12.5149 17.2493 12.4088C17.2554 12.3663 17.3063 12.1737 17.322 12.1337C17.3612 12.0339 17.3136 12.1119 17.3327 12.0807C17.7106 11.4604 18.7934 11.4879 19.424 11.3954ZM12.8442 9.98126C12.6904 9.61429 12.1676 9.61261 11.9891 9.96822C11.8327 10.2799 12.0548 10.6591 12.4035 10.6552C12.4146 10.655 12.4258 10.6549 12.4369 10.6548C12.7657 10.651 12.9841 10.3153 12.8571 10.012C12.8528 10.0017 12.8485 9.9915 12.8442 9.98126ZM22.0998 7.31723C23.2093 7.28512 24.4692 7.13968 25.5735 7.38245C25.6151 7.39159 25.6359 7.39617 25.7168 7.42628C25.7536 7.43996 25.8902 7.50577 25.9238 7.52602C25.9978 7.57061 25.9982 7.57093 25.999 7.57158C26.7052 8.1449 26.5496 9.24987 25.6601 9.54644C25.657 9.54747 25.6555 9.54798 25.6092 9.55954C25.5859 9.56535 25.5082 9.58055 25.4844 9.58394C25.4372 9.59068 25.4171 9.59197 25.3768 9.59457C23.6563 9.70556 21.9186 9.61445 20.1916 9.69613C19.2684 9.68246 18.1367 9.81208 17.233 9.4965C17.2082 9.48782 17.1958 9.48348 17.0808 9.41233C17.034 9.38342 16.8433 9.22299 16.8069 9.1819C16.7171 9.08076 16.736 9.11468 16.7284 9.10111C16.4105 8.52991 16.6328 7.8273 17.3352 7.60727C18.8698 7.27514 20.5346 7.41264 22.0998 7.31723Z" fill="#A7A9AB"/>
</svg>
