<svg width="35" height="35" viewBox="0 0 35 35" fill="none" xmlns="http://www.w3.org/2000/svg">
<path d="M16.6853 6.53877C17.602 6.48865 18.6547 6.31452 19.586 6.51898C21.0291 6.90416 22.0475 7.71278 23.3402 8.40267C24.2992 9.03981 25.1804 9.85898 25.8188 10.8206C26.3887 11.6833 26.5654 12.765 27.0232 13.72C27.7948 15.7435 27.3345 17.5956 27.3899 19.6745C27.3978 20.2101 27.4242 20.7126 27.1854 21.2086C26.433 22.7372 26.0568 23.5015 26.0328 23.5686C25.941 23.8255 26.0043 23.5607 25.97 23.8314C25.961 23.902 25.9698 23.1699 25.9663 23.4628C25.9588 24.0904 25.9428 24.7175 25.8927 25.3467C25.8953 26.0511 25.7528 26.7885 25.4851 27.4375C25.2514 27.8934 24.7847 28.2421 24.3079 28.4508C24.2624 28.4707 24.2396 28.4807 24.1784 28.5003C24.1389 28.5129 24.0531 28.534 24.0122 28.5411C23.9489 28.5521 23.9078 28.555 23.8255 28.5607C23.2599 28.5999 22.7216 28.5945 22.2255 28.2527C21.8179 28.039 21.446 27.8002 21.3259 27.3227C21.256 27.0048 21.0911 26.7344 21.0845 26.4033C21.0383 25.4417 21.012 24.4589 21.1228 23.5012C21.1228 22.5145 21.1703 21.5358 21.3774 20.5702C21.5805 19.846 22.186 19.1719 22.8482 18.8303C23.3138 18.6641 23.9206 18.7366 24.344 18.9899C24.5712 19.1128 24.7245 19.0584 24.7354 18.8004C24.7545 18.3477 24.7248 17.8775 24.7675 17.432C24.7991 16.4334 24.8651 15.3544 24.4166 14.4389C24.1158 13.7596 23.9589 13.0051 23.6172 12.3455C23.0328 11.4287 22.0989 10.6861 21.1228 10.231C20.4883 9.82468 19.7759 9.38805 19.0597 9.14402C18.193 8.96726 17.1681 9.25878 16.2909 9.26801C15.779 9.2812 15.3319 9.4395 14.9071 9.71256C13.8109 10.3708 12.4733 11.1662 11.7729 12.2703C11.2083 13.2069 10.7598 14.158 10.5514 15.2449C10.3737 16.4395 10.0459 17.4955 10.1253 18.7068C10.1355 18.8613 10.2806 19.0321 10.3799 18.9134C10.9076 18.4358 11.6344 18.2393 12.3296 18.3923C12.6125 18.4929 12.8594 18.6509 13.1105 18.8012C13.1741 18.8392 13.0151 18.7441 13.0235 18.749C13.0479 18.7631 13.0213 18.7481 13.0461 18.7617C13.0546 18.7664 13.1737 18.8295 13.412 18.9558C14.0246 19.2804 14.2456 20.074 14.2383 20.7298C14.1948 22.2257 14.2133 23.7281 14.1315 25.2161C13.993 26.212 13.7159 27.3662 12.7715 27.9031C12.1106 28.3872 11.1344 28.0931 10.4868 27.7303C9.86941 27.448 9.48819 26.9072 9.29956 26.2687C9.04612 25.4842 9.11056 24.5648 9.12982 23.6908C9.13481 23.4647 9.1373 23.3516 9.10001 23.1954C9.06236 23.0376 9.02125 22.9417 8.93291 22.8057C8.84542 22.6709 8.63247 22.477 8.20659 22.0893C8.01959 21.919 7.87681 21.7032 7.81028 21.3933C7.2734 18.7445 7.52535 15.8689 8.31418 13.2926C8.59252 12.484 9.00935 11.7044 9.43806 10.9697C10.182 9.70992 11.2729 8.8736 12.4654 8.07026C13.1171 7.67057 13.7845 7.22866 14.4889 6.93186C15.2131 6.63902 15.9294 6.63639 16.6853 6.53877Z" fill="#A7A9AB"/>
</svg>
