<svg width="35" height="35" viewBox="0 0 35 35" fill="none" xmlns="http://www.w3.org/2000/svg">
<path d="M17.5445 9.15052C18.1246 9.42223 18.3202 10.0322 18.4275 10.6178C18.6097 11.8608 18.386 13.3849 18.5614 14.6697C18.594 14.908 18.7853 15.0894 19.0231 15.125C19.4568 15.1898 19.8909 15.2348 20.3322 15.2181C22.5059 15.1529 21.1489 15.2236 23.3226 15.1964C24.279 15.2467 25.3563 15.0103 26.1987 15.5252C26.8331 15.8974 27.4621 16.2871 27.4825 17.0696C27.4947 17.6157 27.583 18.3303 27.204 18.7746C26.6809 19.3955 26.2231 19.7471 25.3346 19.7552C23.0359 19.8014 24.2612 19.743 21.9625 19.7837C21.0957 19.8055 20.2249 19.7457 19.3595 19.796C19.0037 19.7869 18.7739 20.0727 18.6736 20.3816C18.6628 20.4148 18.6568 20.449 18.6538 20.4838C18.5361 21.8351 18.7397 23.4679 18.5036 24.7998C18.4452 25.077 18.3827 25.4329 18.1436 25.6122C17.5282 26.1095 16.7008 26.1788 15.9712 25.9098C14.9822 25.5402 14.1032 24.9167 13.265 24.2849C12.5314 23.7103 11.8154 23.1084 11.1388 22.4672C10.2992 21.6778 9.42297 20.9184 8.61734 20.0938C8.07527 19.5327 7.66499 18.871 7.54815 18.0885C7.47343 17.4744 7.44626 16.8794 7.76824 16.3265C8.26139 15.4611 9.09691 14.7152 9.79521 14.0101C10.6769 13.1175 11.6727 12.3608 12.5843 11.5022C13.0734 11.0389 13.5978 10.6164 14.0828 10.1477C14.5162 9.73198 14.9347 9.34887 15.4998 9.11791C16.1288 8.83397 16.9154 8.90734 17.5445 9.15052Z" fill="#ADACAB"/>
</svg>
