<svg width="35" height="35" viewBox="0 0 35 35" fill="none" xmlns="http://www.w3.org/2000/svg">
<path fill-rule="evenodd" clip-rule="evenodd" d="M8.79016 10.1992C10.5902 8.88938 12.7816 8.7138 14.922 9.03122C15.4688 9.13109 15.9266 9.33988 16.3532 9.60561C16.9149 9.95548 17.1958 10.1304 17.397 10.1845C17.6241 10.2456 17.7105 10.2513 17.9438 10.2209C18.1504 10.1939 18.4568 10.0555 19.0698 9.77863C21.1948 8.81881 23.5832 8.70396 25.7726 9.76072C26.5796 10.0946 26.9267 10.8035 27.3509 11.5071C27.4575 11.6838 27.5108 11.7722 27.5432 11.8425C27.5741 11.9094 27.5949 11.9648 27.6157 12.0354C27.6375 12.1097 27.6502 12.1812 27.6756 12.3243C28.1423 14.9548 27.9007 17.5023 28.0001 20.1806C27.9537 20.8357 28.0921 21.8964 27.6104 22.4458C27.5657 22.4968 27.6775 22.3692 27.5378 22.4668C27.4859 22.503 27.1928 22.6441 27.1321 22.6621C26.9687 22.7104 26.9546 22.7111 26.9263 22.7124C26.6415 22.7256 26.3835 22.6907 26.1579 22.5072C26.1249 22.4803 26.2075 22.5475 26.1245 22.4503C26.0946 22.4152 25.9579 22.209 25.9372 22.1677C25.88 22.0535 25.8789 22.0496 25.8766 22.0419C25.6411 21.2322 25.7446 20.2685 25.7218 19.4472C25.7759 17.4715 25.6749 15.5387 25.7655 13.6026C25.7946 12.9803 25.8091 12.6692 25.7215 12.4147C25.6465 12.1969 25.5057 11.9839 25.3347 11.8295C25.135 11.6491 24.9052 11.5637 24.4457 11.3928C23.2094 10.933 21.9511 10.7399 20.5675 11.1836C19.854 11.4499 18.721 11.9286 18.8224 12.8662C18.7913 15.1629 18.8914 17.4503 18.8753 19.7406C18.8669 20.9279 18.8627 21.5215 19.0298 21.8356C19.209 22.1726 19.348 22.3024 19.6964 22.4583C20.021 22.6036 20.7317 22.5502 22.153 22.4432C23.6403 22.3314 25.0946 22.6416 26.3449 23.7715C27.0496 24.3009 26.9364 25.2777 26.1835 25.5776C26.1647 25.5851 26.2118 25.5664 26.1039 25.5907C26.0586 25.601 25.8586 25.6245 25.8121 25.6251C25.7015 25.6265 25.6793 25.6232 25.6349 25.6168C24.3864 25.435 23.1949 24.863 21.9474 24.8291C20.5864 24.8812 19.3086 25.6477 18.0502 26.0313C17.9323 26.0672 17.8734 26.0852 17.7478 26.0998C17.6696 26.109 17.4904 26.1084 17.4123 26.0987C17.2868 26.0832 17.2324 26.0662 17.1235 26.0323C15.6624 25.5764 14.5977 24.5641 12.8898 24.6435C11.4737 24.5946 10.4972 25.3196 9.37956 25.8287C9.13271 25.9411 9.00929 25.9974 8.67143 25.9822C8.4768 25.9734 8.00883 25.7973 7.85671 25.6756C7.59264 25.4643 7.54858 25.3666 7.46046 25.1711C7.32395 24.8684 7.2308 24.5453 7.19251 24.1982C6.85206 21.823 7.07373 19.2979 7.04114 16.8935C7.06285 15.3138 6.93916 13.7008 7.12024 12.1357C7.17125 11.3005 8.19265 10.6661 8.79016 10.1992ZM13.2599 10.8115C12.3471 10.779 11.5238 10.9639 10.7087 11.2316C10.2322 11.388 9.99395 11.4663 9.79055 11.6333C9.61982 11.7736 9.4663 11.9814 9.38243 12.1858C9.28251 12.4293 9.27737 12.6998 9.26709 13.2409C9.22426 15.4945 9.2415 17.7523 9.27386 20.0086C9.28757 20.9648 9.29443 21.4429 9.4787 21.7606C9.65606 22.0664 9.86421 22.2432 10.1946 22.3689C10.5379 22.4995 11.1062 22.4148 12.2429 22.2456C12.5761 22.196 12.9143 22.1669 13.2599 22.166C13.4548 22.1685 13.651 22.179 13.848 22.1957C14.9191 22.2869 15.4546 22.3325 15.7843 22.1862C16.0981 22.047 16.2991 21.8588 16.4587 21.5548C16.6263 21.2355 16.6173 20.7669 16.5994 19.8296C16.5579 17.6597 16.5454 15.4885 16.5632 13.3192C16.5679 12.7337 16.5703 12.441 16.4753 12.1928C16.3936 11.9792 16.2495 11.7752 16.0755 11.6266C15.8735 11.4541 15.6234 11.3676 15.1234 11.1947C14.5275 10.9886 13.92 10.8336 13.2599 10.8115Z" fill="#A7A9AB"/>
</svg>
