<svg width="35" height="35" viewBox="0 0 35 35" fill="none" xmlns="http://www.w3.org/2000/svg">
<path d="M22.5771 20.0496C22.9133 19.7819 23.3597 19.5704 23.7734 19.8074C24.6789 20.3248 25.3669 21.258 26.1445 21.99C26.4427 22.2776 26.6162 22.6731 26.3076 23.0261C25.6533 23.7383 24.9258 24.3764 24.2852 25.1052C23.4042 25.9041 22.6291 26.8032 21.707 27.5564C21.1059 28.0601 20.5608 28.7828 19.8105 29.034C18.7544 29.4174 17.774 29.838 16.6875 30.0906C16.5492 29.9204 16.3986 29.7512 16.2861 29.5642C16.268 28.9632 16.4244 28.3462 16.502 27.7498C16.6206 27.0166 16.6774 26.3392 17.1504 25.7322C18.0771 24.5483 19.1383 23.4524 20.1807 22.3689C20.9338 21.5549 21.7221 20.7556 22.5771 20.0496ZM7.78125 6.61501C11.7015 6.01078 15.7812 6.08482 19.7695 6.15701C20.401 6.16843 21.0303 6.17961 21.6562 6.18826C23.2169 6.29503 25.5409 6.50092 26.5293 7.94411C27.1854 8.77527 27.1837 9.8879 27.1816 10.9343C27.1812 11.1473 27.1804 11.3577 27.1855 11.5623C27.1704 12.4291 27.185 13.304 27.207 14.1814C26.0585 14.1056 24.9843 14.4499 24.1914 14.8572C24.2159 13.7425 24.221 12.6257 24.1816 11.5056C24.06 10.1461 23.1115 9.17819 21.75 9.07986C21.548 9.06527 21.3469 9.05525 21.1504 9.04568C21.0589 9.04122 20.9683 9.03684 20.8789 9.03201C20.5765 9.03294 20.2741 9.03391 19.9717 9.03494C17.3154 9.04392 14.6591 9.05296 12.0059 8.99978C11.8964 9.00025 11.7856 9.00087 11.6738 9.00076C11.4682 9.00054 11.2584 9.00026 11.0479 9.00369C9.59285 9.02759 8.60032 10.2544 8.45996 11.7029C8.25593 13.8086 8.19468 15.9657 8.21387 18.1062C8.22672 19.5252 9.81641 19.8531 10.9834 19.0457C11.4124 18.7489 11.8978 18.8879 12.2568 19.2664C12.3365 19.3503 12.4147 19.4376 12.4922 19.5271C13.4304 20.6112 15.0458 20.7575 15.9727 19.6638C16.3817 19.181 16.7893 18.695 17.1963 18.2097C17.4657 17.8886 17.7351 17.5671 18.0049 17.2468C18.6252 16.4954 19.4307 16.3632 20.1055 17.0828C20.3335 17.3169 20.5892 17.4934 20.8584 17.616C19.6675 18.7526 18.3334 20.1231 17.2852 21.4334C16.119 22.8911 15.6317 23.9801 15.4736 24.7C14.6813 24.6708 13.8899 24.6296 13.1006 24.5779C12.5773 24.5462 12.0087 24.5492 11.4219 24.5515C9.66792 24.5586 7.7495 24.5656 6.37988 23.6677C5.43041 22.841 5.29281 21.0619 5.28516 19.8718C5.29478 19.2506 5.30069 18.6227 5.30664 17.991C5.33371 15.1164 5.36154 12.1599 5.74316 9.37185C5.96455 8.26849 6.51447 6.72574 7.78125 6.61501ZM26.0811 16.657C26.5846 16.2737 27.1451 16.153 27.7354 16.4373C28.621 16.9318 29.3826 17.7635 29.7129 18.7312C29.7402 19.3351 29.2817 19.933 28.915 20.3758C28.6487 20.6527 28.1528 21.3329 27.7236 21.1961C27.1439 20.843 26.679 20.2739 26.1875 19.8113C25.7342 19.355 25.1895 18.9395 24.8184 18.4148C24.6954 18.2568 24.6584 18.1042 24.71 17.9568C25.0827 17.4579 25.5973 17.0465 26.0811 16.657Z" fill="#A7A9AB"/>
</svg>
