<svg width="35" height="35" viewBox="0 0 35 35" fill="none" xmlns="http://www.w3.org/2000/svg">
<path d="M9.8334 6.09168C13.3009 4.53182 16.9858 4.03802 20.7494 4.57117C22.8404 5.0897 25.2731 5.67694 27.0935 6.9953C28.5594 8.05693 29.642 9.61703 30.3522 11.2818C31.1804 13.2229 31.5837 15.352 31.4856 17.4601C31.4295 18.6636 31.2227 19.8453 30.7211 21.0009C30.3128 22.2566 29.6044 23.268 28.8327 24.2982C28.4027 24.8722 27.8605 25.3467 27.2919 25.7837C26.8227 26.1442 26.4118 26.581 25.9085 26.892C22.6942 28.8784 19.1092 29.0559 15.3305 28.9276C12.9691 28.8782 10.9045 29.4169 8.65482 30.1364C7.94383 30.3637 7.21431 30.5261 6.48363 30.6027C5.54138 30.7014 4.47716 30.6155 3.89526 29.8678C3.7187 29.641 3.59042 29.3831 3.53167 29.1161C3.31869 28.1482 4.22825 27.3319 4.81474 26.533C5.85803 25.1119 5.65672 23.3109 4.93387 21.703C4.59328 20.9453 4.26804 20.17 4.01992 19.3348C3.38012 16.2069 3.85789 12.6917 5.54824 9.97449C6.78044 8.48954 8.1194 7.01977 9.8334 6.09168ZM20.4564 7.96375C17.3997 7.85317 14.5838 7.68296 11.768 9.08094C8.92839 10.25 7.21018 13.6743 7.41153 16.6561C7.49533 18.0892 7.5765 19.6147 8.21114 20.9023C8.51732 21.5236 8.9089 22.1105 9.29141 22.6395C9.71237 23.4303 9.47155 24.0837 9.18285 24.7755C8.9544 25.3229 8.63231 25.8583 8.32841 26.3678C7.89498 27.0943 9.03423 27.1402 9.77111 26.7245C10.7278 26.1848 11.5902 25.4997 12.6049 25.0721C13.5054 24.8036 14.0783 25.2307 14.8998 25.4677C18.853 26.1548 23.0274 25.5425 25.8275 22.4227C28.2383 20.4008 28.5539 16.5754 27.6542 13.5603C27.2642 12.2532 26.5411 11.0511 25.4604 10.0848C23.9596 8.99875 22.2811 8.27181 20.4564 7.96375Z" fill="#ADACAB"/>
</svg>
