<svg width="35" height="35" viewBox="0 0 35 35" fill="none" xmlns="http://www.w3.org/2000/svg">
<path d="M11.6175 11.135C11.2597 9.91796 12.1093 8.62901 13.3691 8.48903C14.2556 8.37044 14.8797 8.87591 15.5854 9.31334C17.4556 10.5692 19.3706 11.7027 21.2078 13.0208C22.279 13.9093 23.2627 14.718 23.463 16.1858C23.572 19.6635 20.2021 22.2686 17.3234 24.2229C16.4875 24.8061 15.7254 25.4768 14.9283 26.1087C14.2653 26.5131 13.3263 26.7347 12.6381 26.2603C11.738 25.7276 11.7147 24.359 12.1599 23.5346C13.0872 22.1057 14.7397 21.1356 16.0481 20.0333C16.9809 19.3753 17.8183 18.6042 18.724 17.9145C18.8901 17.788 18.9975 17.598 19.0141 17.3898C19.0335 17.1481 18.9272 16.9143 18.7372 16.7637C18.3217 16.4342 17.9186 16.0902 17.5217 15.7387C16.4097 14.7666 15.1752 14.1465 13.9465 13.2813C13.1183 12.7253 11.8799 12.1926 11.6175 11.135Z" fill="#ADACAB"/>
</svg>
