<svg width="35" height="35" viewBox="0 0 35 35" fill="none" xmlns="http://www.w3.org/2000/svg">
<path d="M23.7898 12.6585C23.7626 13.1951 23.3273 13.5673 22.9877 13.933C22.7479 14.1689 22.1777 14.7464 21.5777 15.3673C21.0052 15.9596 20.719 16.2558 20.5862 16.6827C20.4779 17.0311 20.4824 17.4881 20.5975 17.8343C20.7386 18.2585 21.0468 18.5652 21.6632 19.1785C22.499 20.0101 23.3437 20.8702 23.6853 21.2968C24.1109 21.7942 24.0946 22.5572 23.7278 23.0763C23.1716 23.7827 21.9406 23.8883 21.2658 23.2875C20.8528 22.955 19.9356 21.9977 19.0818 21.1342C18.7106 20.7588 18.525 20.5711 18.0899 20.4299C17.7897 20.3324 17.2128 20.335 16.9134 20.4351C16.4796 20.5801 16.2954 20.7697 15.927 21.149C14.986 22.1177 13.9343 23.223 13.3905 23.5672C12.9823 23.8338 12.4262 23.8915 11.981 23.6837C11.426 23.4072 11.0951 22.7868 11.1887 22.1708C11.2551 21.5145 11.6904 21.0291 12.1269 20.5731C12.3367 20.3614 12.86 19.8378 13.4242 19.2659C14.0042 18.6779 14.2942 18.384 14.4311 17.9567C14.5424 17.6092 14.5414 17.1483 14.4285 16.8013C14.2897 16.3746 13.9873 16.0708 13.3826 15.4631C12.6839 14.7611 12.0073 14.0726 11.7372 13.7589C11.4216 13.3845 11.1767 12.9437 11.2018 12.4397C11.2246 11.9032 11.6621 11.4352 12.1073 11.1859C12.6939 10.9236 13.471 11.1652 13.9423 11.5603C14.2221 11.7951 14.8057 12.3648 15.428 12.984C16.127 13.6794 16.4764 14.0271 16.9067 14.1654C17.276 14.2842 17.7014 14.2827 18.07 14.1614C18.4993 14.0201 18.8437 13.6727 19.5325 12.9779C20.1177 12.3876 20.6557 11.847 20.9002 11.6126C21.2452 11.285 21.6555 11.0248 22.1474 11.0292C23.0127 11.0085 23.8399 11.7769 23.7898 12.6585Z" fill="#A7A9AB"/>
</svg>
