<svg width="35" height="35" viewBox="0 0 35 35" fill="none" xmlns="http://www.w3.org/2000/svg">
<mask id="path-3-inside-1_1945_34445" fill="white">
<path d="M5.942 9.11772C7.01382 8.38224 10.1758 7.67952 12.2633 8.15093C12.2714 8.15274 12.2796 8.15488 12.2877 8.15678C12.4486 8.19398 12.6032 8.23775 12.7496 8.2896C12.7601 8.29863 12.7704 8.30797 12.7809 8.31694C13.4714 8.58952 14.2032 9.06014 14.4645 9.32085C15.0689 9.98449 15.6791 10.6432 16.2877 11.3033C16.4439 11.3006 16.6004 11.2998 16.7565 11.2964V11.2955H16.7691C18.2769 11.2093 19.8108 11.266 21.3238 11.2457H21.3531V11.2466C21.8393 11.2345 22.3355 11.2539 22.8277 11.3003C23.6895 11.2805 24.733 11.3078 26.0211 11.3833C29.083 11.563 28.5451 13.3369 28.7037 14.2603C28.6019 19.1491 30.711 26.1076 24.9781 26.6333C24.4837 26.6787 23.9752 26.7003 23.4693 26.7046C23.2735 26.7246 23.0787 26.7347 22.8824 26.7378C22.5371 26.7434 22.1552 26.7326 21.7799 26.7427L21.7701 26.7447H21.7125C21.1336 26.7682 20.5573 26.7966 19.9791 26.8033L19.3912 26.8013L11.7574 26.8082V26.8091L11.6617 26.8101C11.4433 26.8111 11.2235 26.8067 11.0035 26.8003C8.26256 26.8877 5.17529 25.9509 5.01329 23.188C4.99163 21.4325 4.99986 19.9964 5.02012 18.7447C4.99189 18.3624 4.99686 17.9792 5.04161 17.5972C5.10036 15.1634 5.20199 13.3624 5.21055 10.9029C5.25118 10.322 5.25112 9.66525 5.942 9.11772Z"/>
</mask>
<path d="M5.942 9.11772L4.8104 7.46863L4.75369 7.50755L4.69978 7.55028L5.942 9.11772ZM12.2633 8.15093L11.8227 10.1018L11.8264 10.1026L12.2633 8.15093ZM12.2877 8.15678L11.8319 10.1042L11.8372 10.1054L12.2877 8.15678ZM12.7496 8.2896L14.0528 6.77242L13.7694 6.52904L13.4173 6.40434L12.7496 8.2896ZM12.7809 8.31694L11.4771 9.8336L11.7329 10.0534L12.0465 10.1773L12.7809 8.31694ZM14.4645 9.32085L15.943 7.97407L15.911 7.93887L15.8773 7.90522L14.4645 9.32085ZM16.2877 11.3033L14.8173 12.6589L15.4252 13.3183L16.3218 13.303L16.2877 11.3033ZM16.7565 11.2964L16.7998 13.296L18.7565 13.2535V11.2964H16.7565ZM16.7565 11.2955V9.29546H14.7565V11.2955H16.7565ZM16.7691 11.2955V13.2955H16.8263L16.8833 13.2922L16.7691 11.2955ZM21.3238 11.2457V9.24565H21.3104L21.2969 9.24583L21.3238 11.2457ZM21.3531 11.2457H23.3531V9.24565H21.3531V11.2457ZM21.3531 11.2466H19.3531V13.2972L21.4031 13.246L21.3531 11.2466ZM22.8277 11.3003L22.64 13.2915L22.7566 13.3025L22.8737 13.2998L22.8277 11.3003ZM26.0211 11.3833L26.1382 9.38678L26.1382 9.38678L26.0211 11.3833ZM28.7037 14.2603L30.7033 14.3019L30.7073 14.1104L30.6748 13.9217L28.7037 14.2603ZM24.9781 26.6333L25.1607 28.625L25.1608 28.625L24.9781 26.6333ZM23.4693 26.7046L23.4521 24.7047L23.3593 24.7055L23.2669 24.7149L23.4693 26.7046ZM22.8824 26.7378L22.9147 28.7376L22.9149 28.7376L22.8824 26.7378ZM21.7799 26.7427L21.7257 24.7435L21.5551 24.7481L21.3877 24.7816L21.7799 26.7427ZM21.7701 26.7447V28.7447H21.9682L22.1624 28.7058L21.7701 26.7447ZM21.7125 26.7447V24.7447H21.672L21.6315 24.7463L21.7125 26.7447ZM19.9791 26.8033L19.9725 28.8033L19.9873 28.8033L20.0021 28.8031L19.9791 26.8033ZM19.3912 26.8013L19.3979 24.8013L19.3894 24.8013L19.3912 26.8013ZM11.7574 26.8082L11.7556 24.8082L9.75743 24.8099V26.8082H11.7574ZM11.7574 26.8091L11.7778 28.809L13.7574 28.7888V26.8091H11.7574ZM11.6617 26.8101L11.6711 28.8101L11.6821 28.81L11.6617 26.8101ZM11.0035 26.8003L11.0609 24.8012L11.0003 24.7994L10.9398 24.8014L11.0035 26.8003ZM5.01329 23.188L3.01344 23.2127L3.01401 23.2589L3.01672 23.3051L5.01329 23.188ZM5.02012 18.7447L7.01986 18.7771L7.02132 18.6871L7.01469 18.5974L5.02012 18.7447ZM5.04161 17.5972L7.02802 17.83L7.03879 17.738L7.04102 17.6455L5.04161 17.5972ZM5.21055 10.9029L3.21543 10.7633L3.2108 10.8295L3.21056 10.8959L5.21055 10.9029ZM5.942 9.11772L7.07359 10.7668C7.25385 10.6431 7.97327 10.3443 9.06854 10.1515C10.1177 9.96675 11.1377 9.94711 11.8227 10.1018L12.2633 8.15093L12.7038 6.20005C11.3014 5.88334 9.6967 5.97935 8.37501 6.21203C7.09946 6.43659 5.70197 6.85685 4.8104 7.46863L5.942 9.11772ZM12.2633 8.15093L11.8264 10.1026C11.8167 10.1005 11.8091 10.0987 11.8047 10.0976C11.8006 10.0966 11.7977 10.0959 11.7987 10.0961C11.7996 10.0964 11.7991 10.0963 11.8013 10.0968C11.8027 10.0971 11.805 10.0977 11.8077 10.0984C11.8129 10.0996 11.8215 10.1017 11.8319 10.1042L12.2877 8.15678L12.7435 6.20942C12.7498 6.21089 12.7543 6.21199 12.7555 6.21227C12.7561 6.21243 12.7564 6.2125 12.7558 6.21234C12.7554 6.21226 12.7551 6.21219 12.7545 6.21203C12.7539 6.2119 12.7532 6.2117 12.7523 6.21149C12.7491 6.21071 12.7422 6.20902 12.734 6.20705C12.7255 6.20504 12.7139 6.2023 12.7002 6.19923L12.2633 8.15093ZM12.2877 8.15678L11.8372 10.1054C11.9377 10.1286 12.0184 10.1523 12.0819 10.1749L12.7496 8.2896L13.4173 6.40434C13.188 6.32315 12.9595 6.25934 12.7382 6.20819L12.2877 8.15678ZM12.7496 8.2896L11.4465 9.80677C11.4424 9.80327 11.4396 9.80084 11.439 9.80025C11.4385 9.7999 11.4386 9.79995 11.4415 9.80254C11.4436 9.80439 11.4487 9.80888 11.4542 9.81368C11.4599 9.81873 11.4679 9.82565 11.4771 9.8336L12.7809 8.31694L14.0846 6.80028C14.0886 6.80375 14.0914 6.80614 14.0919 6.80664C14.0922 6.80688 14.0921 6.80679 14.089 6.80405C14.0867 6.80206 14.0816 6.79752 14.076 6.79259C14.0701 6.78743 14.0621 6.78044 14.0528 6.77242L12.7496 8.2896ZM12.7809 8.31694L12.0465 10.1773C12.2632 10.2628 12.5153 10.3923 12.7416 10.5304C12.8517 10.5976 12.9418 10.6585 13.0067 10.706C13.0818 10.761 13.087 10.7717 13.0517 10.7365L14.4645 9.32085L15.8773 7.90522C15.5794 7.60796 15.1727 7.32809 14.8257 7.11629C14.4481 6.88576 13.9891 6.64369 13.5152 6.45663L12.7809 8.31694ZM14.4645 9.32085L12.9859 10.6676C13.5958 11.3372 14.213 12.0035 14.8173 12.6589L16.2877 11.3033L17.7581 9.94759C17.1452 9.28283 16.5421 8.6318 15.943 7.97407L14.4645 9.32085ZM16.2877 11.3033L16.3218 13.303C16.4323 13.3011 16.6512 13.2992 16.7998 13.296L16.7565 11.2964L16.7131 9.2969C16.5495 9.30045 16.4556 9.30011 16.2536 9.30356L16.2877 11.3033ZM16.7565 11.2964H18.7565V11.2955H16.7565H14.7565V11.2964H16.7565ZM16.7565 11.2955V13.2955H16.7691V11.2955V9.29546H16.7565V11.2955ZM16.7691 11.2955L16.8833 13.2922C18.346 13.2086 19.6886 13.2679 21.3508 13.2455L21.3238 11.2457L21.2969 9.24583C19.933 9.26421 18.2078 9.20994 16.655 9.29872L16.7691 11.2955ZM21.3238 11.2457V13.2457H21.3531V11.2457V9.24565H21.3238V11.2457ZM21.3531 11.2457H19.3531V11.2466H21.3531H23.3531V11.2457H21.3531ZM21.3531 11.2466L21.4031 13.246C21.8032 13.236 22.2197 13.2519 22.64 13.2915L22.8277 11.3003L23.0154 9.30917C22.4513 9.25599 21.8755 9.23296 21.3032 9.24725L21.3531 11.2466ZM22.8277 11.3003L22.8737 13.2998C23.6613 13.2817 24.6461 13.3062 25.904 13.3799L26.0211 11.3833L26.1382 9.38678C24.82 9.30949 23.7176 9.27937 22.7818 9.30087L22.8277 11.3003ZM26.0211 11.3833L25.904 13.3799C26.4929 13.4145 26.7201 13.5175 26.7616 13.5398C26.7754 13.5472 26.7511 13.536 26.714 13.4963C26.6765 13.4563 26.6501 13.4133 26.6349 13.3804C26.6141 13.3352 26.6379 13.356 26.6526 13.5781C26.661 13.7062 26.6616 13.7797 26.6707 13.9729C26.6777 14.1223 26.6906 14.3547 26.7326 14.5989L28.7037 14.2603L30.6748 13.9217C30.6771 13.9351 30.6722 13.91 30.6663 13.785C30.6625 13.7038 30.6552 13.4858 30.6439 13.3149C30.6191 12.9391 30.5563 12.332 30.2673 11.7054C29.5659 10.1843 28.053 9.49909 26.1382 9.38678L26.0211 11.3833ZM28.7037 14.2603L26.7041 14.2187C26.6763 15.5557 26.7995 17.0252 26.8897 18.321C26.9842 19.6787 27.0462 20.8804 26.9595 21.9163C26.8717 22.9662 26.6474 23.5934 26.3722 23.9555C26.1611 24.2333 25.7761 24.5518 24.7955 24.6417L24.9781 26.6333L25.1608 28.625C27.0466 28.452 28.5478 27.7036 29.5568 26.3759C30.5017 25.1327 30.8314 23.6161 30.9456 22.2496C31.0611 20.869 30.9732 19.3816 30.88 18.0432C30.7825 16.6429 30.6802 15.4093 30.7033 14.3019L28.7037 14.2603ZM24.9781 26.6333L24.7955 24.6417C24.3662 24.6811 23.914 24.7007 23.4521 24.7047L23.4693 26.7046L23.4866 28.7046C24.0364 28.6998 24.6011 28.6763 25.1607 28.625L24.9781 26.6333ZM23.4693 26.7046L23.2669 24.7149C23.1364 24.7282 22.9992 24.7357 22.85 24.7381L22.8824 26.7378L22.9149 28.7376C23.1583 28.7336 23.4106 28.7209 23.6718 28.6944L23.4693 26.7046ZM22.8824 26.7378L22.8501 24.7381C22.703 24.7405 22.5472 24.7394 22.3504 24.7386C22.1641 24.7378 21.9474 24.7374 21.7257 24.7435L21.7799 26.7427L21.8341 28.742C21.9877 28.7378 22.1496 28.7378 22.3343 28.7385C22.5087 28.7392 22.7165 28.7408 22.9147 28.7376L22.8824 26.7378ZM21.7799 26.7427L21.3877 24.7816L21.3779 24.7835L21.7701 26.7447L22.1624 28.7058L22.1721 28.7039L21.7799 26.7427ZM21.7701 26.7447V24.7447H21.7125V26.7447V28.7447H21.7701V26.7447ZM21.7125 26.7447L21.6315 24.7463C21.0283 24.7708 20.4963 24.7972 19.9561 24.8034L19.9791 26.8033L20.0021 28.8031C20.6183 28.796 21.2388 28.7655 21.7936 28.743L21.7125 26.7447ZM19.9791 26.8033L19.9858 24.8033L19.3979 24.8013L19.3912 26.8013L19.3846 28.8013L19.9725 28.8033L19.9791 26.8033ZM19.3912 26.8013L19.3894 24.8013L11.7556 24.8082L11.7574 26.8082L11.7592 28.8082L19.393 28.8013L19.3912 26.8013ZM11.7574 26.8082H9.75743V26.8091H11.7574H13.7574V26.8082H11.7574ZM11.7574 26.8091L11.737 24.8092L11.6413 24.8102L11.6617 26.8101L11.6821 28.81L11.7778 28.809L11.7574 26.8091ZM11.6617 26.8101L11.6524 24.8101C11.466 24.811 11.2713 24.8072 11.0609 24.8012L11.0035 26.8003L10.9462 28.7995C11.1758 28.8061 11.4206 28.8113 11.6711 28.8101L11.6617 26.8101ZM11.0035 26.8003L10.9398 24.8014C9.77401 24.8385 8.67815 24.6462 7.93735 24.275C7.26968 23.9404 7.03885 23.5654 7.00986 23.071L5.01329 23.188L3.01672 23.3051C3.14973 25.5735 4.54353 27.0484 6.14524 27.8511C7.67382 28.6171 9.49207 28.8495 11.0672 28.7993L11.0035 26.8003ZM5.01329 23.188L7.01313 23.1634C6.99173 21.4285 6.99987 20.0115 7.01986 18.7771L5.02012 18.7447L3.02038 18.7123C2.99984 19.9813 2.99153 21.4365 3.01344 23.2127L5.01329 23.188ZM5.02012 18.7447L7.01469 18.5974C6.99497 18.3304 6.99932 18.0749 7.02802 17.83L5.04161 17.5972L3.05519 17.3645C2.99439 17.8834 2.98881 18.3945 3.02555 18.892L5.02012 18.7447ZM5.04161 17.5972L7.04102 17.6455C7.09793 15.2879 7.2019 13.3892 7.21054 10.9098L5.21055 10.9029L3.21056 10.8959C3.20207 13.3356 3.10278 15.0389 3.04219 17.549L5.04161 17.5972ZM5.21055 10.9029L7.20568 11.0424C7.20861 11.0005 7.21131 10.9589 7.21364 10.9231C7.21608 10.8856 7.21819 10.8534 7.2204 10.8218C7.22482 10.7589 7.22878 10.7118 7.23311 10.672C7.24181 10.592 7.24945 10.5679 7.24834 10.5716C7.24539 10.5815 7.23387 10.6134 7.20941 10.6503C7.18465 10.6877 7.16788 10.6981 7.18422 10.6852L5.942 9.11772L4.69978 7.55028C3.22497 8.71908 3.24735 10.3069 3.21543 10.7633L5.21055 10.9029Z" fill="#AFB1B3" mask="url(#path-3-inside-1_1945_34445)"/>
</svg>
