<svg width="35" height="35" viewBox="0 0 35 35" fill="none" xmlns="http://www.w3.org/2000/svg">
<path d="M5.94149 9.11944C7.01209 8.38456 10.1692 7.68277 12.2569 8.15167C12.2685 8.15423 12.2804 8.15672 12.2921 8.15948C12.4511 8.19643 12.6043 8.24002 12.7491 8.29132C12.7598 8.30052 12.7707 8.30953 12.7813 8.31866C13.4716 8.59131 14.2019 9.062 14.463 9.32257C15.0676 9.98636 15.6785 10.6447 16.2872 11.305C16.4431 11.3023 16.5992 11.3015 16.755 11.2982V11.2972H16.7677C18.2753 11.2109 19.8094 11.2677 21.3223 11.2474H21.3516V11.2483C21.8378 11.2362 22.334 11.2557 22.8263 11.3021C23.6882 11.2822 24.7321 11.3085 26.0206 11.3841C29.0833 11.5637 28.5443 13.3388 28.7032 14.262C28.6016 19.1508 30.7105 26.1095 24.9776 26.6351C24.4842 26.6803 23.9766 26.7009 23.4718 26.7054C23.2747 26.7256 23.0785 26.7364 22.8809 26.7396C22.5356 26.7451 22.1536 26.7343 21.7784 26.7444L21.7686 26.7464H21.711C21.1322 26.7699 20.5557 26.7983 19.9776 26.805L19.3897 26.803L11.7559 26.8099V26.8108L11.6602 26.8118C11.4422 26.8128 11.2226 26.8084 11.003 26.8021C8.26233 26.8894 5.17533 25.952 5.01278 23.1898C4.99114 21.4359 4.99939 20.0002 5.01961 18.7493C4.9908 18.3616 4.99582 17.9726 5.04207 17.5853C5.10087 15.1581 5.20051 13.3587 5.20907 10.9036C5.24969 10.3229 5.251 9.66692 5.94149 9.11944ZM25.7921 13.2425C23.5082 12.9895 20.8248 13.1197 18.4806 13.1468C15.39 13.2221 12.1026 13.1132 9.07235 13.3753C7.45961 13.5772 7.12856 14.2941 8.26668 14.764C10.1285 15.1404 12.676 15.0107 14.711 15.0228C18.2162 14.9565 21.7444 15.0353 25.2345 14.9358C27.3901 14.746 27.6991 13.6672 25.7921 13.2425Z" fill="#A7A9AB"/>
</svg>
