<svg width="83" height="87" viewBox="0 0 83 87" fill="none" xmlns="http://www.w3.org/2000/svg">
<g filter="url(#filter0_d_1945_34397)">
<path d="M19.9365 8.81721C21.9511 7.43394 27.8703 6.11262 31.8241 6.96858C31.8838 6.98072 31.9445 6.99357 32.0058 7.00862C32.2916 7.07646 32.5667 7.15533 32.8281 7.24788C32.8457 7.26302 32.8633 7.27874 32.8808 7.29378C34.1906 7.80946 35.5795 8.70441 36.0751 9.19905C37.2193 10.4552 38.3695 11.7065 39.5214 12.9559C39.8184 12.9508 40.1153 12.9486 40.412 12.9422H40.415V12.9412H40.4208L40.4286 12.9403H40.4384C43.294 12.7769 46.1978 12.8851 49.0634 12.8465H49.12V12.8475C50.0596 12.824 51.019 12.8566 51.9697 12.9491C53.5907 12.914 55.5496 12.9639 57.9609 13.1053C63.7595 13.4455 62.7393 16.8051 63.04 18.5535C62.8472 27.8113 66.8418 40.9889 55.9853 41.9842C55.049 42.07 54.0866 42.1136 53.1288 42.1219C52.7571 42.1595 52.3875 42.1764 52.0146 42.1824C51.3631 42.193 50.6444 42.1733 49.9365 42.1922L49.9091 42.1961H49.7978C48.3312 42.2556 46.8748 42.3313 45.4042 42.3035L45.3779 42.3026C40.5678 42.3215 35.7591 42.309 30.9491 42.3172V42.3182L30.7675 42.3192C30.3733 42.321 29.977 42.3143 29.58 42.3035C24.3752 42.4842 18.4867 40.7122 18.1786 35.4608C18.1377 32.1464 18.1503 29.4334 18.1884 27.0682C18.1317 26.3246 18.1438 25.5787 18.2333 24.8358C18.3447 20.2457 18.5345 16.8413 18.5507 12.1961C18.6277 11.0961 18.6282 9.85412 19.9365 8.81721Z" fill="#D5D5D5"/>
</g>
<g filter="url(#filter1_d_1945_34397)">
<path d="M15.3259 17.2764C17.7785 15.5926 24.9807 13.9849 29.7956 15.0244C29.8713 15.0397 29.9482 15.056 30.0261 15.0752C30.3733 15.1577 30.7076 15.2528 31.0251 15.3652C31.0467 15.3837 31.0682 15.4025 31.0896 15.4209C32.6847 16.049 34.3758 17.1399 34.9792 17.7422C36.373 19.2724 37.7742 20.7963 39.1774 22.3184C39.5386 22.3122 39.8996 22.3066 40.2605 22.2988L40.2702 22.2979H40.281L40.2927 22.2969C43.7703 22.0979 47.3068 22.2306 50.7966 22.1836H50.8601C52.0076 22.1547 53.1793 22.1954 54.3405 22.3086C56.3137 22.2661 58.6973 22.326 61.6315 22.498C68.6944 22.9122 67.4516 27.0046 67.8181 29.1338C67.5834 40.408 72.4474 56.4547 59.2263 57.667C58.0874 57.7714 56.9167 57.8248 55.7517 57.835C55.2978 57.881 54.8467 57.9018 54.3913 57.9092C53.5967 57.922 52.7197 57.8967 51.8562 57.9199L51.8269 57.9248H51.7028C49.9128 57.9973 48.1353 58.0906 46.3405 58.0566L46.3093 58.0557C40.4509 58.0787 34.5943 58.0633 28.736 58.0732V58.0742L28.5153 58.0752C28.0378 58.0774 27.5577 58.0706 27.0769 58.0576C20.7365 58.2796 13.5606 56.1214 13.1853 49.7236C13.1354 45.6836 13.1505 42.3774 13.197 39.4951C13.1292 38.5956 13.144 37.6937 13.2517 36.7949C13.3873 31.1996 13.6187 27.0523 13.6384 21.3916C13.7321 20.0519 13.7323 18.5393 15.3259 17.2764Z" fill="#E6E6E6"/>
</g>
<g filter="url(#filter2_d_1945_34397)">
<path d="M12.6078 28.615C15.3799 26.7116 23.5238 24.8932 28.9652 26.0701C29.0479 26.0869 29.1322 26.1049 29.2172 26.1257C29.6109 26.2192 29.99 26.3273 30.35 26.4548C30.3746 26.476 30.3997 26.4973 30.4242 26.5183C32.2261 27.2281 34.1358 28.4599 34.8177 29.1404C36.3932 30.8701 37.9777 32.5928 39.5638 34.3132C39.9777 34.3062 40.3916 34.2998 40.8051 34.2908L40.8099 34.2898L40.8226 34.2888C44.7526 34.064 48.7491 34.214 52.6927 34.1609H52.7582C54.054 34.128 55.3774 34.1732 56.6888 34.3005C58.9205 34.2521 61.6173 34.3207 64.9379 34.5154C72.9191 34.9835 71.515 39.6083 71.9291 42.0144C71.6639 54.7552 77.1601 72.8896 62.2191 74.2595C60.932 74.3775 59.6091 74.4375 58.2924 74.449C57.7796 74.5008 57.2698 74.5247 56.7552 74.533C55.8594 74.5474 54.8705 74.5198 53.8968 74.5457L53.8568 74.5515H53.722C51.6975 74.6335 49.6875 74.7383 47.6576 74.7L47.6224 74.699C41.002 74.725 34.3834 74.7082 27.7631 74.7195V74.7205L27.5131 74.7214C26.9714 74.724 26.4267 74.7157 25.8812 74.7009C18.7177 74.95 10.6127 72.5098 10.1888 65.282C10.1327 60.7312 10.1494 57.0045 10.2015 53.7546C10.1224 52.7271 10.1407 51.6964 10.264 50.6697C10.4173 44.3479 10.6793 39.6613 10.7015 33.2654C10.8075 31.7515 10.8073 30.0421 12.6078 28.615Z" fill="#F8F8F8"/>
</g>
<defs>
<filter id="filter0_d_1945_34397" x="10.7753" y="0.794823" width="60.2058" height="50.3792" filterUnits="userSpaceOnUse" color-interpolation-filters="sRGB">
<feFlood flood-opacity="0" result="BackgroundImageFix"/>
<feColorMatrix in="SourceAlpha" type="matrix" values="0 0 0 0 0 0 0 0 0 0 0 0 0 0 0 0 0 0 127 0" result="hardAlpha"/>
<feOffset dy="1.47561"/>
<feGaussianBlur stdDeviation="3.68903"/>
<feComposite in2="hardAlpha" operator="out"/>
<feColorMatrix type="matrix" values="0 0 0 0 0.585 0 0 0 0 0.612083 0 0 0 0 0.65 0 0 0 0.25 0"/>
<feBlend mode="normal" in2="BackgroundImageFix" result="effect1_dropShadow_1945_34397"/>
<feBlend mode="normal" in="SourceGraphic" in2="effect1_dropShadow_1945_34397" result="shape"/>
</filter>
<filter id="filter1_d_1945_34397" x="4.16914" y="7.50719" width="73.3194" height="61.3512" filterUnits="userSpaceOnUse" color-interpolation-filters="sRGB">
<feFlood flood-opacity="0" result="BackgroundImageFix"/>
<feColorMatrix in="SourceAlpha" type="matrix" values="0 0 0 0 0 0 0 0 0 0 0 0 0 0 0 0 0 0 127 0" result="hardAlpha"/>
<feOffset dy="1.79703"/>
<feGaussianBlur stdDeviation="4.49258"/>
<feComposite in2="hardAlpha" operator="out"/>
<feColorMatrix type="matrix" values="0 0 0 0 0.585 0 0 0 0 0.612083 0 0 0 0 0.65 0 0 0 0.25 0"/>
<feBlend mode="normal" in2="BackgroundImageFix" result="effect1_dropShadow_1945_34397"/>
<feBlend mode="normal" in="SourceGraphic" in2="effect1_dropShadow_1945_34397" result="shape"/>
</filter>
<filter id="filter2_d_1945_34397" x="-0.000148773" y="17.5741" width="82.8572" height="69.3333" filterUnits="userSpaceOnUse" color-interpolation-filters="sRGB">
<feFlood flood-opacity="0" result="BackgroundImageFix"/>
<feColorMatrix in="SourceAlpha" type="matrix" values="0 0 0 0 0 0 0 0 0 0 0 0 0 0 0 0 0 0 127 0" result="hardAlpha"/>
<feOffset dy="2.03079"/>
<feGaussianBlur stdDeviation="5.07698"/>
<feComposite in2="hardAlpha" operator="out"/>
<feColorMatrix type="matrix" values="0 0 0 0 0.585 0 0 0 0 0.612083 0 0 0 0 0.65 0 0 0 0.25 0"/>
<feBlend mode="normal" in2="BackgroundImageFix" result="effect1_dropShadow_1945_34397"/>
<feBlend mode="normal" in="SourceGraphic" in2="effect1_dropShadow_1945_34397" result="shape"/>
</filter>
</defs>
</svg>
