<svg width="35" height="35" viewBox="0 0 35 35" fill="none" xmlns="http://www.w3.org/2000/svg">
<path d="M12.6071 5.12776C14.2038 4.65813 16.0409 4.1359 17.7037 4.42463C19.5508 4.76201 21.2556 4.8776 22.9078 5.86897C24.8523 6.98904 27.1312 8.18596 28.5817 9.9217C29.9653 11.9337 30.9051 14.1085 30.8321 16.5897C30.8309 16.6305 30.8303 16.6509 30.8305 16.667C30.8307 16.6833 30.8311 16.694 30.8322 16.7102C30.8333 16.7263 30.8354 16.7457 30.8395 16.7844C31.1657 19.8129 30.4854 22.4954 28.6784 24.953C27.1999 26.814 25.5057 28.7451 23.1403 29.4373C20.8757 30.1226 18.2703 30.9187 15.9049 30.5535C14.6178 30.404 13.2746 30.2961 12.0397 29.91C8.89507 28.5637 6.92928 26.0413 5.30824 23.1297C3.75347 20.3016 3.91763 16.6418 4.5055 13.5633C5.02385 11.0728 6.61997 9.4692 8.29652 7.6883C9.51059 6.45335 10.9547 5.62521 12.6071 5.12776ZM11.5641 20.2165C11.5005 19.8403 11.4687 19.6522 11.3773 19.5135C11.2962 19.3903 11.1848 19.2942 11.051 19.2319C10.9004 19.1619 10.7137 19.1581 10.3401 19.1504C9.80639 19.1395 9.2705 19.1333 8.73753 19.148C8.37537 19.1579 8.19429 19.1629 8.00765 19.2846C7.8735 19.3721 7.71695 19.5886 7.6759 19.7435C7.6188 19.9588 7.66206 20.1032 7.74859 20.3919C8.18157 21.8368 9.23776 22.9314 10.1959 24.159C10.7252 24.8029 11.3068 25.3798 11.9601 25.849C12.244 26.053 12.386 26.1549 12.7167 26.0937C12.9523 26.0501 13.25 25.789 13.3239 25.561C13.4276 25.2411 13.3177 25.0362 13.0979 24.6264C12.592 23.6832 12.1223 22.7267 11.8756 21.7303C11.7476 21.2366 11.6503 20.7268 11.5641 20.2165ZM27.0068 20.416C27.1762 19.9783 27.2609 19.7595 27.2139 19.5318C27.1757 19.3469 27.0441 19.1485 26.8887 19.0414C26.6972 18.9096 26.4347 18.9016 25.9097 18.8858C25.4079 18.8707 24.9056 18.8627 24.4073 18.8812C24.1284 18.8915 23.989 18.8967 23.8435 18.9651C23.7283 19.0192 23.5971 19.1313 23.5257 19.2366C23.4355 19.3698 23.408 19.5099 23.353 19.7902C23.1637 20.756 23.0387 21.7383 22.7457 22.6873C22.6736 22.9406 22.593 23.1886 22.5058 23.4327C22.1181 24.5181 21.9243 25.0608 22.0755 25.3623C22.1917 25.5942 22.4987 25.79 22.758 25.7975C23.0952 25.8073 23.4181 25.4887 24.0641 24.8514C25.3211 23.5538 26.362 22.0819 27.0068 20.416ZM20.125 20.3793C20.2295 19.9101 20.2818 19.6755 20.211 19.4664C20.1517 19.2912 20.0143 19.1248 19.8535 19.0334C19.6616 18.9243 19.4067 18.9315 18.8969 18.9461C17.8796 18.9752 16.8629 19.0082 15.8465 19.0378C15.3895 19.0511 15.161 19.0577 14.9802 19.17C14.8337 19.261 14.6988 19.4334 14.6457 19.5975C14.5802 19.7999 14.623 19.9971 14.7086 20.3916C15.0386 21.9123 15.714 23.315 16.6159 24.5847C16.8907 24.9716 17.0281 25.165 17.2524 25.2502C17.4285 25.317 17.6858 25.3091 17.8575 25.2315C18.0762 25.1327 18.2023 24.9298 18.4544 24.524C19.2746 23.204 19.7851 21.9054 20.125 20.3793ZM12.0749 10.946C12.3399 10.2514 12.4724 9.90403 12.3349 9.6034C12.2263 9.36597 11.9436 9.16714 11.6835 9.1452C11.354 9.11743 11.1523 9.29057 10.7488 9.63685C9.74289 10.5001 8.90385 11.5647 8.17347 12.7235C7.88198 13.2509 7.69934 13.8376 7.5609 14.4363C7.44969 14.9171 7.39409 15.1575 7.45961 15.3637C7.51542 15.5393 7.64233 15.7013 7.79944 15.7976C7.98388 15.9106 8.24344 15.9144 8.76254 15.922C9.17595 15.9281 9.5895 15.9331 10.0033 15.9375C10.4065 15.9418 10.608 15.9439 10.7681 15.8708C10.9104 15.8059 11.0273 15.7032 11.1101 15.5705C11.2032 15.4211 11.2276 15.2165 11.2765 14.8072C11.4084 13.7021 11.5812 12.593 11.8786 11.5301C11.9362 11.3313 12.0021 11.1368 12.0749 10.946ZM17.7074 8.57729C17.611 8.54111 17.5628 8.52301 17.4128 8.52551C17.3204 8.52705 17.1159 8.58299 17.0356 8.62872C16.9052 8.7029 16.8513 8.76992 16.7434 8.90396C16.1801 9.60365 15.7178 10.3985 15.3043 11.1883C14.7812 12.1734 14.5587 13.332 14.411 14.4733C14.3482 14.9583 14.3169 15.2009 14.3952 15.3934C14.4632 15.5605 14.5909 15.7033 14.7495 15.7895C14.9321 15.8887 15.1817 15.8844 15.681 15.8757C16.822 15.8559 17.9633 15.8332 19.1054 15.8192C19.5678 15.8135 19.7991 15.8106 19.9723 15.7153C20.1219 15.6329 20.2459 15.4971 20.3145 15.3407C20.3939 15.1596 20.3766 14.9388 20.3422 14.4973C20.2123 12.8343 19.9176 11.2647 19.0084 9.75862C18.6791 9.23431 18.2622 8.78541 17.7074 8.57729ZM25.0471 11.0551C24.3165 10.3757 23.9512 10.0361 23.6402 10.0366C23.3803 10.037 23.1161 10.182 22.9763 10.4011C22.8089 10.6632 22.9175 11.2514 23.1346 12.4279C23.2767 13.1977 23.3834 13.9766 23.4765 14.7838C23.5023 15.008 23.5152 15.1201 23.5859 15.2524C23.6342 15.3429 23.7641 15.485 23.8499 15.5411C23.9754 15.6232 24.0424 15.6371 24.1763 15.6647C24.6127 15.7549 25.1043 15.759 25.5981 15.7407C26.2948 15.715 26.6431 15.7021 26.8308 15.5745C27.0005 15.4592 27.1099 15.2994 27.1561 15.0995C27.2072 14.8784 27.1012 14.5718 26.8892 13.9586C26.6127 13.159 26.2584 12.3893 25.7067 11.7547C25.4982 11.5012 25.2778 11.2696 25.0471 11.0551Z" fill="#AFB1B3"/>
</svg>
