<svg width="35" height="35" viewBox="0 0 35 35" fill="none" xmlns="http://www.w3.org/2000/svg">
<mask id="path-3-outside-1_1990_7790" maskUnits="userSpaceOnUse" x="3.00049" y="6" width="28" height="23" fill="black">
<rect fill="white" x="3.00049" y="6" width="28" height="23"/>
<path d="M5.942 9.11969C7.01374 8.38419 10.1758 7.68147 12.2633 8.15289C12.2714 8.1547 12.2796 8.15685 12.2877 8.15875C12.4486 8.19595 12.6032 8.23972 12.7496 8.29156C12.7603 8.30076 12.7712 8.30978 12.7818 8.31891C13.4722 8.59156 14.2034 9.06223 14.4645 9.32281C15.069 9.98646 15.6791 10.6451 16.2877 11.3052C16.4439 11.3026 16.6004 11.3018 16.7565 11.2984V11.2974H16.7691C18.2769 11.2112 19.8108 11.268 21.3238 11.2476H21.3531V11.2486C21.8393 11.2365 22.3355 11.2559 22.8277 11.3023C23.6895 11.2825 24.733 11.3098 26.0211 11.3853C29.0833 11.5649 28.545 13.339 28.7037 14.2623C28.6019 19.151 30.711 26.1095 24.9781 26.6353C24.4837 26.6806 23.9752 26.7022 23.4693 26.7066C23.2735 26.7265 23.0787 26.7366 22.8824 26.7398C22.5371 26.7454 22.1552 26.7345 21.7799 26.7447L21.7701 26.7466H21.7125C21.1336 26.7701 20.5573 26.7986 19.9791 26.8052L19.3912 26.8033L11.7574 26.8101V26.8111L11.6617 26.8121C11.4433 26.8131 11.2235 26.8086 11.0035 26.8023C8.26256 26.8896 5.17531 25.9529 5.01329 23.19C4.99163 21.4344 4.99986 19.9984 5.02012 18.7466C4.99188 18.3643 4.99685 17.9812 5.04161 17.5992C5.10036 15.1653 5.20199 13.3644 5.21055 10.9048C5.25119 10.3239 5.25104 9.66728 5.942 9.11969Z"/>
</mask>
<path d="M5.942 9.11969L5.09324 7.88291L5.05074 7.91208L5.01033 7.9441L5.942 9.11969ZM12.2633 8.15289L11.9329 9.61605L11.9354 9.6166L12.2633 8.15289ZM12.2877 8.15875L11.9458 9.61928L11.9498 9.62019L12.2877 8.15875ZM12.7496 8.29156L13.7269 7.15361L13.5144 6.97112L13.2504 6.87762L12.7496 8.29156ZM12.7818 8.31891L11.8041 9.45647L11.9958 9.62119L12.2308 9.71403L12.7818 8.31891ZM14.4645 9.32281L15.5734 8.31273L15.5494 8.28636L15.5241 8.26117L14.4645 9.32281ZM16.2877 11.3052L15.1849 12.322L15.6408 12.8165L16.3133 12.805L16.2877 11.3052ZM16.7565 11.2984L16.789 12.798L18.2565 12.7662V11.2984H16.7565ZM16.7565 11.2974V9.79742H15.2565V11.2974H16.7565ZM16.7691 11.2974V12.7974H16.812L16.8548 12.795L16.7691 11.2974ZM21.3238 11.2476V9.74762H21.3137L21.3036 9.74775L21.3238 11.2476ZM21.3531 11.2476H22.8531V9.74762H21.3531V11.2476ZM21.3531 11.2486H19.8531V12.7865L21.3906 12.7481L21.3531 11.2486ZM22.8277 11.3023L22.687 12.7957L22.7744 12.8039L22.8622 12.8019L22.8277 11.3023ZM26.0211 11.3853L26.1089 9.88789L26.1089 9.88788L26.0211 11.3853ZM28.7037 14.2623L30.2034 14.2935L30.2064 14.1498L30.182 14.0081L28.7037 14.2623ZM24.9781 26.6353L25.1151 28.129L25.1151 28.129L24.9781 26.6353ZM23.4693 26.7066L23.4564 25.2067L23.3868 25.2073L23.3175 25.2143L23.4693 26.7066ZM22.8824 26.7398L22.9067 28.2396H22.9068L22.8824 26.7398ZM21.7799 26.7447L21.7393 25.2452L21.6113 25.2487L21.4857 25.2738L21.7799 26.7447ZM21.7701 26.7466V28.2466H21.9187L22.0643 28.2175L21.7701 26.7466ZM21.7125 26.7466V25.2466H21.6821L21.6517 25.2479L21.7125 26.7466ZM19.9791 26.8052L19.9741 28.3052L19.9853 28.3053L19.9964 28.3051L19.9791 26.8052ZM19.3912 26.8033L19.3962 25.3033L19.3899 25.3033L19.3912 26.8033ZM11.7574 26.8101L11.7561 25.3101L10.2574 25.3115V26.8101H11.7574ZM11.7574 26.8111L11.7727 28.311L13.2574 28.2959V26.8111H11.7574ZM11.6617 26.8121L11.6687 28.3121L11.677 28.312L11.6617 26.8121ZM11.0035 26.8023L11.0465 25.3029L11.0011 25.3016L10.9557 25.3031L11.0035 26.8023ZM5.01329 23.19L3.5134 23.2085L3.51383 23.2432L3.51586 23.2778L5.01329 23.19ZM5.02012 18.7466L6.51993 18.7709L6.52102 18.7034L6.51605 18.6361L5.02012 18.7466ZM5.04161 17.5992L6.53142 17.7737L6.5395 17.7048L6.54117 17.6354L5.04161 17.5992ZM5.21055 10.9048L3.71421 10.8002L3.71074 10.8498L3.71056 10.8996L5.21055 10.9048ZM5.942 9.11969L6.79076 10.3565C7.05985 10.1718 7.86398 9.85776 8.9818 9.66097C10.065 9.47028 11.1581 9.44109 11.9329 9.61604L12.2633 8.15289L12.5937 6.68974C11.2809 6.39327 9.74929 6.47972 8.46166 6.70641C7.20864 6.927 5.89588 7.33208 5.09324 7.88291L5.942 9.11969ZM12.2633 8.15289L11.9354 9.6166C11.9287 9.61511 11.9236 9.6139 11.9208 9.61325C11.9183 9.61264 11.9167 9.61226 11.918 9.61255C11.919 9.6128 11.9188 9.61276 11.9207 9.61323C11.922 9.61356 11.924 9.61404 11.9263 9.61459C11.9307 9.61567 11.9376 9.61735 11.9458 9.61927L12.2877 8.15875L12.6296 6.69823C12.6337 6.6992 12.6366 6.6999 12.6369 6.69998C12.6371 6.70003 12.6371 6.70002 12.6364 6.69984C12.6362 6.69981 12.634 6.69927 12.633 6.69901C12.6301 6.69831 12.6245 6.69693 12.6179 6.69535C12.6111 6.69373 12.6019 6.69158 12.5912 6.68918L12.2633 8.15289ZM12.2877 8.15875L11.9498 9.62019C12.0654 9.64693 12.1646 9.67567 12.2489 9.7055L12.7496 8.29156L13.2504 6.87762C13.0418 6.80376 12.8317 6.74496 12.6256 6.69731L12.2877 8.15875ZM12.7496 8.29156L11.7723 9.42952C11.7837 9.43929 11.7944 9.44826 11.7988 9.452C11.805 9.45725 11.805 9.45727 11.8041 9.45647L12.7818 8.31891L13.7596 7.18134C13.748 7.17142 13.7373 7.16236 13.7327 7.15852C13.7264 7.15316 13.7262 7.15303 13.7269 7.15361L12.7496 8.29156ZM12.7818 8.31891L12.2308 9.71403C12.4794 9.81222 12.7572 9.95579 13.0022 10.1054C13.1224 10.1789 13.2243 10.2475 13.302 10.3043C13.3873 10.3669 13.4149 10.3945 13.4048 10.3845L14.4645 9.32281L15.5241 8.26117C15.2684 8.00586 14.9016 7.75032 14.5661 7.54533C14.2076 7.32633 13.7746 7.09824 13.3329 6.92378L12.7818 8.31891ZM14.4645 9.32281L13.3555 10.3329C13.9641 11.001 14.5795 11.6654 15.1849 12.322L16.2877 11.3052L17.3905 10.2885C16.7787 9.62487 16.1738 8.97195 15.5734 8.31273L14.4645 9.32281ZM16.2877 11.3052L16.3133 12.805C16.4352 12.8029 16.6385 12.8013 16.789 12.798L16.7565 11.2984L16.7239 9.79875C16.5622 9.80226 16.4527 9.8022 16.2621 9.80545L16.2877 11.3052ZM16.7565 11.2984H18.2565V11.2974H16.7565H15.2565V11.2984H16.7565ZM16.7565 11.2974V12.7974H16.7691V11.2974V9.79742H16.7565V11.2974ZM16.7691 11.2974L16.8548 12.795C18.3287 12.7107 19.7192 12.7694 21.344 12.7475L21.3238 11.2476L21.3036 9.74775C19.9025 9.76663 18.2251 9.71174 16.6835 9.79987L16.7691 11.2974ZM21.3238 11.2476V12.7476H21.3531V11.2476V9.74762H21.3238V11.2476ZM21.3531 11.2476H19.8531V11.2486H21.3531H22.8531V11.2476H21.3531ZM21.3531 11.2486L21.3906 12.7481C21.8122 12.7376 22.2487 12.7544 22.687 12.7957L22.8277 11.3023L22.9685 9.80892C22.4223 9.75744 21.8664 9.73531 21.3157 9.74906L21.3531 11.2486ZM22.8277 11.3023L22.8622 12.8019C23.6684 12.7834 24.6678 12.8085 25.9333 12.8827L26.0211 11.3853L26.1089 9.88788C24.7982 9.81104 23.7106 9.78162 22.7933 9.8027L22.8277 11.3023ZM26.0211 11.3853L25.9333 12.8827C26.5664 12.9199 26.8719 13.0333 26.9987 13.1015C27.0568 13.1328 27.0766 13.154 27.0789 13.1565C27.081 13.1587 27.0836 13.1613 27.089 13.1729C27.1068 13.2117 27.1355 13.3058 27.1514 13.5471C27.1602 13.6806 27.1617 13.7721 27.1701 13.9514C27.177 14.0978 27.1889 14.3043 27.2254 14.5165L28.7037 14.2623L30.182 14.0081C30.1589 13.8736 30.1769 13.8349 30.1449 13.3498C30.1214 12.9933 30.0636 12.4595 29.8134 11.9169C29.2203 10.6306 27.9278 9.99458 26.1089 9.88789L26.0211 11.3853ZM28.7037 14.2623L27.204 14.231C27.1768 15.5394 27.2974 16.9794 27.3885 18.2882C27.4828 19.6436 27.548 20.881 27.4578 21.9599C27.3667 23.0494 27.1292 23.7878 26.7703 24.2601C26.4594 24.669 25.9349 25.0413 24.8411 25.1416L24.9781 26.6353L25.1151 28.129C26.8878 27.9665 28.2494 27.2717 29.1587 26.0753C30.0199 24.9423 30.3364 23.5369 30.4474 22.2099C30.5592 20.8724 30.4746 19.4207 30.3812 18.0799C30.2847 16.6927 30.1797 15.4296 30.2034 14.2935L28.7037 14.2623ZM24.9781 26.6353L24.8412 25.1416C24.3956 25.1824 23.9293 25.2026 23.4564 25.2067L23.4693 26.7066L23.4823 28.2065C24.0211 28.2019 24.5718 28.1789 25.1151 28.129L24.9781 26.6353ZM23.4693 26.7066L23.3175 25.2143C23.1707 25.2292 23.019 25.2374 22.8581 25.24L22.8824 26.7398L22.9068 28.2396C23.1384 28.2358 23.3764 28.2238 23.6212 28.1989L23.4693 26.7066ZM22.8824 26.7398L22.8582 25.24C22.7047 25.2425 22.5424 25.2413 22.3484 25.2405C22.1623 25.2398 21.9524 25.2395 21.7393 25.2452L21.7799 26.7447L21.8205 28.2441C21.9827 28.2397 22.1514 28.2398 22.3363 28.2405C22.5135 28.2412 22.7148 28.2427 22.9067 28.2396L22.8824 26.7398ZM21.7799 26.7447L21.4857 25.2738L21.476 25.2758L21.7701 26.7466L22.0643 28.2175L22.0741 28.2156L21.7799 26.7447ZM21.7701 26.7466V25.2466H21.7125V26.7466V28.2466H21.7701V26.7466ZM21.7125 26.7466L21.6517 25.2479C21.0547 25.2721 20.5116 25.299 19.9618 25.3053L19.9791 26.8052L19.9964 28.3051C20.603 28.2981 21.2125 28.2682 21.7733 28.2454L21.7125 26.7466ZM19.9791 26.8052L19.9841 25.3052L19.3962 25.3033L19.3912 26.8033L19.3862 28.3033L19.9741 28.3052L19.9791 26.8052ZM19.3912 26.8033L19.3899 25.3033L11.7561 25.3101L11.7574 26.8101L11.7588 28.3101L19.3926 28.3033L19.3912 26.8033ZM11.7574 26.8101H10.2574V26.8111H11.7574H13.2574V26.8101H11.7574ZM11.7574 26.8111L11.7421 25.3112L11.6464 25.3121L11.6617 26.8121L11.677 28.312L11.7727 28.311L11.7574 26.8111ZM11.6617 26.8121L11.6547 25.3121C11.4604 25.313 11.2593 25.309 11.0465 25.3029L11.0035 26.8023L10.9605 28.3017C11.1877 28.3082 11.4263 28.3132 11.6687 28.3121L11.6617 26.8121ZM11.0035 26.8023L10.9557 25.3031C9.73877 25.3418 8.55262 25.1445 7.71335 24.724C6.92892 24.3308 6.55272 23.8184 6.51072 23.1022L5.01329 23.19L3.51586 23.2778C3.63588 25.3245 4.88432 26.6618 6.36926 27.406C7.79936 28.1227 9.52731 28.3501 11.0513 28.3015L11.0035 26.8023ZM5.01329 23.19L6.51317 23.1715C6.49171 21.4314 6.49987 20.0097 6.51993 18.7709L5.02012 18.7466L3.52032 18.7224C3.49984 19.987 3.49155 21.4374 3.5134 23.2085L5.01329 23.19ZM5.02012 18.7466L6.51605 18.6361C6.49419 18.3403 6.4987 18.053 6.53142 17.7737L5.04161 17.5992L3.5518 17.4246C3.495 17.9094 3.48957 18.3884 3.5242 18.8572L5.02012 18.7466ZM5.04161 17.5992L6.54117 17.6354C6.59854 15.2587 6.70193 13.3845 6.71054 10.9101L5.21055 10.9048L3.71056 10.8996C3.70205 13.3443 3.60217 15.0718 3.54205 17.563L5.04161 17.5992ZM5.21055 10.9048L6.7069 11.0095C6.71968 10.8267 6.72369 10.7335 6.73604 10.6199C6.74669 10.5219 6.75876 10.4655 6.76935 10.4301C6.77856 10.3994 6.78641 10.3854 6.79251 10.3762C6.79837 10.3674 6.81819 10.3392 6.87366 10.2953L5.942 9.11969L5.01033 7.9441C3.73141 8.95766 3.74831 10.3127 3.71421 10.8002L5.21055 10.9048Z" fill="#AFB1B3" mask="url(#path-3-outside-1_1990_7790)"/>
<path d="M15.403 14.1985C16.0873 13.9973 16.8749 13.773 17.5875 13.8968C18.3791 14.0414 19.1099 14.0911 19.818 14.5159C20.6513 14.9959 21.628 15.5084 22.2497 16.2523C22.8427 17.1146 23.2453 18.0473 23.214 19.1108C23.2135 19.1283 23.2132 19.137 23.2133 19.144C23.2134 19.1509 23.2136 19.1555 23.214 19.1624C23.2145 19.1693 23.2154 19.1776 23.2172 19.1943C23.3569 20.4921 23.0651 21.6414 22.2907 22.6946C21.6571 23.4922 20.9313 24.3198 19.9176 24.6165C18.9471 24.9102 17.8299 25.2516 16.8161 25.095C16.2646 25.0309 15.6889 24.9851 15.1598 24.8196C13.8121 24.2426 12.9698 23.1612 12.275 21.9134C11.6088 20.7014 11.6794 19.1331 11.9313 17.8138C12.1534 16.7463 12.8377 16.0586 13.5563 15.2952C14.0765 14.7662 14.6951 14.4117 15.403 14.1985ZM14.9562 20.665C14.9291 20.5039 14.9155 20.4233 14.8764 20.3638C14.8416 20.311 14.7939 20.2698 14.7366 20.2431C14.672 20.213 14.592 20.2114 14.4318 20.208C14.2032 20.2033 13.9736 20.2005 13.7453 20.2068C13.5901 20.211 13.5126 20.2131 13.4326 20.2652C13.375 20.3027 13.3079 20.3955 13.2903 20.4618C13.2658 20.5541 13.2843 20.616 13.3214 20.7398C13.5068 21.3592 13.9591 21.8287 14.3698 22.3548C14.5965 22.6306 14.8457 22.8777 15.1256 23.0785C15.2475 23.166 15.3084 23.2098 15.4502 23.1835C15.5512 23.1648 15.6787 23.0529 15.7103 22.9552C15.7548 22.818 15.7076 22.7301 15.6133 22.5544C15.3965 22.1504 15.1952 21.7406 15.0895 21.3138C15.0346 21.1022 14.9931 20.8837 14.9562 20.665ZM21.5751 20.7505C21.6477 20.563 21.684 20.4692 21.6638 20.3716C21.6475 20.2924 21.591 20.2073 21.5243 20.1614C21.4422 20.1049 21.3298 20.1016 21.105 20.095C20.8899 20.0886 20.6746 20.0853 20.4611 20.0934C20.3415 20.0978 20.2817 20.1001 20.2193 20.1294C20.17 20.1526 20.1138 20.2006 20.0832 20.2458C20.0446 20.3028 20.0328 20.3629 20.0092 20.483C19.928 20.897 19.8743 21.3182 19.7487 21.7249C19.7177 21.8334 19.6832 21.9396 19.6459 22.0442C19.4797 22.5093 19.3967 22.7418 19.4615 22.871C19.5113 22.9704 19.6429 23.0543 19.754 23.0576C19.8985 23.0618 20.037 22.9251 20.3141 22.6517C20.8527 22.0956 21.2988 21.4645 21.5751 20.7505ZM16.7913 20.1606C16.5955 20.1663 16.4975 20.1691 16.4201 20.2172C16.3573 20.2562 16.2994 20.33 16.2767 20.4004C16.2486 20.4871 16.2669 20.5717 16.3036 20.7408C16.4449 21.3926 16.7341 21.994 17.1205 22.5383C17.2382 22.7041 17.2971 22.787 17.3933 22.8235C17.4687 22.8522 17.579 22.8488 17.6526 22.8156C17.7463 22.7732 17.8004 22.6863 17.9084 22.5124C18.2601 21.9466 18.4791 21.3899 18.6249 20.7358C18.6697 20.5347 18.6921 20.4342 18.6618 20.3445C18.6364 20.2695 18.5775 20.1981 18.5086 20.1589C18.4264 20.1122 18.3171 20.1153 18.0986 20.1215C17.6626 20.1339 17.2269 20.1479 16.7913 20.1606ZM15.1743 16.6922C15.2879 16.3942 15.3447 16.2452 15.2858 16.1164C15.2392 16.0146 15.118 15.9294 15.0065 15.9201C14.8654 15.9082 14.7788 15.9825 14.6057 16.1311C14.1749 16.501 13.8155 16.957 13.5026 17.4534C13.3777 17.6795 13.2993 17.9309 13.24 18.1875C13.1923 18.3935 13.1684 18.4966 13.1965 18.5849C13.2204 18.6602 13.2748 18.7296 13.3422 18.7709C13.4212 18.8193 13.5325 18.8209 13.7549 18.8242C13.9322 18.8268 14.1096 18.8289 14.2871 18.8308C14.4599 18.8326 14.5463 18.8335 14.6149 18.8021C14.6759 18.7743 14.726 18.7303 14.7614 18.6734C14.8013 18.6094 14.8118 18.5217 14.8327 18.3463C14.8892 17.8726 14.963 17.3972 15.0905 16.9417C15.1151 16.8568 15.1433 16.7737 15.1743 16.6922ZM17.5887 15.6768C17.5473 15.6613 17.5266 15.6535 17.4623 15.6547C17.4227 15.6553 17.3352 15.6793 17.3008 15.6989C17.245 15.7307 17.2218 15.7595 17.1755 15.8169C16.9343 16.1166 16.7363 16.4569 16.5592 16.7952C16.335 17.2174 16.2397 17.7139 16.1765 18.2031C16.1496 18.411 16.1362 18.5149 16.1697 18.5974C16.1989 18.669 16.2536 18.7302 16.3216 18.7672C16.3998 18.8097 16.5068 18.8078 16.7208 18.8041C17.2097 18.7956 17.6988 18.7858 18.1882 18.7798C18.3864 18.7773 18.4855 18.7761 18.5598 18.7352C18.6239 18.6999 18.6771 18.6417 18.7064 18.5747C18.7404 18.4971 18.7331 18.4025 18.7183 18.2132C18.6627 17.5007 18.5365 16.8282 18.1471 16.1829C18.0059 15.9582 17.8268 15.7659 17.5887 15.6768ZM20.7346 16.7384C20.422 16.4474 20.2656 16.3018 20.1324 16.302C20.021 16.3021 19.9077 16.3642 19.8477 16.4581C19.7759 16.5704 19.8223 16.8223 19.915 17.3261C19.9758 17.6559 20.0214 17.9897 20.0612 18.3356C20.0722 18.4317 20.0777 18.4797 20.108 18.5364C20.1287 18.5752 20.1844 18.6361 20.2212 18.6601C20.275 18.6954 20.3037 18.7013 20.3611 18.7132C20.5482 18.7519 20.759 18.7536 20.9708 18.7458C21.2693 18.7349 21.4186 18.7294 21.4991 18.6747C21.5718 18.6253 21.6187 18.5567 21.6385 18.471C21.6604 18.3762 21.6149 18.2449 21.524 17.9823C21.4054 17.6398 21.2535 17.3102 21.0172 17.0384C20.9279 16.9297 20.8334 16.8304 20.7346 16.7384Z" fill="#AFB1B3"/>
</svg>
