<svg width="35" height="35" viewBox="0 0 35 35" fill="none" xmlns="http://www.w3.org/2000/svg">
<path d="M19.0437 6.52893C19.6819 7.12711 20.158 7.92937 20.4121 8.76363C20.7422 9.86398 21.0943 10.9703 21.5525 12.0247C21.7525 12.4028 21.9406 12.9189 22.4627 12.8529C23.6311 12.8669 24.7715 12.7849 25.9298 13.015C27.0062 13.203 28.3786 13.115 29.1649 14.0133C29.521 14.5194 29.9071 15.4137 29.531 15.9919C29.2149 16.5561 28.8648 17.2103 28.3486 17.6084C27.2202 18.4827 26.0079 19.2689 24.9215 20.1932C24.5834 20.4273 24.7555 20.8734 24.7955 21.2115C25.1936 22.686 25.7818 24.1145 26.2359 25.5729C26.478 26.2331 26.1559 26.9574 25.8978 27.5675C25.5717 28.3258 24.9215 28.976 24.0552 29C23.0809 28.888 22.1126 28.1957 21.2844 27.6976C20.008 26.9514 18.8236 26.0951 17.6412 25.2108C15.8867 26.0651 14.3622 27.3515 12.7037 28.3698C12.3756 28.5599 12.0135 28.5119 11.6513 28.5038C11.0171 28.4598 10.3309 28.3898 9.85277 27.9237C9.26459 27.3495 9.10053 26.5292 9.25258 25.739C9.51667 24.3906 10.0268 23.0321 10.473 21.7677C10.607 21.2796 10.8031 20.6094 10.3289 20.2392C8.93848 19.0229 7.392 17.9705 5.93554 16.8322C5.08727 16.174 5.12328 14.6815 5.94954 14.0233C6.36167 13.6852 6.84983 13.4111 7.34798 13.223C9.13054 12.7029 10.8251 12.8009 12.6016 12.6288C13.1038 12.5868 13.2758 12.3988 13.4899 11.9686C14.0701 10.6642 14.5583 9.3198 15.1544 8.0234C15.4885 7.31317 15.8707 6.64496 16.5929 6.26684C17.3831 5.84071 18.3715 5.92273 19.0437 6.52893Z" fill="#A7A9AB"/>
</svg>
