<svg width="35" height="35" viewBox="0 0 35 35" fill="none" xmlns="http://www.w3.org/2000/svg">
<path d="M21.4945 8.43831C22.3367 8.48398 23.3653 8.67946 23.9846 9.2988C24.7337 9.95285 25.3475 10.7531 25.3749 11.7889C25.3932 12.6969 24.878 13.5812 24.3774 14.3083C23.8713 15.0409 23.2082 15.5506 22.5998 16.1791C21.8982 16.9428 21.1273 17.6315 20.4495 18.4189C19.0208 19.928 17.7328 21.5796 15.9497 22.6922C15.1312 23.3024 13.8158 23.0685 13.1837 22.2903C12.7123 21.7568 12.3689 21.1448 12.5863 20.4103C12.8183 19.4311 13.56 18.9067 14.2232 18.2235C15.0271 17.3794 15.9424 16.6614 16.7207 15.79C17.5117 15.1085 18.1128 14.2005 18.9477 13.5848C19.4611 13.2085 20.5024 13.8114 20.1553 14.4471C19.5086 15.3606 18.6664 16.1517 17.9338 16.9994C17.0221 17.922 16.2383 18.9469 15.2755 19.8202C15.1099 19.9916 14.9167 20.1404 14.7729 20.3161C14.523 20.6214 14.8137 21.1998 15.1312 20.9657C16.9527 19.7965 18.3887 18.0389 19.916 16.5975C21.0597 15.4191 22.154 14.206 23.0693 12.8394C23.3835 12.4247 23.1113 11.7487 22.8263 11.3815C22.0612 10.3872 20.5158 10.9192 19.5257 11.6898C19.154 11.9791 18.7983 12.2863 18.4617 12.5873C17.3382 13.4697 16.3315 14.48 15.3979 15.5616C14.4278 16.539 13.4723 17.5457 12.6045 18.6181C12.1734 19.1863 11.7057 19.8367 11.6162 20.562C11.4901 21.6947 11.9414 22.8493 12.7598 23.6312C13.5619 24.2469 14.6909 24.5666 15.6702 24.2122C16.6823 23.9363 17.4953 23.1179 18.1987 22.3779C19.874 20.7118 21.4159 18.8921 23.1205 17.2533C23.5847 16.786 24.5488 16.9205 24.7654 17.5426C24.8117 17.6755 24.8309 17.8277 24.814 18.0097C24.7081 18.7204 23.9335 19.2904 23.4785 19.8056C22.5157 20.9072 21.5603 22.0235 20.5499 23.0831C19.3953 24.1464 18.2261 25.4856 16.7134 26.0191C15.8839 26.3132 15.0819 26.653 14.183 26.5434C13.4449 26.4849 12.8512 26.1561 12.2063 25.8254C11.0352 25.2298 10.2569 23.929 9.87872 22.7123C9.58641 21.4827 9.45122 20.118 10.0084 18.9396C11.2161 16.6541 13.2732 15.0172 14.9284 13.0806C15.5624 12.3663 16.284 11.7542 17.0184 11.1495C17.6323 10.6507 18.0963 10.046 18.7632 9.61121C19.6054 9.05764 20.4239 8.38715 21.4945 8.43831Z" fill="#A7A9AB"/>
</svg>
