<svg width="35" height="35" viewBox="0 0 35 35" fill="none" xmlns="http://www.w3.org/2000/svg">
<path fill-rule="evenodd" clip-rule="evenodd" d="M10.0064 9.1582C12.1368 9.1681 14.2676 9.16526 16.3985 9.16242C19.9874 9.15763 23.5765 9.15285 27.1646 9.20893C28.1721 9.16786 29.0353 9.60753 29.3839 10.4603C29.8196 11.5208 28.9782 12.7624 27.7092 12.8808C27.1786 12.9206 26.6424 12.8993 26.106 12.878C25.7312 12.8632 25.3564 12.8483 24.9834 12.8542C23.4153 12.9349 21.8514 12.9086 20.2871 12.8823C19.0397 12.8613 17.7921 12.8403 16.5418 12.8736C15.0224 12.9168 13.5097 12.8776 11.9963 12.8383L11.9963 12.8383C10.971 12.8117 9.94544 12.7852 8.91718 12.7842L8.7766 12.7816C8.05294 12.7688 7.25582 12.7546 6.58349 12.5233C5.54327 12.1102 5.06129 10.7912 6.00892 10.0617C6.93826 9.21269 8.12343 9.19355 9.34281 9.17385C9.56333 9.17029 9.78497 9.16671 10.0064 9.1582ZM12.1824 15.7639C16.0846 15.7016 19.9976 15.7327 23.8971 15.7807L23.9649 15.7831C24.7299 15.8104 25.4138 15.8348 25.9666 16.3727C26.8353 17.142 26.7073 18.4506 25.7297 19.1025C25.1407 19.5378 24.2134 19.495 23.3739 19.4563C23.0762 19.4425 22.7895 19.4293 22.5328 19.4381C19.5347 19.4836 16.5448 19.5172 13.5466 19.3662C13.1969 19.3509 12.8361 19.3506 12.4719 19.3504H12.4719C11.6366 19.3498 10.7833 19.3492 10.0039 19.1672C8.85204 18.9036 8.20122 17.4847 9.1298 16.7082C9.95761 15.9149 11.0196 15.795 12.1824 15.7639ZM19.6788 22.1283C18.532 22.0898 17.3963 22.0516 16.2582 22.1754C15.9648 22.2099 15.6792 22.2289 15.4013 22.2475C14.436 22.3119 13.5622 22.3702 12.7672 23.0465C11.7679 23.7425 12.239 25.1205 13.3527 25.4895C14.1101 25.711 14.9782 25.7163 15.8179 25.7215C16.1557 25.7236 16.4888 25.7256 16.8083 25.7417C17.1428 25.7522 17.4846 25.7674 17.8305 25.7828C19.264 25.8465 20.7691 25.9135 22.1292 25.6576C23.1123 25.4077 23.7141 24.5763 23.567 23.7075C23.4554 22.7966 22.4968 22.1404 21.443 22.166C20.8509 22.1676 20.2634 22.1479 19.6788 22.1283Z" fill="#ADACAB"/>
</svg>
