<svg width="35" height="35" viewBox="0 0 35 35" fill="none" xmlns="http://www.w3.org/2000/svg">
<path d="M25.3209 7.86666C24.2371 7.10214 22.9079 6.82144 21.6265 7.2192C20.2828 7.61935 19.2658 8.4215 18.4236 9.43315C18.0512 9.8805 17.865 10.1042 17.7041 10.1591C17.5429 10.2141 17.4289 10.21 17.2722 10.1435C17.1157 10.0771 16.9456 9.83983 16.6055 9.36536C16.1584 8.74164 15.6303 8.19441 14.9166 7.77877C13.79 7.06429 12.387 6.96843 11.1461 7.44478C9.21453 8.19271 7.80022 9.78651 7.05231 11.6919C5.75418 14.936 5.7443 18.7379 6.54938 22.1059C7.06148 24.2136 8.04748 26.1238 9.93122 27.3051C11.4032 28.2055 13.1712 28.0965 14.7242 27.4653C15.6157 27.1087 16.3219 26.5435 16.9458 25.8709C17.2511 25.5418 17.4038 25.3772 17.5508 25.3282C17.6909 25.2815 17.8088 25.283 17.9478 25.3332C18.0935 25.3858 18.2366 25.548 18.5229 25.8725C19.2491 26.6955 20.0462 27.391 21.1929 27.7026C23.3889 28.2575 25.9138 27.2696 27.2906 25.5024C28.5482 23.8279 29.0296 21.5696 28.9986 19.5092C28.9748 17.2155 28.6534 14.6501 28.1461 12.4135C27.6268 10.7319 26.8453 8.8718 25.3209 7.86666ZM12.3433 9.5981C13.2389 9.37433 14.1129 10.0248 14.6226 10.7036C14.9748 11.1693 15.1564 11.6797 15.2801 12.2131C15.3869 12.6737 15.4403 12.904 15.3897 13.0626C15.3359 13.2311 15.2786 13.3039 15.1274 13.3958C14.9852 13.4823 14.6211 13.4857 13.8929 13.4925C13.7533 13.4939 13.6149 13.5125 13.4791 13.5542C12.5312 13.8091 11.9432 14.8031 11.7789 15.7153C11.6265 16.7323 11.6362 17.7806 11.6148 18.8071C11.6267 19.6502 11.6337 20.574 12.1148 21.3051C12.5888 22.0316 13.2316 22.615 14.1509 22.5913C14.9303 22.6276 15.32 22.6457 15.4502 22.7233C15.6868 22.8642 15.7602 23.0023 15.7447 23.2773C15.7362 23.4286 15.6707 23.5362 15.5396 23.7514C14.8346 24.9495 13.3837 25.6575 12.0093 25.5337C10.9663 25.4025 10.1255 24.4138 9.63728 23.5493C8.77979 21.9248 8.51294 19.8975 8.42243 18.0825C8.35814 16.1604 8.61607 14.1386 9.38532 12.3618C9.91649 11.116 10.9928 9.92919 12.3433 9.5981ZM21.0445 10.1997C21.6018 9.76383 22.4498 9.32397 23.1715 9.4858C24.2028 9.76925 25.0006 10.7055 25.2769 11.7202C25.297 11.7976 25.3163 11.8753 25.335 11.9531C25.4469 12.4204 25.5029 12.6541 25.462 12.8037C25.413 12.9831 25.3869 13.0212 25.2372 13.1315C25.1123 13.2235 24.6874 13.2805 23.8374 13.3945C23.7495 13.4063 23.6603 13.4256 23.5699 13.4536C22.4433 13.7918 21.8547 15.0709 21.8189 16.1713C21.7522 17.5528 21.6068 19.0204 21.8736 20.3852C22.1547 21.4712 23.1811 22.6162 24.398 22.4926C25.0824 22.4604 25.4247 22.4443 25.5687 22.5185C25.8026 22.6391 25.8962 22.7923 25.8966 23.0555C25.8969 23.2175 25.8398 23.3168 25.7257 23.5154C25.5394 23.8398 25.309 24.1441 25.022 24.4223C24.1694 25.2153 22.8123 25.6655 21.6763 25.3227C20.464 24.844 19.6252 23.4673 19.2369 22.2788C18.7677 20.9378 18.9204 19.6991 18.8394 18.3129C18.7775 16.8957 18.5273 15.6233 18.856 14.2085C19.2181 12.7008 19.7751 11.1809 21.0445 10.1997ZM13.6812 16.7329C13.6025 15.9179 14.4227 15.4235 14.9322 15.9409C15.456 16.4 15.6119 17.7958 14.9136 18.0932C14.1888 18.3876 13.7578 17.4864 13.6812 16.7329ZM24.1205 15.8335C24.1216 15.8321 24.1222 15.8314 24.1487 15.8068C24.16 15.7962 24.2112 15.7555 24.224 15.7469C24.2541 15.7267 24.2582 15.7246 24.2666 15.7203C24.5088 15.5965 24.7571 15.5794 25.0072 15.6761C25.0174 15.68 25.0225 15.682 25.0561 15.7002C25.0716 15.7085 25.1274 15.7451 25.1413 15.7559C25.1714 15.7795 25.1751 15.7831 25.1823 15.7904C25.7399 16.353 25.8491 17.7046 25.0496 18.0077C25.0484 18.0081 25.0513 18.0071 25.0181 18.0155C25.0063 18.0185 24.9404 18.0301 24.9283 18.0313C24.8942 18.0346 24.9158 18.035 24.9072 18.0348C24.1806 18.0242 23.5735 16.4823 24.1205 15.8335Z" fill="#A7A9AB"/>
</svg>
