<svg width="35" height="35" viewBox="0 0 35 35" fill="none" xmlns="http://www.w3.org/2000/svg">
<path fill-rule="evenodd" clip-rule="evenodd" d="M22.4246 7.93472C23.4102 7.5922 24.7464 7.74037 25.4587 8.56754C25.6102 8.70524 25.7622 8.84371 25.9136 8.98352C26.9309 9.92299 28.1521 11.0299 27.9841 12.4045C27.8475 13.0057 27.6992 13.5774 27.282 14.0529C27.0516 14.3193 26.8204 14.5843 26.5878 14.8479C25.4538 16.1337 24.1426 17.2819 23.157 18.6847C22.5047 19.53 21.6254 20.1991 20.9294 21.008C20.7509 21.1986 20.5664 21.3828 20.3806 21.5656C19.4634 22.4677 18.4521 23.2729 17.5857 24.2238C17.1886 24.6243 16.6967 24.666 16.1941 24.8644C15.6798 25.0528 15.1444 25.2776 14.6119 25.4619C14.2703 25.5801 13.9307 25.7047 13.5972 25.8441C13.3889 25.9312 13.1803 26.0117 12.9695 26.0815C11.9271 26.4264 11.0462 27.2961 9.94995 27.2336C9.0499 27.1352 8.07161 27.2856 7.27906 26.9103C6.94024 26.7117 6.9221 26.3017 7.15894 26.0138C8.14288 24.7509 8.96764 23.3618 9.43233 21.8298C9.44405 21.7911 9.45579 21.7525 9.46753 21.714C9.62605 21.1896 9.88802 20.7833 10.0173 20.257C10.2633 19.3935 10.9539 18.6576 11.5369 17.9962C12.2055 17.1502 12.8795 16.2936 13.5976 15.4796C14.5022 14.4543 15.4396 13.438 16.5183 12.5978C17.1359 12.1223 17.6187 11.5064 18.2527 11.0509C19.7084 9.96144 20.7703 8.73274 22.4246 7.93472ZM13.1453 20.3205C12.6771 19.9227 12.3094 20.2702 12.1116 20.8519C11.843 21.6416 11.5478 22.3841 11.3546 23.1741C11.2418 23.6356 11.3206 24.3638 11.7664 24.1994C12.2236 24.01 12.7741 23.9244 13.1785 23.633C13.8433 23.2833 14.5228 23.0793 15.1931 22.7296C15.3925 22.6247 15.2884 22.3733 15.1314 22.2117C14.495 21.5568 13.7669 21.0003 13.1453 20.3205ZM24.0603 10.4992C23.8398 10.3425 23.6411 9.9926 23.3259 10.1183C22.3403 10.5793 21.5309 11.3912 20.7293 12.0744C19.485 12.9944 18.3501 14.0677 17.2498 15.1535C16.869 15.4468 16.5005 15.7132 16.1853 16.0812C15.7066 16.5912 15.1701 17.0845 14.6772 17.6031C14.2939 18.0065 14.2088 18.4769 14.5554 18.9123C15.2059 19.6542 16.004 20.1978 16.6634 20.9088C16.9236 21.1894 17.1995 21.4652 17.4812 21.2062C18.0587 20.5158 18.7661 19.9348 19.3582 19.2589C20.0468 18.4883 20.9043 17.8466 21.491 17.0177C22.0831 16.2726 22.829 15.6986 23.3865 14.9152C24.1061 14.1173 24.8543 13.3298 25.5193 12.4845C25.5283 12.4702 25.5366 12.456 25.5441 12.4418C25.9492 11.6813 24.7767 10.9781 24.0603 10.4992Z" fill="#A7A9AB"/>
</svg>
