<svg width="35" height="35" viewBox="0 0 35 35" fill="none" xmlns="http://www.w3.org/2000/svg">
<path fill-rule="evenodd" clip-rule="evenodd" d="M8.97559 8.9728C13.5268 8.29587 18.2924 8.49852 22.8818 8.55972C24.4459 8.66297 26.7749 8.86143 27.7656 10.257C28.5573 11.2246 28.3932 12.5867 28.4238 13.757C28.3665 16.9199 28.73 20.1864 28.3438 23.3263C28.1753 24.8521 27.0432 26.2823 25.4219 26.3322C21.7313 26.5731 17.9982 26.5772 14.3076 26.3439C12.2156 26.2215 9.40424 26.6228 7.57227 25.464C6.61995 24.6647 6.48226 22.9433 6.47461 21.7921C6.52815 18.4572 6.467 14.9269 6.93359 11.6378C7.15543 10.5709 7.70615 9.08011 8.97559 8.9728ZM12.7773 10.8732C12.3706 10.8745 11.9471 10.8704 11.5201 10.8788C10.0241 10.9083 8.91399 12.0974 8.74425 13.5841C8.58222 15.0033 8.51942 16.4469 8.51917 17.886C8.51889 19.4969 10.2294 20.0109 11.6675 19.2851C12.1161 19.0587 12.6198 19.1484 13.0167 19.4564C13.1129 19.5311 13.2075 19.6087 13.3008 19.6888C14.4451 20.6714 16.0734 20.8428 17.2043 19.8448C17.9751 19.1645 18.7398 18.478 19.5078 17.796C20.2039 17.165 21.107 17.0541 21.8643 17.6584C23.6727 19.0474 26.3897 17.9637 26.4527 15.6841C26.4776 14.7835 26.4809 13.8816 26.4385 12.9767C26.2975 11.7963 25.3738 11.0769 24.1895 10.9736C23.6963 10.9306 23.2 10.9194 22.7324 10.9005C19.4128 10.9082 16.0931 10.9229 12.7773 10.8732ZM13.7002 13.5548C15.3065 13.0578 17.0271 14.331 16.6523 16.0558C16.2048 17.9451 13.2146 17.9793 12.3809 16.4074C11.9067 15.2983 12.5146 13.8876 13.7002 13.5548Z" fill="#A7A9AB"/>
</svg>
