<svg width="35" height="35" viewBox="0 0 35 35" fill="none" xmlns="http://www.w3.org/2000/svg">
<path d="M10.5625 12.391C12.3404 12.1539 14.775 13.3802 13.606 14.7405C13.5038 14.8595 13.381 14.9615 13.2382 15.0394C13.18 15.0681 13.1201 15.0928 13.0588 15.1144C11.8913 15.5248 10.6305 15.8629 10.5381 17.097C10.463 19.0362 10.5286 20.9704 10.5117 22.9095C10.4989 23.1195 10.5126 23.3262 10.5497 23.5269C10.8108 24.9395 12.4028 25.3822 13.831 25.5365C16.2908 25.7859 18.8793 25.5393 21.3584 25.5853C21.9781 25.5297 22.8228 25.5385 23.3359 25.1439C24.2847 24.3184 24.4225 22.876 24.4492 21.6996C24.4419 20.1696 24.491 18.6344 24.416 17.1068C24.4056 16.8953 24.3798 16.6764 24.324 16.4701C24.1252 15.7346 23.2615 15.5314 22.5027 15.4634C21.5684 15.3796 20.6555 14.7684 20.6927 13.831C20.6988 13.6754 20.723 13.5211 20.7655 13.3744C20.9996 12.5664 21.984 12.344 22.8249 12.3649C23.7913 12.3889 24.7594 12.6293 25.6045 13.0804C26.6189 13.6881 27.2632 14.9594 27.3213 16.1215C27.4229 18.7821 27.4903 21.4286 27.2724 24.0844C27.1803 25.084 26.6915 25.9239 26.1445 26.7396C25.5853 27.5578 24.762 28.2259 23.7695 28.3978C21.8884 28.7319 19.8686 28.5218 17.956 28.5775C16.1768 28.6404 14.4072 28.4493 12.6279 28.4711C11.8 28.4614 11.0036 28.3691 10.2822 27.931C9.35737 27.3476 8.44946 26.8726 8.13473 25.7396C7.65783 23.7278 7.54819 21.5825 7.59176 19.5199C7.60626 18.0069 7.4906 16.254 7.93844 14.7943C8.37909 13.6953 9.30378 12.5315 10.5625 12.391ZM16.1259 8.26404C16.1468 8.03551 16.2194 7.85764 16.3281 7.72201C17.0219 6.8561 18.5672 7.76979 18.581 8.87927C18.7202 11.6268 18.666 14.3834 18.6769 17.1372C18.6806 18.0734 19.6605 18.4933 20.4091 17.931C21.0725 17.4519 22.1761 17.9463 22.0986 18.8177C22.0863 19.4253 21.4937 19.9121 21.1015 20.3187C20.2688 21.0958 19.4748 21.9284 18.5888 22.6449C18.4191 22.7878 18.2272 22.8981 18.0226 22.979C17.0646 23.3575 16.044 22.8552 15.2763 22.1683C14.6346 21.5799 13.9756 20.9325 13.4108 20.2293C12.8075 19.4784 12.2699 18.2732 13.1074 17.7975C13.3666 17.6502 13.6859 17.605 13.9991 17.7197C14.0739 17.7471 14.1425 17.7894 14.2052 17.8385C15.1101 18.5457 16.0733 18.2272 16.0813 17.0788C16.1019 14.1397 15.9986 11.1924 16.1259 8.26404Z" fill="#A7A9AB"/>
</svg>
