<svg width="35" height="35" viewBox="0 0 35 35" fill="none" xmlns="http://www.w3.org/2000/svg">
<path d="M16.3095 9.54931C17.0204 9.43134 17.8028 9.55127 18.5155 9.63622C19.0217 9.68452 19.4881 9.91265 19.87 10.2427C20.2348 10.587 20.4389 11.0943 20.4452 11.5933C20.4595 12.1755 20.4288 12.7562 20.4628 13.3384C21.7229 13.3536 23.0558 13.1789 24.3007 13.3354C24.7834 13.3944 25.3134 13.3265 25.7782 13.4604C26.1556 13.6098 26.5044 13.9601 26.5751 14.3706C26.6635 14.8544 26.6413 15.4026 26.2577 15.7602C26.002 16.031 25.6818 16.1512 25.3143 16.1763C23.6734 16.2862 22.019 16.1881 20.3807 16.3374C20.3673 17.0734 20.3382 17.8103 20.3319 18.5464C20.89 18.5616 21.4466 18.5598 22.0038 18.5464C22.9893 18.524 23.9215 18.6094 24.9052 18.52C25.1752 18.503 25.5019 18.4751 25.7567 18.5815C26.0445 18.7095 26.2699 18.9882 26.4022 19.2681C26.6586 19.8976 26.4361 20.6311 25.8925 21.0308C25.4847 21.3741 24.8325 21.3258 24.329 21.3589C22.9992 21.4251 21.713 21.1971 20.3886 21.1479C20.3457 21.7488 20.3718 22.3509 20.3485 22.9536C20.3307 23.4471 20.4069 23.9915 20.1835 24.4448C20.035 24.7712 19.6558 24.9698 19.3544 25.1352C18.9484 25.3677 18.3958 25.2901 17.9335 25.3384C17.1976 25.4054 16.4758 25.3071 15.7479 25.1802C15.1559 25.0693 14.6439 24.7912 14.1493 24.4585C13.6709 24.1429 13.2893 23.6769 13.0175 23.1763C12.7742 22.7256 12.7861 22.196 12.5643 21.7524C12.4463 21.5888 12.177 21.5381 11.9891 21.522C11.2273 21.4719 10.4448 21.5708 9.68738 21.4751C9.18386 21.3883 8.68036 21.1229 8.56141 20.5854C8.40507 19.7547 8.60209 18.7748 8.55653 17.9477C8.5297 17.379 8.57248 16.8145 8.57606 16.2466C8.5841 15.7727 8.54876 15.2881 8.60145 14.8169C8.63007 14.5432 8.74414 14.2899 8.95789 14.1128C9.25838 13.8615 9.63918 13.7848 10.0175 13.7329C10.588 13.6622 11.1456 13.529 11.7216 13.4888C11.9209 13.4504 12.1454 13.4956 12.2518 13.2856C12.4807 12.8726 12.4659 12.3635 12.6884 11.937C12.8931 11.5454 13.1097 11.1621 13.3055 10.7651C13.6024 10.1732 14.1857 9.83073 14.8134 9.6831C15.316 9.55341 15.8033 9.62175 16.3095 9.54931ZM17.5936 11.186C17.2468 11.1619 16.8964 11.2307 16.5477 11.229C16.0622 11.2272 15.5655 11.3766 15.1542 11.6313C14.9395 11.8666 14.8534 12.238 14.6942 12.5171C14.3857 13.0662 14.482 13.6779 14.1708 14.227C13.8819 14.744 13.52 15.3112 12.91 15.4722C12.2008 15.6627 11.4557 15.6037 10.7411 15.8022C10.725 16.5454 10.6721 17.2943 10.7079 18.0356C10.7302 18.4791 10.693 18.9171 10.6581 19.3579C11.4612 19.3955 12.2979 19.2702 13.0429 19.5698C13.5176 19.7585 14.0194 20.0141 14.3153 20.4477C14.653 20.926 14.7371 21.4828 14.8934 22.0308C15.0079 22.5386 15.5605 22.8726 16.0175 23.0327C16.7991 23.2384 17.5975 23.2531 18.3944 23.1333C18.4239 22.653 18.4714 22.1819 18.4159 21.7016C18.3587 21.1357 18.4345 20.576 18.3934 20.0083C18.3344 19.1345 18.3307 18.255 18.37 17.3804C18.4067 16.4378 18.3576 15.4908 18.3925 14.5474C18.4112 13.6137 18.5305 12.6351 18.4179 11.7095C18.2631 11.5038 17.8458 11.2361 17.5936 11.186Z" fill="#ADACAB"/>
</svg>
