<svg width="26" height="23" viewBox="0 0 26 23" fill="none" xmlns="http://www.w3.org/2000/svg">
<path d="M11.5937 0.0993295C13.9934 0.139523 16.4374 -0.145961 18.8291 0.103236C19.8701 0.300172 20.6135 0.898963 21.4013 1.56613C21.94 2.24942 22.2502 3.10138 22.6923 3.86105C23.6972 7.11664 25.3249 9.90614 25.1923 13.3747C25.1602 15.2477 25.3926 18.7549 24.3154 20.3747C23.4311 21.5524 22.1894 21.8021 20.8388 22.0915C15.4647 22.1036 10.1348 22.1271 4.76071 22.0788C4.07336 22.0386 3.48603 21.6778 2.8027 21.5612C1.25923 20.9503 0.544356 19.5868 0.0780903 18.0876C-0.0986939 16.6084 0.0933847 14.05 0.000941824 12.571C0.0531838 11.8435 -0.00651034 11.1842 0.431606 10.5612C0.821488 9.23089 1.24735 7.72744 1.82614 6.46945C2.38883 4.93414 2.80756 3.2345 3.71188 1.86398C4.36707 0.855112 5.56459 0.143614 6.77047 0.131556C8.38224 0.143607 9.98195 0.0631626 11.5937 0.0993295ZM18.4931 3.0671C15.0322 2.7029 11.374 3.00648 7.87887 2.90792C6.60898 2.93827 6.13616 4.35674 5.73434 5.33468C5.33592 6.51777 3.18273 10.233 3.83102 11.2624C4.16772 11.7968 6.91951 10.902 8.0986 12.323C8.63689 13.4412 8.63369 14.9463 10.1386 15.1472C11.1781 15.2003 15.547 15.6256 16.0908 14.5886C16.6094 13.5995 16.3944 12.7007 17.2851 11.9919C18.6688 10.7493 21.3319 11.6429 21.7441 11.0407C21.8578 10.749 21.8234 10.4304 21.6455 10.0857C21.0389 8.59221 19.7785 3.20241 18.4931 3.0671Z" fill="#A7A9AB"/>
</svg>
