<svg width="35" height="35" viewBox="0 0 35 35" fill="none" xmlns="http://www.w3.org/2000/svg">
<path d="M23.0283 6.80664C24.5039 6.74649 26.0307 7.11664 27.166 7.90723L27.1777 7.91504C27.6613 8.24384 27.9098 8.46547 28.0391 8.6875L28.0879 8.7832C28.6805 10.2476 29.0954 10.8422 29.041 11.8457L29.0381 11.8975L29.04 11.9492C29.0888 13.8493 29.0636 16.0271 29.1377 18.0059L29.1387 18.0381L29.1416 18.0703C29.2341 19.1363 29.1875 20.1495 29.1934 21.3691C29.1843 22.6798 29.19 23.8083 29.0176 24.9688C28.9142 25.5726 28.6135 26.1396 28.1318 26.7676L28.0986 26.8115L28.0693 26.8574C27.7794 27.3094 27.3702 27.6665 26.7783 28.1533C26.4295 28.3842 25.985 28.566 25.4346 28.7568C25.1981 28.8358 24.9474 28.8669 24.6123 28.875C24.4382 28.8792 24.2647 28.8773 24.0488 28.876C23.8424 28.8748 23.6064 28.875 23.3574 28.8867H23.3408C22.4672 28.939 21.7111 28.9981 20.9434 28.9766H20.8984C18.1395 28.9928 15.4008 28.9828 12.6279 28.9902H12.623C11.8529 28.9956 11.0492 28.925 10.2461 28.8154C9.87428 28.7598 9.63963 28.6059 9.17578 28.2734L8.61914 27.877C8.29644 27.651 8.03852 27.3137 7.70801 26.7744C7.36257 26.1578 7.15888 25.7126 7.09473 25.2344C7.05208 24.9066 7.03025 24.5661 7.00879 24.1816C6.98911 23.8291 6.96732 23.4298 6.92676 23.0283H6.92773C6.87989 22.2065 6.89175 21.3755 6.90039 20.4805C6.90884 19.6051 6.9128 18.6731 6.83789 17.7344H6.83887C6.78477 17.0133 6.78655 16.2948 6.85059 15.585L6.85156 15.5713C6.88946 15.0943 6.8944 14.6215 6.90137 14.209C6.90852 13.7853 6.91778 13.4125 6.9541 13.0498C7.02376 12.4258 7.02295 11.6772 7.0459 11.2725C7.07332 10.7894 7.13431 10.4073 7.29297 10.0283L7.30469 9.99902L7.31543 9.96973C7.88547 8.39791 9.40293 7.22594 11.1113 6.98242C11.5296 6.93443 11.9457 6.94072 12.5029 6.93262L12.502 6.93164C14.3519 6.93173 16.2522 6.94601 18.1406 6.88477L18.1748 6.88379L18.209 6.88086C19.7809 6.74711 21.2329 6.84206 23.001 6.80664H23.0283Z" stroke="#A7A9AB" stroke-width="2.6"/>
<path d="M16.4434 13.751C16.6872 13.7452 16.9235 13.7717 17.2871 13.8076C17.6201 13.8405 18.0553 13.88 18.5264 13.835L18.5312 13.834C18.9774 13.7894 19.2105 13.8073 19.3965 13.8789C20.8691 14.5146 22.1005 15.7302 22.4688 17.2764L22.4717 17.2871C22.6622 18.0582 22.5005 18.7019 22.3203 19.916L22.3164 19.9414C22.2194 20.7011 21.8005 21.45 21.2324 21.9736C20.4292 22.5548 19.5963 23.0181 18.8066 23.2158C18.0654 23.2972 17.3561 23.2305 16.7168 22.9863L16.709 22.9834L16.0381 22.7314C15.3938 22.4845 14.8255 22.2423 14.3232 21.917L14.2939 21.8994L14.1602 21.8105C13.4997 21.3421 12.9812 20.4723 12.8369 19.5029L12.835 19.4922C12.7105 18.7043 12.7217 17.826 12.875 17.0654L12.8779 17.0508L12.8799 17.0371C12.9856 16.4424 13.342 15.8073 13.8154 15.1152L13.8174 15.1113C14.0733 14.7346 14.4269 14.4265 14.9121 14.0859L15.0176 14.0117L15.1064 13.917C15.1481 13.8725 15.1838 13.8294 15.2119 13.7959C15.5886 13.7694 15.9752 13.765 16.4424 13.75L16.4434 13.751Z" fill="#A7A9AB" stroke="#A7A9AB" stroke-width="2.5"/>
<path d="M15.8708 15.0456C16.1767 15.0117 16.4869 15.0109 16.795 15.0006C17.1811 14.9912 17.5431 15.0906 17.9292 15.0527C18.2146 15.0235 18.4907 15.018 18.7633 15.1301C19.757 15.5667 20.657 16.4343 20.9317 17.6176C21.0829 18.2452 20.9487 18.8105 20.8586 19.4333C20.7784 20.0775 20.4384 20.6791 19.9912 21.0896C19.4802 21.4732 18.8903 21.8253 18.2841 21.9706C17.756 22.0369 17.218 21.9959 16.714 21.7985C16.2094 21.6051 15.6792 21.4109 15.2192 21.1054C14.5967 20.7162 14.1701 19.9702 14.0573 19.1926C13.9742 18.6534 13.9799 18.0534 14.0849 17.5189C14.1737 17.0074 14.4547 16.5266 14.7301 16.1137C14.9466 15.7869 15.2284 15.5469 15.5322 15.3283C15.6266 15.2248 15.726 15.048 15.8708 15.0456Z" fill="white"/>
<path d="M23.8011 9.58322C24.3299 9.34924 24.8924 9.64454 25.2654 10.0237C25.8042 10.563 25.9202 11.4051 25.6832 12.1108C25.3988 12.7515 24.7128 13.2307 23.9931 13.1118C23.3321 13.078 22.7696 12.5988 22.5538 11.9844C22.4153 11.4514 22.5488 10.872 22.9005 10.4479C23.1537 10.1375 23.4381 9.76466 23.8011 9.58322Z" fill="#A7A9AB"/>
</svg>
