<svg width="35" height="35" viewBox="0 0 35 35" fill="none" xmlns="http://www.w3.org/2000/svg">
<path fill-rule="evenodd" clip-rule="evenodd" d="M15.4561 5.50776L15.4561 5.50777C15.6546 5.62831 15.8825 5.68316 16.1139 5.66393C16.1157 5.66378 16.1175 5.66363 16.1194 5.66348C16.3072 5.64786 16.4977 5.63204 16.6614 5.68943C17.2754 5.97053 17.6861 6.43008 18.0998 6.94644C18.4437 7.33022 18.6829 7.79674 18.7696 8.30711C18.8265 8.658 18.652 9.04079 18.4267 9.30395C18.2724 9.48639 18.0097 9.51637 17.7659 9.54419C17.6438 9.55813 17.5618 9.67069 17.5866 9.79103C17.6383 10.0415 17.7106 10.2826 17.7997 10.5261C17.8079 10.5545 17.8177 10.5851 17.828 10.6171L17.828 10.6172C17.9341 10.9485 17.7191 11.3219 17.3826 11.2334C17.3047 11.2129 17.226 11.1829 17.1484 11.1534C17.0162 11.1031 16.8743 11.1666 16.8141 11.2946C16.8088 11.3057 16.8036 11.3168 16.7983 11.328C16.6661 11.6088 16.5356 11.8858 16.3662 12.1479C16.3146 12.2278 16.2209 12.2687 16.1262 12.2592C15.8899 12.2355 15.6392 12.2103 15.4333 12.1041C15.2192 11.9935 15.0224 11.8391 14.8298 11.688L14.8297 11.688C14.7458 11.6222 14.623 11.6423 14.5591 11.7277C14.5536 11.7351 14.548 11.7425 14.5424 11.75C14.4142 11.9212 14.2766 12.1049 14.2511 12.3004C14.2364 12.4585 14.354 12.5172 14.4739 12.5771C14.5594 12.6197 14.6437 12.6657 14.7261 12.714C15.1616 12.9695 15.4456 13.425 15.7212 13.8672C15.8306 14.0426 15.9386 14.216 16.0543 14.3738C16.2417 14.6474 16.5009 14.9086 16.7653 15.175C17.1223 15.5348 17.4887 15.9041 17.7001 16.3257C17.8058 16.5425 17.703 16.7895 17.6096 17.014C17.576 17.0947 17.6423 17.1766 17.7275 17.1571C18.1223 17.0667 18.4705 16.8785 18.8285 16.6835C19.4181 16.3336 20.017 15.9633 20.5309 15.505C20.6049 15.439 20.61 15.3275 20.5408 15.2564C20.3863 15.0976 20.2196 14.9263 20.2798 14.6948C20.4362 14.2822 20.7814 13.9149 21.0934 13.5831L21.0934 13.583C21.1455 13.5277 21.1966 13.4733 21.2457 13.4199C21.4827 13.1567 21.7275 12.9008 21.9722 12.6448L21.9722 12.6448C22.166 12.4421 22.3597 12.2394 22.5496 12.0333C22.5901 11.9961 22.632 11.9521 22.6757 11.9063C22.9261 11.6437 23.2897 11.5714 23.6527 11.572C23.7545 11.5722 23.8563 11.5733 23.9582 11.5745H23.9582C24.2256 11.5776 24.4932 11.5807 24.7605 11.5653C24.8292 11.5614 24.8953 11.5943 24.935 11.6504C25.0219 11.7735 25.1154 11.9057 25.0646 12.0582C24.9816 12.2592 24.8243 12.4332 24.6704 12.6035L24.6704 12.6035C24.5968 12.6849 24.524 12.7655 24.4605 12.8477C24.2393 13.1285 24.0163 13.4079 23.7932 13.6874L23.793 13.6877C23.5345 14.0116 23.276 14.3355 23.02 14.6618C22.8881 14.83 22.7924 15.0236 22.7322 15.2287L22.7322 15.2288L22.7322 15.2288C22.6874 15.3815 22.6426 15.534 22.6064 15.6897C22.5979 15.7201 22.5904 15.7507 22.5829 15.7812L22.5829 15.7812C22.548 15.9225 22.5141 16.0604 22.3911 16.1572C22.1758 16.3211 21.9195 16.4488 21.6622 16.577C21.3406 16.7373 21.0173 16.8984 20.7703 17.1321C20.5587 17.331 20.3533 17.5354 20.1477 17.7401L20.1477 17.7401C20.0279 17.8593 20.0079 18.0461 20.0967 18.1899C20.1958 18.3503 20.2922 18.5121 20.3886 18.6739C20.5907 19.0132 20.7926 19.3522 21.0185 19.677C21.1987 19.9366 21.353 20.2109 21.5072 20.485C21.5072 20.485 21.5072 20.485 21.5072 20.485C21.5072 20.485 21.5072 20.485 21.5072 20.485C21.6378 20.7171 21.7683 20.9492 21.9146 21.1723C21.9772 21.272 22.051 21.3703 22.1254 21.4696L22.1255 21.4696C22.273 21.6662 22.4232 21.8665 22.4948 22.0884C22.5429 22.2392 22.443 22.3455 22.345 22.4498C22.277 22.5223 22.2692 22.628 22.3189 22.7141C22.4706 22.9767 22.6454 23.2221 22.8206 23.4682L22.8207 23.4682C22.9017 23.582 22.9829 23.696 23.0619 23.8119C23.4029 24.3272 23.8026 24.7948 24.304 25.1596C24.8915 25.5368 25.5021 25.7081 26.1235 25.8824L26.1236 25.8824C26.4152 25.9642 26.7092 26.0467 27.0044 26.1515C27.325 26.2574 27.3823 26.4778 27.4551 26.7579C27.4682 26.8081 27.5152 26.8416 27.567 26.8385C27.6976 26.8305 27.8269 26.8247 27.9555 26.819L27.9556 26.819H27.9557C28.4054 26.7989 28.8455 26.7792 29.2971 26.6678C29.8304 26.5392 30.3248 26.4256 30.871 26.5771C31.1342 26.6578 31.3994 26.7665 31.4801 27.0576C31.5489 27.3516 31.4263 27.7025 31.3126 27.9747C31.0614 28.5598 30.4903 28.9127 29.954 29.2068C29.4128 29.4909 28.8746 29.5547 28.3032 29.6226H28.3032C27.8337 29.6783 27.3619 29.7201 26.8891 29.7201C22.8925 29.72 18.5988 29.7177 14.7405 29.6763C14.1819 29.682 13.6253 29.6638 13.0685 29.6456H13.0684L13.0683 29.6456C12.7607 29.6355 12.453 29.6255 12.1448 29.6194C10.9326 29.5796 9.73945 29.3413 8.61404 28.8858C8.17843 28.6435 7.75279 28.3515 7.34609 28.0634C6.82819 27.6745 6.70285 26.9469 6.59639 26.329L6.59639 26.3289C6.58605 26.2689 6.5759 26.21 6.56558 26.1524C6.55909 26.0875 6.54817 26.02 6.53709 25.9513C6.49201 25.6722 6.44417 25.376 6.68021 25.1736C7.03109 24.8277 7.42484 24.4917 7.86344 24.2625C8.21239 24.098 8.56381 23.9469 8.9283 23.8377C9.30855 23.7238 9.56305 23.3147 9.4311 22.9403L9.43108 22.9402C9.40063 22.8539 9.32035 22.7955 9.22891 22.7992C9.21044 22.8 9.19152 22.8008 9.17223 22.8017C8.86952 22.8151 8.47718 22.8326 8.36683 22.5579C8.19576 22.0582 8.16893 21.4869 8.14277 20.9299C8.13052 20.669 8.11842 20.4112 8.09171 20.1655C8.05682 19.2504 8.05483 18.3123 8.19239 17.4052C8.23507 17.207 8.27335 17.0033 8.31198 16.7977C8.43575 16.1391 8.56312 15.4614 8.85029 14.8832C8.93869 14.696 9.00748 14.5116 9.07521 14.33L9.07521 14.33C9.18161 14.0448 9.28536 13.7667 9.45835 13.4956C9.90442 12.8072 10.4357 12.1649 11.0359 11.6019C11.3208 11.3347 11.669 11.1344 12.048 11.2286C12.4177 11.3205 12.9333 11.1181 12.8189 10.7547C12.8097 10.7255 12.7953 10.6975 12.7748 10.6716C12.7147 10.5739 12.6485 10.4856 12.583 10.3982C12.4646 10.2404 12.3485 10.0856 12.2754 9.88411C11.9773 9.04178 12.089 8.18749 12.2774 7.3342C12.5933 6.41072 13.2982 5.55028 14.2489 5.32926C14.5302 5.26386 14.8263 5.25901 15.1293 5.33455C15.2435 5.37861 15.3498 5.4432 15.4561 5.50776ZM14.5496 18.0923C14.6324 17.7317 15.0285 17.5623 15.3162 17.7948C15.4483 17.9016 15.573 18.0192 15.6984 18.1374L15.6985 18.1375C15.8124 18.2449 15.793 18.4344 15.6593 18.5159C15.6133 18.5439 15.5674 18.5721 15.5215 18.6001L15.5215 18.6002C15.4796 18.6259 15.4377 18.6515 15.3958 18.6771C14.9546 18.9462 14.434 18.596 14.5496 18.0923ZM18.3711 22.1085C18.3199 22.0443 18.277 21.9906 18.1724 22.0129C17.9968 22.0596 17.8355 22.1896 17.6904 22.3065C17.6683 22.3244 17.6465 22.3419 17.6251 22.3588C17.3424 22.5964 17.0408 22.8047 16.7391 23.013C16.4357 23.2226 16.1322 23.4322 15.8478 23.6716C15.5598 23.9169 15.682 24.414 16.0513 24.4959C16.0869 24.5038 16.1225 24.5118 16.158 24.5197C16.5806 24.6138 17.003 24.7078 17.4338 24.7642C18.2511 24.8868 19.0596 25.0901 19.853 25.3224C20.1215 25.402 20.3927 25.4698 20.6638 25.5376C20.8933 25.595 21.1228 25.6524 21.3505 25.7169C21.4687 25.7504 21.5921 25.6804 21.6209 25.561C21.655 25.4197 21.6359 25.2703 21.562 25.1451C21.2795 24.6664 20.9462 24.2061 20.6213 23.7574C20.5913 23.7159 20.5434 23.6891 20.4929 23.6973C20.4004 23.7125 20.3099 23.7544 20.2209 23.7956C20.0373 23.8806 19.8606 23.9624 19.6876 23.7992C19.3476 23.5206 19.083 23.1252 18.824 22.7383C18.6912 22.5398 18.5599 22.3435 18.4206 22.1664C18.4022 22.1473 18.3863 22.1274 18.3711 22.1085Z" fill="#A7A9AB"/>
</svg>
