<svg width="24" height="24" viewBox="0 0 24 24" fill="none" xmlns="http://www.w3.org/2000/svg">
<path d="M8.3263 1.29572C9.78915 0.387786 11.5138 -0.318437 13.1712 0.147836C13.3727 0.20451 13.5639 0.281757 13.7394 0.385569C15.4893 1.39706 16.7142 2.75595 18.2159 4.05842C19.016 4.73158 19.7984 5.42279 20.5216 6.17658C21.3535 6.99501 22.1482 7.73802 22.6749 8.79475C23.4339 10.4338 23.4305 12.0808 23.3859 13.8426C23.4323 14.7206 23.4894 15.5917 23.4591 16.4715C23.4145 18.1106 23.552 19.7184 23.1681 21.3084C22.9502 22.0359 22.514 22.7375 21.9122 23.2196C21.1033 23.8294 19.8444 23.7767 18.8712 23.8748C17.4141 23.9151 15.9552 23.931 14.4982 23.9871C12.3518 23.9608 10.2106 24.0764 8.07142 23.9344C6.3464 23.8748 4.6495 23.8974 2.94056 23.5906C2.1067 23.3978 1.29042 22.9213 0.772589 22.243C0.156536 21.363 0.0981755 20.1304 0.060675 19.1014C-0.00896809 16.5876 -0.0132924 14.0754 0.0206359 11.5633C0.0634905 10.2819 0.269549 8.86928 0.996222 7.77717C1.71587 6.59563 2.77844 5.81466 3.84095 4.95393C5.31582 3.71465 6.79429 2.46839 8.3263 1.29572ZM17.9269 12.6375C17.6511 11.4951 16.3122 10.0711 14.8986 10.4725C11.962 11.5785 12.0879 15.7985 13.1222 18.0106C13.9383 19.9461 17.0824 19.7063 17.8927 17.9012C18.4328 16.258 18.3061 14.3069 17.9269 12.6375Z" fill="#A7A9AB"/>
</svg>
