<svg width="35" height="35" viewBox="0 0 35 35" fill="none" xmlns="http://www.w3.org/2000/svg">
<path d="M9.41211 15.174C9.89175 14.5317 10.7778 14.2052 11.5557 14.3918C12.306 14.6095 12.5736 15.619 12.1514 16.2375C11.766 16.8248 11.2647 17.3575 10.8232 17.9005C10.4559 18.3503 10.3881 18.8859 10.3213 19.4445C10.2437 20.5162 10.2794 21.6117 10.7852 22.5841C11.0214 22.9514 11.4445 23.2189 11.7666 23.5168C12.1591 23.8613 12.5557 24.2447 13.0723 24.3859C13.5863 24.5318 14.1003 24.7604 14.625 24.7677C15.1129 24.7773 15.606 24.7989 16.0928 24.7619C16.8718 24.7188 17.6258 24.2517 18.1865 23.7326C18.7103 23.1452 19.2884 22.3862 20.1211 22.2462C21.048 22.1221 21.8431 22.9535 21.6797 23.8781C21.6044 24.4172 21.235 24.6352 20.9082 25.0119C20.3772 25.7359 19.6704 26.3147 18.8768 26.7461C17.0876 27.7186 14.93 27.9654 12.9512 27.4845C12.4504 27.3733 12.1202 27.0751 11.6611 26.8527C10.9596 26.507 10.3653 26.0197 9.78906 25.4982C9.19976 25.0365 8.60859 24.4629 8.25781 23.7931C7.53721 22.3098 7.4086 20.7125 7.55176 19.088C7.75219 18.0031 8.17699 16.9942 8.73535 16.048C8.94767 15.7467 9.18669 15.4646 9.41211 15.174ZM17.515 14.9824C18.3858 14.1437 19.4472 12.9059 20.5518 13.3976C20.9263 13.5794 21.2663 13.8785 21.5478 14.1847C21.7888 14.4634 21.7412 14.784 21.6387 15.1105C21.3786 15.8581 20.8842 16.4766 20.3223 17.0197C19.1793 18.2207 18.097 19.5015 16.8682 20.6164C16.6284 20.8448 16.4224 21.1606 16.123 21.297C15.9996 21.3564 15.8756 21.42 15.75 21.48C15.4165 21.6394 15.0454 21.7184 14.6865 21.6299C14.1816 21.5053 13.7421 21.1514 13.5179 20.6821C13.4393 20.5177 13.3857 20.3446 13.374 20.1691C13.2741 19.5402 13.7105 18.8935 14.1445 18.4796C15.0858 17.683 15.8077 16.7481 16.6631 15.8605C16.9347 15.5545 17.2215 15.265 17.515 14.9824ZM18.751 7.42398C19.407 7.19693 20.1621 7.27731 20.8359 7.37418C21.3656 7.45192 21.8811 7.32965 22.3643 7.4982C23.0694 7.71711 23.7245 8.12681 24.3545 8.50601C25.0774 8.96176 25.388 9.63825 25.9893 10.216C26.5488 10.7698 26.9342 11.5123 27.1621 12.2599C27.3338 12.8112 27.3494 13.3505 27.4316 13.9162C27.6913 15.3845 27.457 16.9579 26.8029 18.2978C26.7309 18.4452 26.6491 18.5863 26.5547 18.7189C26.1121 19.3493 25.5702 20.0099 24.9141 20.425C24.4333 20.7156 23.7624 20.4623 23.3496 20.1525C22.796 19.7565 22.7137 18.9115 23.1182 18.3839C23.3746 18.0778 23.6935 17.8629 23.9082 17.5138C24.3961 16.6873 24.8205 15.8927 24.7705 14.8976C24.7586 13.8917 24.3271 13.0898 23.8535 12.2345C23.6474 11.8464 23.2945 11.5453 22.9228 11.2783C22.5424 11.0051 22.1333 10.772 21.702 10.5896C21.5859 10.5405 21.4687 10.4938 21.3506 10.4509C20.9219 10.2951 20.4593 10.2785 20.0034 10.294C19.2193 10.3206 18.5145 10.6326 17.8547 11.0571C17.8267 11.0751 17.7983 11.0926 17.7695 11.1095C17.1516 11.4815 16.6631 11.9776 16.168 12.4943C15.6669 13.0158 14.7827 13.0094 14.2637 12.5177C13.7852 12.0919 13.6637 11.3458 13.9941 10.7931C14.9728 9.1378 16.7208 8.09414 18.5466 7.49056C18.6147 7.46803 18.6829 7.44584 18.751 7.42398Z" fill="#ADACAB"/>
</svg>
