<svg width="35" height="35" viewBox="0 0 35 35" fill="none" xmlns="http://www.w3.org/2000/svg">
<path d="M19.3146 5.64015C20.5563 5.58333 21.8089 5.65988 23.0441 5.6587C23.8264 5.74333 24.7095 5.78831 25.4191 6.1421C25.7119 6.29057 26.021 6.4019 26.3156 6.54738C26.5251 6.65273 26.6815 6.80318 26.8644 6.94581C27.0312 7.0771 27.1992 7.19489 27.34 7.35695C27.6134 7.67415 27.8464 8.03415 28.1281 8.34425C28.5057 8.76506 28.8148 9.28947 28.9367 9.84523C29.0296 10.2542 29.1459 10.6411 29.1808 11.063C29.2176 11.5581 29.3353 12.0456 29.3732 12.5396C29.3927 13.0734 29.4222 13.6073 29.4435 14.1411C29.4938 14.5772 29.504 15.0035 29.4963 15.4419C29.5134 16.8155 29.4138 18.1926 29.2795 19.5591C29.2132 20.1101 28.9634 20.5311 28.7492 21.0288C28.4675 21.7461 27.8979 22.3657 27.2853 22.8208C26.958 23.0895 26.5848 23.2898 26.1906 23.4419C25.7396 23.6177 25.318 23.8164 24.8439 23.9282C24.486 24.0199 24.1343 24.0043 23.7746 24.0523C23.5337 24.0872 23.2944 24.1402 23.0558 24.19C23.118 24.6333 23.0345 25.0627 22.9054 25.4859C22.7936 25.835 22.5395 26.0904 22.298 26.3579C21.9151 26.7401 21.3982 26.9619 20.9035 27.1519C20.4691 27.3572 20.0438 27.5722 19.5881 27.729C18.5281 28.1113 17.3703 28.2806 16.3097 28.6528C15.5475 28.9097 14.7511 28.8774 13.9924 29.1148C13.6096 29.1982 13.2173 29.227 12.8351 29.3169C12.1498 29.4595 11.5045 29.337 10.8351 29.186C10.5405 29.1043 10.2689 28.9205 9.98845 28.7944C9.73693 28.6808 9.51034 28.5374 9.3322 28.3237C9.04411 27.9778 8.67268 27.7395 8.40056 27.3628C8.20406 27.0829 8.1455 26.7346 7.96794 26.4321C7.78803 26.1303 7.61063 25.8171 7.50115 25.481C7.40828 25.1958 7.33254 24.9056 7.23552 24.6216C7.12191 24.2932 7.05012 23.9613 6.91228 23.6411C6.7513 23.2795 6.66666 22.8788 6.63884 22.4859C6.60275 22.0718 6.53022 21.6648 6.38298 21.2749C6.17644 20.7174 6.03786 20.1429 5.90056 19.5659C5.80114 19.1167 5.79733 18.6751 5.74822 18.2241C5.71271 17.8755 5.66441 17.5292 5.62712 17.1812C5.58392 16.7491 5.46617 16.3537 5.50701 15.9146C5.55199 15.2984 5.51169 14.7439 5.66912 14.1704C5.74901 13.8692 5.79832 13.5447 5.9699 13.2837C6.11488 13.0665 6.27649 12.835 6.48064 12.6704C6.79137 12.4177 7.11987 12.1897 7.4738 12.0015C7.79162 11.8003 8.10574 11.5974 8.44841 11.44C9.12666 11.1003 9.83339 10.9624 10.5383 10.6919C10.7986 10.5907 11.1523 10.5627 11.3683 10.3853C11.4588 10.2711 11.492 10.1034 11.5275 9.96437C11.6423 9.39455 11.7983 8.83092 11.9699 8.27589C12.0699 7.94504 12.3108 7.726 12.5392 7.48097C12.8771 7.1283 13.2842 6.86648 13.7209 6.65285C13.9706 6.53509 14.2385 6.46677 14.4953 6.36085C14.748 6.25965 15.0051 6.18404 15.2726 6.13136C15.807 6.02955 16.3829 5.82426 16.9474 5.79347C17.3634 5.76388 17.7747 5.7059 18.1877 5.65382C18.5658 5.60708 18.9359 5.65077 19.3146 5.64015ZM10.8693 12.7368C10.7058 12.7188 10.3234 12.8229 10.1662 12.8989C9.74495 13.1031 9.332 13.2292 8.95134 13.4907C8.73125 13.6343 8.55705 13.8207 8.34978 13.981C8.25062 14.0627 8.15236 14.1263 8.10857 14.2544C8.00938 14.5243 7.86218 14.8067 7.83513 15.0933C7.76307 15.9297 7.88351 16.7095 7.99041 17.5337C8.16686 18.4173 8.30852 19.3083 8.49334 20.19C8.57449 20.6028 8.73686 20.9896 8.83025 21.3999C8.98674 22.0851 9.12169 22.8914 9.50994 23.4898C9.68125 23.768 9.74558 24.0607 9.8615 24.3628C10.0817 24.9475 10.2792 25.5044 10.6603 26.0093C10.8407 26.247 10.9617 26.5148 11.2316 26.6616C11.4891 26.8051 11.7639 26.9336 12.051 27.0064C12.364 27.0843 12.6412 27.0026 12.9543 26.9859C13.2723 26.9691 13.5731 26.9916 13.8898 26.9253C14.2961 26.8397 14.671 26.6594 15.0773 26.5698C15.6222 26.4269 16.1771 26.3275 16.7033 26.1382C17.3891 25.9051 18.084 25.7519 18.7853 25.5806C18.9256 25.5407 19.2629 25.1718 19.381 25.0825C19.5073 24.9093 19.4979 24.5533 19.2629 24.4683C18.9949 24.4496 18.7235 24.5046 18.4543 24.4878C17.4974 24.4266 16.4645 24.4028 15.5256 24.1948C14.8493 24.0119 14.1905 23.7787 13.5754 23.44C13.2225 23.2429 12.9412 22.9173 12.6154 22.6636C12.2116 22.3048 11.8063 22.0072 11.5158 21.5718C11.3639 21.3535 11.2757 21.1103 11.1984 20.8579C11.0657 20.4142 10.9208 19.987 10.8693 19.5239C10.8095 19.1569 10.795 18.7848 10.7248 18.4204C10.634 17.9425 10.6609 17.4392 10.6506 16.9478C10.639 16.497 10.6306 16.0463 10.6203 15.5962C10.61 15.0101 10.7314 14.4441 10.714 13.8579C10.7341 13.4215 10.8847 13.1771 10.8693 12.7368ZM24.2004 8.36769C22.8859 8.10022 21.5416 8.03904 20.2052 8.15089C19.8497 8.17987 19.4941 8.17767 19.1379 8.17531C18.5176 8.1688 17.9179 8.27773 17.3 8.28956C16.9864 8.29668 16.693 8.3656 16.3859 8.41945C16.0125 8.49283 15.6602 8.55102 15.3146 8.7173C14.9441 8.89367 14.5822 9.12026 14.2892 9.40968C13.8436 9.92516 13.5964 10.5626 13.5099 11.2349C13.4703 11.6001 13.3118 11.9299 13.2668 12.2944C13.1975 12.8425 13.1615 13.3966 13.1408 13.9487C13.1005 14.408 13.0362 14.8609 13.0451 15.3237C13.0013 16.1523 13.026 16.98 13.0177 17.8091C13.0113 18.1256 13.0522 18.437 13.1066 18.7476C13.1664 19.0813 13.1816 19.4016 13.3312 19.7075C13.5046 20.0531 13.6637 20.4222 13.9406 20.6968C14.2371 20.9874 14.5343 21.2512 14.9533 21.3394C15.731 21.4998 16.4441 21.6911 17.2443 21.6763C18.3859 21.6195 19.533 21.6513 20.6769 21.646C21.1746 21.6691 21.6599 21.5823 22.1564 21.5669C22.5506 21.5391 22.9459 21.5334 23.34 21.5044C23.762 21.4784 24.1547 21.4736 24.5607 21.3345C24.7434 21.2735 24.9056 21.1661 25.0871 21.104C25.4315 21.0247 25.8225 20.9549 26.1349 20.7827C26.4196 20.5418 26.6411 20.2037 26.7316 19.8403C26.8482 19.3859 26.9512 18.9315 26.9435 18.4605C26.94 18.0829 26.94 17.707 26.9797 17.3306C27.0276 16.8862 26.9997 16.4406 27.0304 15.9956C27.0565 15.6968 27.0625 15.3965 27.0412 15.0972C26.9862 14.4811 27.0471 13.8677 26.9572 13.2534C26.9454 12.7362 26.9311 12.2319 26.8176 11.7241C26.6436 11.053 26.6794 10.325 26.2717 9.72902C26.1083 9.49523 25.9924 9.16122 25.7521 9.00734C25.2716 8.71324 24.7513 8.49256 24.2004 8.36769Z" fill="#B0B2B3" fill-opacity="0.5"/>
</svg>
