<svg width="23" height="23" viewBox="0 0 23 23" fill="none" xmlns="http://www.w3.org/2000/svg">
<path fill-rule="evenodd" clip-rule="evenodd" d="M6.23348 13.0342C10.2523 13.0548 14.2732 13.0039 18.2921 13.0732C19.0001 13.0414 19.6067 13.3824 19.8516 14.0439C20.1578 14.8666 19.5665 15.8299 18.6749 15.9219C18.0414 15.9744 17.3961 15.8901 16.7589 15.9014C14.7782 16.0138 12.8069 15.8579 10.8263 15.916C9.03506 15.9722 7.25713 15.8486 5.46785 15.8467C4.93406 15.8354 4.33141 15.8356 3.8282 15.6445C3.09716 15.324 2.75793 14.3004 3.42391 13.7344C4.19513 12.9566 5.21731 13.0773 6.23348 13.0342ZM6.23348 7.05762C10.2523 7.07823 14.2732 7.02734 18.2921 7.09668C18.9999 7.0649 19.6066 7.40609 19.8516 8.06738C20.1578 8.89005 19.5665 9.8533 18.6749 9.94531C18.0414 9.99779 17.3961 9.91356 16.7589 9.9248C14.7782 10.0372 12.8069 9.88233 10.8263 9.94043C9.03507 9.99664 7.25712 9.87297 5.46785 9.87109C4.934 9.85985 4.33145 9.85907 3.8282 9.66797C3.09725 9.34753 2.75827 8.32483 3.42391 7.75879C4.19514 6.98101 5.2173 7.10072 6.23348 7.05762Z" fill="#A7A9AB"/>
</svg>
