<svg width="35" height="35" viewBox="0 0 35 35" fill="none" xmlns="http://www.w3.org/2000/svg">
<path fill-rule="evenodd" clip-rule="evenodd" d="M16.178 15.1325C17.2327 14.6654 18.5022 15.1634 19.0914 16.127C19.6676 17.0238 19.5976 18.2022 18.9238 19.0274C18.2955 19.8282 17.1708 20.1195 16.2593 19.6166C15.4357 19.182 15.0484 18.3096 15.1623 17.3981C15.1734 17.3222 15.184 17.2438 15.1948 17.164C15.2982 16.4006 15.4206 15.4964 16.178 15.1325ZM23.7938 15.0964C24.8007 14.9104 26.0339 15.4047 26.3421 16.4535C26.7861 17.6313 26.26 19.0336 25.1844 19.6669C24.2998 20.2048 23.08 20.0004 22.3931 19.2297C21.7581 18.5344 21.7212 17.4571 21.9458 16.5892C22.1585 15.79 23.018 15.2405 23.7938 15.0964ZM12.2527 15.8431C11.7466 15.3302 10.9833 14.9308 10.2656 15.2473C9.81108 15.4738 9.44736 15.9208 9.1239 16.3183C9.09684 16.3516 9.07006 16.3845 9.04354 16.4169C8.56623 16.9907 8.38512 17.7743 8.573 18.4954C8.86582 19.3264 9.62918 19.9747 10.5263 20.0204C11.5029 20.1812 12.4338 19.5329 12.8198 18.6663C13.1414 17.7117 12.9839 16.5726 12.2527 15.8431Z" fill="#A7A9AB"/>
</svg>
