<svg width="35" height="35" viewBox="0 0 35 35" fill="none" xmlns="http://www.w3.org/2000/svg">
<path d="M18.0927 6.54494C19.0533 6.63921 20.1114 6.52706 21.0867 6.67009C21.4345 6.73998 21.8083 6.86026 21.9497 7.22109C22.0911 7.58842 22.1838 8.01427 22.1984 8.40761C22.1025 9.19916 21.2411 9.59738 20.9729 10.2248C20.8234 10.9091 20.955 11.6925 20.9745 12.3914C20.9973 13.2528 20.9859 14.1143 20.9778 14.9757C21.7758 15.5446 22.4764 16.2273 23.2663 16.8059C23.8514 17.2415 24.3212 17.7762 24.5292 18.4881C24.7096 19.2001 24.7616 20.0404 24.118 20.5394C23.6336 21.0026 23.0144 20.9067 22.3918 20.9376C21.3744 20.9636 20.3406 20.8969 19.3264 20.9928C18.8615 21.0058 18.6876 21.4902 18.6551 21.8835C18.5007 24.0404 18.855 25.9372 18.1529 28.0632C17.9708 28.6516 16.8591 28.6581 16.7697 28.0063C16.4219 27.0018 16.5226 26.0282 16.4983 24.9896C16.4869 24.081 16.6023 23.1448 16.5129 22.2411C16.4284 21.7584 16.1943 21.0741 15.6043 21.0627C14.6681 21.0172 13.7351 20.9945 12.8005 20.9197C12.1992 20.8628 11.3767 20.9831 10.8989 20.554C10.1089 19.9575 10.2016 18.5402 11.0045 17.994C11.4856 17.6495 11.7554 17.1245 12.2317 16.7766C12.9192 16.2549 13.519 15.6372 14.2374 15.1496C14.239 14.3711 14.1984 13.5763 14.2634 12.801C14.3544 11.8908 14.2699 10.9578 14.2292 10.046C14.1545 9.59575 13.5628 9.22679 13.241 8.94398C12.5779 8.46937 12.7957 7.29586 13.4686 6.9334C14.0228 6.6132 14.7754 6.57419 15.4011 6.53843C16.2918 6.52218 17.2069 6.45717 18.0927 6.54494Z" fill="#B0B2B3" fill-opacity="0.5"/>
</svg>
