<svg width="35" height="35" viewBox="0 0 35 35" fill="none" xmlns="http://www.w3.org/2000/svg">
<path d="M11.4622 7.03445C10.64 7.01488 9.69553 7.05158 9.09114 7.69023C8.45005 8.3044 8.38642 9.45934 8.31791 10.2962C8.2445 13.071 8.33748 15.8507 8.27142 18.6255C8.16865 20.4998 8.14418 22.3791 8.18578 24.2558C8.1344 25.7093 9.12539 27.4099 10.4761 27.9678C11.7999 28.0192 13.2705 27.3438 14.4425 26.7639C17.9343 25.2346 21.3282 23.4826 24.815 21.9435C26.1975 21.3146 27.8541 20.5365 28.7056 19.2225C29.6232 17.5464 29.1338 15.3735 27.5654 14.2675C25.4904 12.8899 22.9382 12.0359 20.7213 10.8345C18.4848 9.79947 16.2557 8.73995 13.9948 7.75874C13.175 7.38681 12.3822 7.04914 11.4622 7.03445Z" fill="#AFB4BC"/>
</svg>
