<svg width="35" height="35" viewBox="0 0 35 35" fill="none" xmlns="http://www.w3.org/2000/svg">
<path d="M16.6012 5.41284C17.6121 5.35756 18.7729 5.16555 19.7999 5.39102C21.3912 5.81576 22.5141 6.70743 23.9396 7.46819C24.9971 8.17076 25.9688 9.07407 26.6728 10.1345C27.3012 11.0858 27.4962 12.2786 28.0009 13.3317C28.8518 15.563 28.3442 17.6053 28.4053 19.8978C28.414 20.4883 28.4431 21.0425 28.1798 21.5895C27.3501 23.275 26.9353 24.1178 26.9088 24.1918C26.8076 24.4751 26.8774 24.1831 26.8396 24.4816C26.8297 24.5595 26.8393 23.7522 26.8355 24.0751C26.8272 24.7672 26.8096 25.4587 26.7543 26.1525C26.7572 26.9293 26.6001 27.7424 26.3048 28.4581C26.0472 28.9609 25.5325 29.3454 25.0068 29.5755C24.9566 29.5975 24.9315 29.6085 24.864 29.6301C24.8204 29.644 24.7258 29.6672 24.6807 29.6751C24.6109 29.6872 24.5655 29.6904 24.4748 29.6967C23.8512 29.7399 23.2576 29.734 22.7105 29.357C22.261 29.1214 21.8509 28.8581 21.7185 28.3315C21.6414 27.981 21.4596 27.6828 21.4523 27.3177C21.4014 26.2573 21.3723 25.1736 21.4945 24.1176C21.4945 23.0295 21.5468 21.9502 21.7752 20.8854C21.9992 20.0869 22.6669 19.3436 23.3971 18.9668C23.9106 18.7835 24.5797 18.8635 25.0466 19.1428C25.2971 19.2783 25.4661 19.2184 25.4782 18.9339C25.4993 18.4347 25.4665 17.9162 25.5135 17.4249C25.5484 16.3238 25.6212 15.1339 25.1266 14.1244C24.795 13.3753 24.6219 12.5433 24.2451 11.816C23.6007 10.805 22.5709 9.9861 21.4945 9.48427C20.7948 9.03625 20.0093 8.55478 19.2195 8.28568C18.2638 8.09076 17.1336 8.41222 16.1663 8.4224C15.6019 8.43695 15.1088 8.61151 14.6404 8.91261C13.4316 9.63845 11.9567 10.5156 11.1843 11.7331C10.5617 12.7658 10.0671 13.8146 9.8373 15.0132C9.64134 16.3305 9.27988 17.495 9.36748 18.8307C9.37865 19.001 9.53866 19.1894 9.6482 19.0585C10.23 18.5319 11.0315 18.3151 11.7981 18.4839C12.1101 18.5948 12.3824 18.7691 12.6593 18.9347C12.7294 18.9767 12.554 18.8718 12.5633 18.8771C12.5903 18.8927 12.5609 18.8762 12.5882 18.8912C12.5976 18.8963 12.729 18.966 12.9917 19.1052C13.6673 19.4632 13.911 20.3383 13.9029 21.0614C13.8549 22.711 13.8753 24.3677 13.7851 26.0085C13.6324 27.1068 13.3269 28.3795 12.2854 28.9716C11.5566 29.5054 10.4802 29.181 9.76602 28.781C9.08527 28.4697 8.66489 27.8733 8.45688 27.1693C8.17742 26.3042 8.24848 25.2903 8.26972 24.3266C8.27521 24.0772 8.27796 23.9526 8.23684 23.7802C8.19533 23.6063 8.14999 23.5005 8.05258 23.3505C7.9561 23.202 7.72128 22.9882 7.25165 22.5606C7.04545 22.3728 6.88801 22.1349 6.81464 21.7931C6.22262 18.8723 6.50045 15.7012 7.3703 12.8604C7.67722 11.9687 8.13687 11.1091 8.60961 10.2988C9.43001 8.9097 10.633 7.98748 11.9479 7.10163C12.6665 6.66088 13.4025 6.17359 14.1793 5.84631C14.9779 5.52339 15.7677 5.52048 16.6012 5.41284Z" fill="#A7A9AB"/>
</svg>
