<svg width="35" height="35" viewBox="0 0 35 35" fill="none" xmlns="http://www.w3.org/2000/svg">
<path d="M16.9074 15.8947C17.958 15.4381 19.2403 15.4383 20.2189 16.0802C21.0155 16.5713 21.5246 17.4144 21.674 18.3312C21.8431 19.3592 21.8956 20.39 21.7097 21.4087C21.677 21.5877 21.6607 21.6771 21.6763 21.7393C21.692 21.8013 21.7138 21.8386 21.7605 21.8824C21.8072 21.9263 21.8974 21.9569 22.0778 22.0182C22.541 22.1755 22.9394 22.4206 23.2511 22.8488C23.7421 23.4497 23.6125 24.135 23.5988 24.8527C23.5302 25.924 23.6566 27.0214 23.5158 28.0841C23.2959 29.0624 22.2404 29.8163 21.2414 29.7394C19.2377 29.7428 17.2331 29.7078 15.2277 29.7404C14.3796 29.7969 13.5793 29.3165 13.2961 28.5079C13.0042 27.3833 13.0697 26.3289 13.1281 25.1906C13.1744 24.3991 12.6221 23.771 13.0236 22.9933C13.3474 22.302 13.8928 22.0064 14.5492 21.8249C14.7153 21.779 14.7984 21.756 14.8476 21.7146C14.8945 21.6752 14.9217 21.6344 14.9398 21.5759C14.9589 21.5144 14.9481 21.4312 14.9267 21.2647C14.8234 20.4622 14.8204 19.6441 14.9142 18.8429C15.0619 17.6427 15.7948 16.4235 16.9074 15.8947ZM11.9943 5.78041C13.2778 5.26154 14.7004 5.08827 16.0461 5.37221C16.96 5.61492 17.9164 6.08563 18.6379 6.79701C18.8472 7.0034 19.0373 7.23038 19.2004 7.47768C19.5989 8.0899 19.9696 8.69676 20.2277 9.36439C20.2474 9.41534 20.266 9.46701 20.2843 9.51869C20.4103 9.87338 20.504 10.2463 20.5529 10.6466C20.6318 11.4345 20.6978 12.2919 20.5424 13.0819C20.5136 13.2279 20.4993 13.3009 20.4523 13.3583C20.4121 13.4075 20.3527 13.4444 20.2908 13.4589C20.2186 13.4757 20.131 13.4521 19.9557 13.405C19.0391 13.1587 18.094 13.1576 17.2192 13.3345C17.1033 13.3579 17.0047 13.2388 17.0509 13.13C17.0656 13.0956 17.0806 13.0608 17.0949 13.0265C17.6307 11.9429 17.2974 10.4958 16.5431 9.60365C16.4694 9.51648 16.3911 9.43425 16.3097 9.35854C16.2722 9.32356 16.2336 9.29021 16.1945 9.25795C15.8716 8.96973 15.4958 8.90773 15.1076 8.84389C14.9653 8.82049 14.8215 8.79609 14.6779 8.76088C13.8792 8.56391 12.9709 8.46183 12.2492 8.97572C12.1499 9.0468 12.048 9.11653 11.9455 9.18666C11.6056 9.4192 11.2595 9.65653 10.9797 9.96205C10.5073 10.5403 10.0787 11.1654 9.88102 11.923C9.74897 12.3786 9.88403 12.912 10.0021 13.3761C10.0155 13.4289 10.0296 13.4806 10.0422 13.5314C10.2846 14.4404 10.8322 15.1047 11.4172 15.7726C11.4865 15.8514 11.5609 15.928 11.6349 16.005C11.8822 16.2621 12.1334 16.5235 12.2404 16.8849C12.4078 17.3579 12.3712 17.8818 12.3341 18.4103C12.3119 18.7276 12.2891 19.047 12.3106 19.3579C12.3129 19.391 12.3035 19.4239 12.2834 19.4503C12.0449 19.7633 11.8211 20.0569 11.4699 20.2287C10.7573 20.5878 10.0902 20.6624 9.38785 20.7413C9.02717 20.7819 8.65682 20.8238 8.26645 20.9056C8.1769 20.9244 8.13213 20.9337 8.09096 20.9576C8.05566 20.9781 8.02231 21.0085 7.99863 21.0418C7.97102 21.0805 7.95639 21.1279 7.92714 21.2227C7.66688 22.0659 7.34719 22.9435 6.86442 23.6515C6.53807 24.1199 5.84692 24.3853 5.36539 24.0597C5.23001 23.9906 5.09621 23.9354 4.96598 23.882C4.64642 23.7508 4.34634 23.6272 4.08512 23.3204C3.77718 22.9657 3.37242 22.414 3.54117 21.8927C3.66921 21.25 3.8906 20.6865 4.12028 20.1007C4.18744 19.9294 4.25488 19.7559 4.32145 19.5783C4.55817 18.9735 4.9203 18.261 5.45231 17.9201C6.00854 17.6511 6.61975 17.4898 7.2277 17.4621C7.63439 17.4454 8.02066 17.357 8.41032 17.2677C8.61356 17.2212 8.67554 16.9528 8.51892 16.8152C8.28687 16.6112 8.07236 16.3877 7.89176 16.1173C7.32518 15.2903 7.0642 14.1867 6.92399 13.1779C6.73554 11.8913 6.996 10.5894 7.47867 9.41518C7.85448 8.51118 8.47808 7.83977 9.19059 7.25014C9.99233 6.59799 10.9297 6.21485 11.8576 5.83607C11.9032 5.81747 11.9488 5.79903 11.9943 5.78041ZM20.8009 5.78041C22.0846 5.26147 23.5079 5.08812 24.8537 5.37221C26.0327 5.68537 27.2819 6.378 28.007 7.47768C28.6447 8.45735 29.2102 9.42329 29.3595 10.6466C29.4722 11.7716 29.5579 13.0379 29.0109 14.048C28.6033 14.8258 28.0601 15.5289 27.4633 16.1486C27.3115 16.3062 27.375 16.5702 27.5851 16.631C28.1447 16.7928 28.7112 16.956 29.215 17.2609C29.5931 17.4982 29.9479 17.8003 30.2502 18.1437C30.9466 18.9871 31.2852 20.0251 31.4484 21.1349C31.6007 21.8226 31.3953 22.5817 31.2013 23.297C31.1738 23.3984 31.1465 23.499 31.1205 23.5983C31.0875 23.7243 31.071 23.7873 31.0369 23.8332C31.0069 23.8736 30.9669 23.9059 30.921 23.9266C30.8689 23.95 30.8091 23.9525 30.6895 23.9574C30.3365 23.972 29.9841 23.9683 29.6304 23.9609C29.5544 23.9593 29.5164 23.9585 29.4829 23.9498C29.4512 23.9416 29.4269 23.931 29.3991 23.9135C29.37 23.895 29.3401 23.8645 29.2803 23.8033C29.1922 23.7132 29.1 23.6261 29.008 23.5392C28.819 23.3607 28.6292 23.182 28.4739 22.9755C28.4624 22.9603 28.4567 22.9526 28.4495 22.9409C28.4441 22.9322 28.4365 22.9179 28.4322 22.9086C28.4265 22.8961 28.4233 22.8868 28.4168 22.8681C28.2972 22.5241 28.2396 22.1359 28.1818 21.7453C28.1072 21.2413 28.0318 20.7322 27.8214 20.3068C27.6652 19.9837 27.4083 19.7401 27.0695 19.6945C26.7959 19.6576 26.5232 19.6157 26.2511 19.5734C25.8441 19.5101 25.437 19.4469 25.027 19.4022C24.9207 19.3906 24.8676 19.3848 24.8214 19.3623C24.7825 19.3434 24.7437 19.3118 24.7172 19.2776C24.6857 19.2371 24.6712 19.1926 24.6422 19.1036C24.6214 19.04 24.6018 18.9765 24.5822 18.9132C24.5072 18.671 24.433 18.4322 24.303 18.2117C24.262 18.142 24.2414 18.1072 24.2323 18.0828C24.2227 18.0571 24.2193 18.043 24.2159 18.0157C24.2128 17.9899 24.2144 17.9589 24.2177 17.8969C24.2307 17.6522 24.2415 17.4066 24.2521 17.1613C24.2803 16.5104 24.3089 15.8586 24.381 15.215C24.3984 14.9203 24.5755 14.7868 24.7648 14.6447C24.8253 14.5992 24.8873 14.553 24.9455 14.5001C25.4063 14.1441 25.6728 13.5757 25.9015 13.0265C26.5141 11.7879 25.9906 10.0749 25.0011 9.25795C24.6784 8.96989 24.3032 8.9077 23.9152 8.84389C23.7728 8.82047 23.6282 8.79612 23.4845 8.76088C23.1437 8.67684 22.783 8.61037 22.4253 8.6015C22.278 8.59785 22.2043 8.59603 22.157 8.57801C22.1091 8.55975 22.0821 8.54163 22.047 8.50427C22.0123 8.4674 21.9853 8.40614 21.9313 8.28362C21.6107 7.55633 21.2177 6.93245 20.8664 6.39272L20.8605 6.38295C20.7813 6.26282 20.6983 6.14643 20.6122 6.03397C20.5607 5.96678 20.5859 5.86806 20.6642 5.83607L20.6681 5.83412C20.7124 5.81606 20.7568 5.79848 20.8009 5.78041ZM18.3175 17.6603C17.5398 17.7032 17.0726 18.4637 16.9953 19.171C16.9435 19.8919 16.9738 20.6165 16.9421 21.3396C16.9343 21.5192 16.9303 21.609 16.96 21.6738C16.9866 21.732 17.0283 21.7773 17.0842 21.8086C17.1464 21.8434 17.2314 21.8466 17.4016 21.8529C18.0025 21.8754 18.6035 21.8842 19.2044 21.8926C19.4148 21.8956 19.5199 21.897 19.5877 21.8604C19.6516 21.8258 19.6918 21.7813 19.7198 21.7142C19.7494 21.6432 19.7362 21.529 19.7099 21.3007C19.61 20.4346 19.701 19.5706 19.588 18.7003C19.5175 18.0722 18.9491 17.6005 18.3175 17.6603Z" fill="#AFB1B3"/>
</svg>
