<svg width="35" height="35" viewBox="0 0 35 35" fill="none" xmlns="http://www.w3.org/2000/svg">
<mask id="path-3-outside-1_1990_7776" maskUnits="userSpaceOnUse" x="3.00049" y="6" width="28" height="23" fill="black">
<rect fill="white" x="3.00049" y="6" width="28" height="23"/>
<path d="M5.94139 9.11952C7.01203 8.38459 10.1701 7.68266 12.2578 8.15175C12.2694 8.15431 12.2812 8.1568 12.2929 8.15956C12.4519 8.19651 12.6052 8.23914 12.75 8.29042C12.7608 8.29976 12.7714 8.30948 12.7822 8.31874C13.4724 8.59143 14.2029 9.06213 14.4638 9.32265C15.0685 9.98647 15.6793 10.6448 16.2881 11.3051C16.444 11.3024 16.6001 11.3016 16.7558 11.2982V11.2973H16.7685C18.2763 11.211 19.8102 11.2678 21.3232 11.2475H21.3525V11.2484C21.8387 11.2363 22.3349 11.2557 22.8271 11.3021C23.689 11.2823 24.733 11.3086 26.0215 11.3842C29.0837 11.5639 28.5452 13.3389 28.7041 14.2621C28.6024 19.1508 30.711 26.1092 24.9785 26.6351C24.4867 26.6802 23.9807 26.7009 23.4775 26.7055C23.2788 26.726 23.0811 26.7364 22.8818 26.7396C22.5364 26.7452 22.1546 26.7343 21.7793 26.7445L21.7695 26.7465H21.7119C21.1329 26.77 20.5567 26.7984 19.9785 26.8051L19.3906 26.8031L11.7568 26.81V26.8109L11.6611 26.8119C11.4427 26.8129 11.2229 26.8085 11.0029 26.8021C8.26206 26.8894 5.17561 25.9516 5.01365 23.1889C4.992 21.4337 4.99925 19.998 5.01951 18.7465C4.99126 18.3639 4.99618 17.9803 5.041 17.598C5.09975 15.1643 5.20138 13.3633 5.20994 10.9037C5.25056 10.3229 5.25082 9.667 5.94139 9.11952Z"/>
</mask>
<path d="M5.94139 9.11952L5.09248 7.88285L5.04995 7.91204L5.00953 7.94409L5.94139 9.11952ZM12.2578 8.15175L11.9289 9.61527L11.9341 9.6164L12.2578 8.15175ZM12.2929 8.15956L11.9479 9.61935L11.9534 9.62062L12.2929 8.15956ZM12.75 8.29042L13.7275 7.15265L13.5149 6.97004L13.2508 6.87649L12.75 8.29042ZM12.7822 8.31874L11.8045 9.4563L11.9961 9.62097L12.231 9.7138L12.7822 8.31874ZM14.4638 9.32265L15.5728 8.31257L15.5488 8.2862L15.5235 8.26101L14.4638 9.32265ZM16.2881 11.3051L15.1853 12.3218L15.6412 12.8163L16.3137 12.8049L16.2881 11.3051ZM16.7558 11.2982L16.7883 12.7979L18.2558 12.7661V11.2982H16.7558ZM16.7558 11.2973V9.79726H15.2558V11.2973H16.7558ZM16.7685 11.2973V12.7973H16.8114L16.8542 12.7948L16.7685 11.2973ZM21.3232 11.2475V9.74745H21.3131L21.303 9.74759L21.3232 11.2475ZM21.3525 11.2475H22.8525V9.74745H21.3525V11.2475ZM21.3525 11.2484H19.8525V12.7864L21.39 12.748L21.3525 11.2484ZM22.8271 11.3021L22.6864 12.7955L22.7738 12.8038L22.8616 12.8017L22.8271 11.3021ZM26.0215 11.3842L26.1093 9.88675L26.1093 9.88674L26.0215 11.3842ZM28.7041 14.2621L30.2038 14.2933L30.2067 14.1495L30.1824 14.0077L28.7041 14.2621ZM24.9785 26.6351L25.1155 28.1289L25.1155 28.1289L24.9785 26.6351ZM23.4775 26.7055L23.4639 25.2055L23.3934 25.2062L23.3231 25.2134L23.4775 26.7055ZM22.8818 26.7396L22.906 28.2394H22.9061L22.8818 26.7396ZM21.7793 26.7445L21.7386 25.2451L21.6106 25.2485L21.4851 25.2737L21.7793 26.7445ZM21.7695 26.7465V28.2465H21.918L22.0637 28.2173L21.7695 26.7465ZM21.7119 26.7465V25.2465H21.6815L21.6511 25.2477L21.7119 26.7465ZM19.9785 26.8051L19.9735 28.3051L19.9846 28.3051L19.9957 28.305L19.9785 26.8051ZM19.3906 26.8031L19.3956 25.3031L19.3893 25.3031L19.3906 26.8031ZM11.7568 26.81L11.7555 25.31L10.2568 25.3113V26.81H11.7568ZM11.7568 26.8109L11.7721 28.3109L13.2568 28.2957V26.8109H11.7568ZM11.6611 26.8119L11.6681 28.3119L11.6764 28.3118L11.6611 26.8119ZM11.0029 26.8021L11.0459 25.3028L11.0006 25.3015L10.9552 25.3029L11.0029 26.8021ZM5.01365 23.1889L3.51377 23.2074L3.51419 23.242L3.51622 23.2766L5.01365 23.1889ZM5.01951 18.7465L6.51931 18.7708L6.52041 18.7033L6.51544 18.636L5.01951 18.7465ZM5.041 17.598L6.53079 17.7727L6.53888 17.7037L6.54056 17.6342L5.041 17.598ZM5.20994 10.9037L3.7136 10.7991L3.71012 10.8487L3.70995 10.8985L5.20994 10.9037ZM5.94139 9.11952L6.79029 10.3562C7.05885 10.1719 7.86169 9.85819 8.97853 9.66136C10.0606 9.47067 11.1534 9.441 11.929 9.61526L12.2578 8.15175L12.5866 6.68824C11.2745 6.39341 9.74444 6.48016 8.45786 6.70689C7.20609 6.92749 5.89457 7.33226 5.09248 7.88285L5.94139 9.11952ZM12.2578 8.15175L11.9341 9.6164C11.9395 9.6176 11.9444 9.61868 11.9476 9.61937C11.9515 9.62021 11.9528 9.6205 11.9544 9.62085C11.9574 9.6215 11.954 9.62077 11.9479 9.61934L12.2929 8.15956L12.638 6.69978C12.6202 6.69559 12.605 6.69223 12.5962 6.69031C12.5813 6.68704 12.5873 6.68837 12.5815 6.6871L12.2578 8.15175ZM12.2929 8.15956L11.9534 9.62062C12.0732 9.64846 12.1703 9.67641 12.2492 9.70436L12.75 8.29042L13.2508 6.87649C13.0401 6.80188 12.8306 6.74455 12.6325 6.6985L12.2929 8.15956ZM12.75 8.29042L11.7725 9.42819C11.769 9.42521 11.7668 9.42322 11.7664 9.42294C11.7664 9.42288 11.7667 9.42318 11.7697 9.42587C11.772 9.42786 11.777 9.43229 11.7823 9.43702C11.788 9.44198 11.7956 9.44866 11.8045 9.4563L12.7822 8.31874L13.7599 7.18119C13.7634 7.18419 13.7657 7.18619 13.766 7.18643C13.766 7.18643 13.7656 7.18612 13.7625 7.18335C13.7602 7.18128 13.7552 7.17682 13.7497 7.17203C13.744 7.16701 13.7364 7.1603 13.7275 7.15265L12.75 8.29042ZM12.7822 8.31874L12.231 9.7138C12.4794 9.81194 12.7568 9.95545 13.0016 10.1051C13.1217 10.1785 13.2236 10.2471 13.3011 10.3039C13.3864 10.3664 13.4141 10.3942 13.4042 10.3843L14.4638 9.32265L15.5235 8.26101C15.268 8.006 14.9019 7.75057 14.5663 7.54546C14.208 7.32642 13.7752 7.09823 13.3334 6.92369L12.7822 8.31874ZM14.4638 9.32265L13.3549 10.3327C13.9636 11.001 14.5808 11.6662 15.1853 12.3218L16.2881 11.3051L17.3909 10.2883C16.7778 9.62339 16.1734 8.97192 15.5728 8.31257L14.4638 9.32265ZM16.2881 11.3051L16.3137 12.8049C16.4355 12.8028 16.6381 12.8011 16.7883 12.7979L16.7558 11.2982L16.7233 9.79859C16.562 9.80208 16.4524 9.80205 16.2625 9.80529L16.2881 11.3051ZM16.7558 11.2982H18.2558V11.2973H16.7558H15.2558V11.2982H16.7558ZM16.7558 11.2973V12.7973H16.7685V11.2973V9.79726H16.7558V11.2973ZM16.7685 11.2973L16.8542 12.7948C18.3281 12.7105 19.7185 12.7692 21.3434 12.7473L21.3232 11.2475L21.303 9.74759C19.9018 9.76646 18.2245 9.71155 16.6829 9.7997L16.7685 11.2973ZM21.3232 11.2475V12.7475H21.3525V11.2475V9.74745H21.3232V11.2475ZM21.3525 11.2475H19.8525V11.2484H21.3525H22.8525V11.2475H21.3525ZM21.3525 11.2484L21.39 12.748C21.8116 12.7374 22.2481 12.7542 22.6864 12.7955L22.8271 11.3021L22.9679 9.80876C22.4218 9.75729 21.8659 9.73513 21.315 9.7489L21.3525 11.2484ZM22.8271 11.3021L22.8616 12.8017C23.6687 12.7832 24.6689 12.8074 25.9337 12.8816L26.0215 11.3842L26.1093 9.88674C24.7971 9.80981 23.7094 9.78145 22.7926 9.80254L22.8271 11.3021ZM26.0215 11.3842L25.9336 12.8816C26.5666 12.9187 26.8721 13.0322 26.9988 13.1004C27.0569 13.1317 27.0767 13.1529 27.079 13.1554C27.0811 13.1577 27.0838 13.1603 27.0892 13.1721C27.1072 13.211 27.1359 13.3053 27.1518 13.5468C27.1606 13.6805 27.162 13.7718 27.1705 13.9513C27.1774 14.0977 27.1893 14.3043 27.2258 14.5165L28.7041 14.2621L30.1824 14.0077C30.1593 13.8735 30.1772 13.8346 30.1453 13.3496C30.1218 12.993 30.0639 12.4592 29.8138 11.9165C29.221 10.63 27.9286 9.9935 26.1093 9.88675L26.0215 11.3842ZM28.7041 14.2621L27.2044 14.2309C27.1772 15.5392 27.2977 16.9791 27.3888 18.288C27.4831 19.6433 27.5483 20.8807 27.4581 21.9596C27.3669 23.0491 27.1294 23.7875 26.7705 24.2598C26.4596 24.6688 25.9351 25.0411 24.8415 25.1414L24.9785 26.6351L25.1155 28.1289C26.8882 27.9662 28.2497 27.2715 29.159 26.0751C30.0201 24.942 30.3366 23.5366 30.4476 22.2097C30.5595 20.8722 30.4749 19.4205 30.3816 18.0797C30.285 16.6925 30.1801 15.4294 30.2038 14.2933L28.7041 14.2621ZM24.9785 26.6351L24.8415 25.1414C24.4 25.1819 23.9364 25.2012 23.4639 25.2055L23.4775 26.7055L23.4911 28.2054C24.025 28.2006 24.5733 28.1786 25.1155 28.1289L24.9785 26.6351ZM23.4775 26.7055L23.3231 25.2134C23.1744 25.2288 23.0207 25.2372 22.8575 25.2398L22.8818 26.7396L22.9061 28.2394C23.1415 28.2356 23.3832 28.2232 23.6319 28.1975L23.4775 26.7055ZM22.8818 26.7396L22.8576 25.2398C22.7041 25.2423 22.5418 25.2411 22.3478 25.2404C22.1616 25.2396 21.9518 25.2393 21.7386 25.2451L21.7793 26.7445L21.82 28.244C21.9821 28.2396 22.1508 28.2396 22.3357 28.2403C22.5128 28.2411 22.7141 28.2425 22.906 28.2394L22.8818 26.7396ZM21.7793 26.7445L21.4851 25.2737L21.4753 25.2756L21.7695 26.7465L22.0637 28.2173L22.0735 28.2154L21.7793 26.7445ZM21.7695 26.7465V25.2465H21.7119V26.7465V28.2465H21.7695V26.7465ZM21.7119 26.7465L21.6511 25.2477C21.054 25.2719 20.511 25.2988 19.9612 25.3052L19.9785 26.8051L19.9957 28.305C20.6024 28.298 21.2119 28.268 21.7727 28.2452L21.7119 26.7465ZM19.9785 26.8051L19.9835 25.3051L19.3956 25.3031L19.3906 26.8031L19.3856 28.3031L19.9735 28.3051L19.9785 26.8051ZM19.3906 26.8031L19.3893 25.3031L11.7555 25.31L11.7568 26.81L11.7582 28.31L19.3919 28.3031L19.3906 26.8031ZM11.7568 26.81H10.2568V26.8109H11.7568H13.2568V26.81H11.7568ZM11.7568 26.8109L11.7415 25.311L11.6458 25.312L11.6611 26.8119L11.6764 28.3118L11.7721 28.3109L11.7568 26.8109ZM11.6611 26.8119L11.6541 25.3119C11.4597 25.3128 11.2587 25.3089 11.0459 25.3028L11.0029 26.8021L10.9599 28.3015C11.1871 28.308 11.4257 28.313 11.6681 28.3119L11.6611 26.8119ZM11.0029 26.8021L10.9552 25.3029C9.73845 25.3416 8.5526 25.1441 7.71357 24.7234C6.92935 24.3301 6.55308 23.8175 6.51108 23.1011L5.01365 23.1889L3.51622 23.2766C3.63618 25.323 4.88411 26.6606 6.36882 27.4051C7.79871 28.1221 9.52651 28.3499 11.0506 28.3014L11.0029 26.8021ZM5.01365 23.1889L6.51354 23.1704C6.49207 21.4301 6.49928 20.0086 6.51931 18.7708L5.01951 18.7465L3.51971 18.7222C3.49923 19.9874 3.49193 21.4373 3.51377 23.2074L5.01365 23.1889ZM5.01951 18.7465L6.51544 18.636C6.49356 18.3397 6.49805 18.052 6.53079 17.7727L5.041 17.598L3.5512 17.4233C3.49431 17.9086 3.48897 18.3881 3.52358 18.8569L5.01951 18.7465ZM5.041 17.598L6.54056 17.6342C6.59793 15.2577 6.70132 13.3834 6.70993 10.9089L5.20994 10.9037L3.70995 10.8985C3.70144 13.3431 3.60157 15.0709 3.54143 17.5618L5.041 17.598ZM5.20994 10.9037L6.70629 11.0084C6.71904 10.826 6.72309 10.7326 6.73543 10.6193C6.74609 10.5215 6.75816 10.4652 6.76872 10.43C6.77792 10.3993 6.78577 10.3854 6.7919 10.3761C6.79781 10.3672 6.81769 10.339 6.87325 10.295L5.94139 9.11952L5.00953 7.94409C3.73156 8.95724 3.74777 10.3105 3.7136 10.7991L5.20994 10.9037Z" fill="#AFB1B3" mask="url(#path-3-outside-1_1990_7776)"/>
<path d="M17.6322 13.3173C18.2337 13.2829 18.8516 13.5693 19.3255 13.9217C19.8754 14.3339 20.1555 14.9498 20.2679 15.6151C20.3945 16.4567 20.4594 17.2793 20.2933 18.1229C20.2577 18.242 20.2399 18.3016 20.2381 18.3261C20.2292 18.4436 20.2559 18.4915 20.3606 18.5457C20.3824 18.557 20.4423 18.5731 20.5622 18.6053C21.3746 18.8238 22.0086 19.6051 21.9007 20.4774C21.7944 21.4345 21.9036 22.4081 21.8236 23.3631C21.7688 24.227 20.9143 24.9357 20.0687 24.9266C19.0873 24.9368 18.1057 24.9334 17.1253 24.9071C16.3455 24.8879 15.5633 24.956 14.7845 24.9266C14.1416 24.9052 13.5578 24.434 13.3958 23.8133C13.162 22.9647 13.2835 21.9447 13.2855 21.0829C13.2924 20.6477 13.0651 20.2913 13.0892 19.8602C13.1186 19.4278 13.3938 19.0502 13.7249 18.7899C13.9351 18.618 14.202 18.5255 14.4721 18.4557C14.6212 18.4172 14.6958 18.398 14.7358 18.3638C14.7771 18.3286 14.7942 18.3015 14.8081 18.249C14.8216 18.1982 14.8041 18.109 14.7691 17.9305C14.686 17.507 14.7458 17.0907 14.7298 16.6268C14.6985 15.7498 15.0133 14.8444 15.6058 14.1942C16.1203 13.6282 16.8717 13.3203 17.6322 13.3173ZM17.6234 19.8905C17.3104 19.8024 16.9943 20.0948 16.9437 20.3905C16.8566 20.8837 16.8664 21.3971 16.8704 21.8964C16.8783 22.1705 16.9402 22.5399 17.1862 22.7068C17.1901 22.7094 17.1921 22.7108 17.1989 22.7148C17.2029 22.717 17.2136 22.7226 17.2177 22.7245C17.225 22.7279 17.2282 22.7291 17.2348 22.7316C17.4813 22.8254 17.782 22.8329 18.0394 22.8006C18.2217 22.7682 18.3339 22.6576 18.3734 22.4794C18.4452 22.0572 18.4097 21.6106 18.4046 21.1844C18.3837 20.9014 18.4246 20.5455 18.3096 20.2776C18.3046 20.266 18.3021 20.2602 18.2938 20.2465C18.2888 20.2383 18.2748 20.2195 18.2684 20.2124C18.2577 20.2005 18.2523 20.196 18.2414 20.1868C18.0696 20.0427 17.8349 19.9529 17.6234 19.8905ZM18.5726 15.6395C18.4186 15.1382 17.8188 14.8594 17.3255 15.0184C16.7372 15.1613 16.4595 15.7663 16.4007 16.3192C16.3557 16.9107 16.3924 17.5059 16.371 18.0993C16.366 18.2384 16.3635 18.308 16.3869 18.3579C16.4079 18.4027 16.4405 18.4375 16.484 18.4612C16.5323 18.4876 16.5977 18.4892 16.7286 18.4926C17.2912 18.5069 17.8543 18.5007 18.417 18.5083C18.5263 18.5097 18.581 18.5105 18.6144 18.5005C18.7176 18.4696 18.7699 18.4038 18.7766 18.2963C18.7787 18.2614 18.7621 18.1941 18.7288 18.0594C18.6317 17.2798 18.8195 16.3828 18.5726 15.6395Z" fill="#AFB1B3"/>
</svg>
