<svg width="35" height="35" viewBox="0 0 35 35" fill="none" xmlns="http://www.w3.org/2000/svg">
<path fill-rule="evenodd" clip-rule="evenodd" d="M17.7642 5.1355C18.9674 5.06663 20.203 5.63987 21.151 6.34478C22.2509 7.16919 22.812 8.40075 23.0368 9.73157C23.29 11.4148 23.4196 13.0596 23.0874 14.7469C23.0194 14.9748 22.9093 15.1941 22.8006 15.4105C22.7587 15.4939 22.8196 15.5918 22.9128 15.5972C24.8591 15.7083 26.5488 17.4631 26.3021 19.4564C26.1888 20.4758 26.1979 21.5044 26.207 22.5318C26.2149 23.4336 26.2229 24.3344 26.1481 25.2273C26.0387 26.9552 24.3291 28.3731 22.6378 28.3548C20.675 28.3751 18.7122 28.369 16.7514 28.3163C16.0143 28.2982 15.2763 28.3189 14.5385 28.3396C13.715 28.3627 12.8918 28.3858 12.0703 28.3548C10.784 28.3123 9.61525 27.3704 9.29116 26.1287C8.93832 24.8487 8.98976 23.3741 9.03814 21.9871C9.05392 21.5347 9.06937 21.0917 9.07037 20.6677C9.07724 20.2456 8.9742 19.8605 8.8717 19.4776C8.76273 19.0704 8.65438 18.6655 8.67943 18.2208C8.73817 17.3559 9.28711 16.6024 9.94947 16.0818C10.5129 15.6205 11.2799 15.4454 11.9937 15.2824C12.158 15.2449 12.2445 15.0658 12.1876 14.9071C11.9221 14.1669 11.9392 13.4548 11.9572 12.7004V12.7004C11.9646 12.3939 11.9721 12.0803 11.9609 11.7551C11.8981 10.001 12.526 8.19009 13.711 6.88966C14.74 5.75735 16.243 5.14158 17.7642 5.1355ZM17.1524 8.53683C18.1389 8.21881 19.3381 8.77585 19.6459 9.77852C19.9446 10.6768 19.9252 11.6875 19.906 12.6909C19.8934 13.3482 19.8809 14.0023 19.9579 14.6197C20.0291 14.9083 20.1505 15.164 20.2766 15.4295C20.3004 15.4797 20.2627 15.5371 20.2072 15.5354C19.4652 15.513 18.7229 15.5101 17.9806 15.5072H17.9806C17.3066 15.5046 16.6327 15.502 15.9589 15.4848C15.6972 15.4781 15.5664 15.4747 15.4697 15.4219C15.3828 15.3745 15.3175 15.305 15.2755 15.2154C15.2287 15.1156 15.2338 14.9765 15.2438 14.6981C15.2615 14.2052 15.2592 13.7117 15.2569 13.2184V13.2184C15.2536 12.5238 15.2504 11.8296 15.3031 11.1377C15.4206 10.0317 15.9756 8.82244 17.1524 8.53683ZM19.1207 19.0567C19.1108 19.0335 19.1058 19.0219 19.0892 18.9946C19.0793 18.9783 19.0513 18.9406 19.0385 18.9264C19.0171 18.9026 19.0063 18.8935 18.9846 18.8753C18.6408 18.5868 18.1712 18.4069 17.748 18.282C17.1221 18.1058 16.4901 18.6912 16.3888 19.2826C16.2247 20.2121 16.2332 21.1775 16.2415 22.1213C16.242 22.1792 16.2425 22.237 16.2429 22.2947C16.2587 22.8431 16.3812 23.5822 16.8734 23.9161C16.8811 23.9214 16.885 23.924 16.8987 23.932C16.9066 23.9365 16.9281 23.9477 16.9363 23.9515C16.9508 23.9582 16.9573 23.9607 16.9703 23.9656C17.4636 24.1533 18.0656 24.1681 18.5805 24.1035C18.9451 24.0387 19.1679 23.8179 19.2469 23.4614C19.3593 22.8013 19.3406 22.1115 19.3222 21.4346C19.317 21.2453 19.3119 21.057 19.3097 20.8707C19.2977 20.7087 19.296 20.5348 19.2942 20.3564C19.2897 19.9115 19.285 19.4392 19.1207 19.0567Z" fill="#A7A9AB"/>
</svg>
