<svg width="35" height="35" viewBox="0 0 35 35" fill="none" xmlns="http://www.w3.org/2000/svg">
<path d="M17.8085 3.07295C19.2121 2.99268 20.6537 3.66174 21.7596 4.48408C23.0428 5.44588 23.6975 6.8827 23.9598 8.43525C24.2552 10.3991 24.406 12.3183 24.0184 14.2868C23.9352 14.5654 23.8936 14.7046 23.8893 14.762C23.8687 15.0359 23.9309 15.1474 24.1748 15.2738C24.2259 15.3003 24.3662 15.338 24.6469 15.4135C26.5423 15.9234 28.0212 17.7456 27.7694 19.781C27.5213 22.014 27.7763 24.285 27.5897 26.5134C27.4621 28.5292 25.4673 30.1841 23.494 30.1628C21.2042 30.1864 18.9143 30.1793 16.6268 30.1179C14.8072 30.073 12.9822 30.2313 11.1649 30.1628C9.66444 30.113 8.30079 29.0136 7.92271 27.5651C7.37694 25.5849 7.66115 23.205 7.66588 21.194C7.68234 20.178 7.15311 19.3462 7.20982 18.3396C7.27835 17.3305 7.91855 16.4518 8.69127 15.8444C9.18166 15.4429 9.80419 15.2272 10.4345 15.0646C10.7824 14.9748 10.9564 14.9299 11.0497 14.8503C11.1462 14.7681 11.1859 14.705 11.2186 14.5825C11.2501 14.464 11.2094 14.2557 11.1278 13.839C10.9344 12.8507 11.0752 11.879 11.0379 10.7966C10.9647 8.75006 11.6975 6.63699 13.0799 5.11982C14.2804 3.79894 16.0338 3.08004 17.8085 3.07295ZM17.7889 18.4118C17.0587 18.2062 16.3211 18.8897 16.203 19.5798C15.9998 20.7305 16.0236 21.9286 16.0331 23.0935C16.0514 23.7332 16.1942 24.5953 16.7683 24.9849C16.7773 24.991 16.7818 24.9941 16.7979 25.0034C16.8071 25.0087 16.8321 25.0218 16.8418 25.0262C16.8586 25.034 16.8663 25.0369 16.8815 25.0427C17.4569 25.2616 18.159 25.2791 18.7596 25.2038C19.185 25.1282 19.4458 24.8706 19.5379 24.4548C19.7057 23.4694 19.623 22.4271 19.6112 21.4323C19.5624 20.7719 19.6588 19.9408 19.3903 19.3157C19.3787 19.2886 19.3729 19.2751 19.3535 19.2432C19.3419 19.2241 19.3093 19.1802 19.2944 19.1636C19.2694 19.1359 19.2568 19.1252 19.2314 19.104C18.8304 18.7674 18.2827 18.5576 17.7889 18.4118ZM20.0028 8.49385C19.6436 7.32407 18.2445 6.67361 17.0936 7.04463C15.7209 7.37794 15.0735 8.7887 14.9364 10.0788C14.8312 11.4594 14.9169 12.8482 14.867 14.233C14.8553 14.5577 14.8495 14.7201 14.9041 14.8364C14.9531 14.941 15.0293 15.022 15.1306 15.0774C15.2434 15.139 15.3961 15.1429 15.7014 15.1507C17.0142 15.1844 18.3278 15.1705 19.6407 15.1884C19.8949 15.1919 20.0221 15.1936 20.1003 15.1702C20.3408 15.0981 20.4625 14.9448 20.4783 14.6943C20.4834 14.6127 20.4446 14.4556 20.367 14.1413C20.1402 12.3218 20.5793 10.2283 20.0028 8.49385Z" fill="#AFB1B3"/>
</svg>
