<svg width="35" height="35" viewBox="0 0 35 35" fill="none" xmlns="http://www.w3.org/2000/svg">
<mask id="path-3-outside-1_1990_7821" maskUnits="userSpaceOnUse" x="3.00049" y="6" width="28" height="23" fill="black">
<rect fill="white" x="3.00049" y="6" width="28" height="23"/>
<path d="M5.942 9.11969C7.01374 8.38419 10.1758 7.68147 12.2633 8.15289C12.2714 8.1547 12.2796 8.15685 12.2877 8.15875C12.4486 8.19595 12.6032 8.23972 12.7496 8.29156C12.7603 8.30076 12.7712 8.30978 12.7818 8.31891C13.4722 8.59156 14.2034 9.06223 14.4645 9.32281C15.069 9.98646 15.6791 10.6451 16.2877 11.3052C16.4439 11.3026 16.6004 11.3018 16.7565 11.2984V11.2974H16.7691C18.2769 11.2112 19.8108 11.268 21.3238 11.2476H21.3531V11.2486C21.8393 11.2365 22.3355 11.2559 22.8277 11.3023C23.6895 11.2825 24.733 11.3098 26.0211 11.3853C29.0833 11.5649 28.545 13.339 28.7037 14.2623C28.6019 19.151 30.711 26.1095 24.9781 26.6353C24.4837 26.6806 23.9752 26.7022 23.4693 26.7066C23.2735 26.7265 23.0787 26.7366 22.8824 26.7398C22.5371 26.7454 22.1552 26.7345 21.7799 26.7447L21.7701 26.7466H21.7125C21.1336 26.7701 20.5573 26.7986 19.9791 26.8052L19.3912 26.8033L11.7574 26.8101V26.8111L11.6617 26.8121C11.4433 26.8131 11.2235 26.8086 11.0035 26.8023C8.26256 26.8896 5.17531 25.9529 5.01329 23.19C4.99163 21.4344 4.99986 19.9984 5.02012 18.7466C4.99188 18.3643 4.99685 17.9812 5.04161 17.5992C5.10036 15.1653 5.20199 13.3644 5.21055 10.9048C5.25119 10.3239 5.25104 9.66728 5.942 9.11969Z"/>
</mask>
<path d="M5.942 9.11969L5.09324 7.88291L5.05074 7.91208L5.01033 7.9441L5.942 9.11969ZM12.2633 8.15289L11.9329 9.61605L11.9354 9.6166L12.2633 8.15289ZM12.2877 8.15875L11.9458 9.61928L11.9498 9.62019L12.2877 8.15875ZM12.7496 8.29156L13.7269 7.15361L13.5144 6.97112L13.2504 6.87762L12.7496 8.29156ZM12.7818 8.31891L11.8041 9.45647L11.9958 9.62119L12.2308 9.71403L12.7818 8.31891ZM14.4645 9.32281L15.5734 8.31273L15.5494 8.28636L15.5241 8.26117L14.4645 9.32281ZM16.2877 11.3052L15.1849 12.322L15.6408 12.8165L16.3133 12.805L16.2877 11.3052ZM16.7565 11.2984L16.789 12.798L18.2565 12.7662V11.2984H16.7565ZM16.7565 11.2974V9.79742H15.2565V11.2974H16.7565ZM16.7691 11.2974V12.7974H16.812L16.8548 12.795L16.7691 11.2974ZM21.3238 11.2476V9.74762H21.3137L21.3036 9.74775L21.3238 11.2476ZM21.3531 11.2476H22.8531V9.74762H21.3531V11.2476ZM21.3531 11.2486H19.8531V12.7865L21.3906 12.7481L21.3531 11.2486ZM22.8277 11.3023L22.687 12.7957L22.7744 12.8039L22.8622 12.8019L22.8277 11.3023ZM26.0211 11.3853L26.1089 9.88789L26.1089 9.88788L26.0211 11.3853ZM28.7037 14.2623L30.2034 14.2935L30.2064 14.1498L30.182 14.0081L28.7037 14.2623ZM24.9781 26.6353L25.1151 28.129L25.1151 28.129L24.9781 26.6353ZM23.4693 26.7066L23.4564 25.2067L23.3868 25.2073L23.3175 25.2143L23.4693 26.7066ZM22.8824 26.7398L22.9067 28.2396H22.9068L22.8824 26.7398ZM21.7799 26.7447L21.7393 25.2452L21.6113 25.2487L21.4857 25.2738L21.7799 26.7447ZM21.7701 26.7466V28.2466H21.9187L22.0643 28.2175L21.7701 26.7466ZM21.7125 26.7466V25.2466H21.6821L21.6517 25.2479L21.7125 26.7466ZM19.9791 26.8052L19.9741 28.3052L19.9853 28.3053L19.9964 28.3051L19.9791 26.8052ZM19.3912 26.8033L19.3962 25.3033L19.3899 25.3033L19.3912 26.8033ZM11.7574 26.8101L11.7561 25.3101L10.2574 25.3115V26.8101H11.7574ZM11.7574 26.8111L11.7727 28.311L13.2574 28.2959V26.8111H11.7574ZM11.6617 26.8121L11.6687 28.3121L11.677 28.312L11.6617 26.8121ZM11.0035 26.8023L11.0465 25.3029L11.0011 25.3016L10.9557 25.3031L11.0035 26.8023ZM5.01329 23.19L3.5134 23.2085L3.51383 23.2432L3.51586 23.2778L5.01329 23.19ZM5.02012 18.7466L6.51993 18.7709L6.52102 18.7034L6.51605 18.6361L5.02012 18.7466ZM5.04161 17.5992L6.53142 17.7737L6.5395 17.7048L6.54117 17.6354L5.04161 17.5992ZM5.21055 10.9048L3.71421 10.8002L3.71074 10.8498L3.71056 10.8996L5.21055 10.9048ZM5.942 9.11969L6.79076 10.3565C7.05985 10.1718 7.86398 9.85776 8.9818 9.66097C10.065 9.47028 11.1581 9.44109 11.9329 9.61604L12.2633 8.15289L12.5937 6.68974C11.2809 6.39327 9.74929 6.47972 8.46166 6.70641C7.20864 6.927 5.89588 7.33208 5.09324 7.88291L5.942 9.11969ZM12.2633 8.15289L11.9354 9.6166C11.9287 9.61511 11.9236 9.6139 11.9208 9.61325C11.9183 9.61264 11.9167 9.61226 11.918 9.61255C11.919 9.6128 11.9188 9.61276 11.9207 9.61323C11.922 9.61356 11.924 9.61404 11.9263 9.61459C11.9307 9.61567 11.9376 9.61735 11.9458 9.61927L12.2877 8.15875L12.6296 6.69823C12.6337 6.6992 12.6366 6.6999 12.6369 6.69998C12.6371 6.70003 12.6371 6.70002 12.6364 6.69984C12.6362 6.69981 12.634 6.69927 12.633 6.69901C12.6301 6.69831 12.6245 6.69693 12.6179 6.69535C12.6111 6.69373 12.6019 6.69158 12.5912 6.68918L12.2633 8.15289ZM12.2877 8.15875L11.9498 9.62019C12.0654 9.64693 12.1646 9.67567 12.2489 9.7055L12.7496 8.29156L13.2504 6.87762C13.0418 6.80376 12.8317 6.74496 12.6256 6.69731L12.2877 8.15875ZM12.7496 8.29156L11.7723 9.42952C11.7837 9.43929 11.7944 9.44826 11.7988 9.452C11.805 9.45725 11.805 9.45727 11.8041 9.45647L12.7818 8.31891L13.7596 7.18134C13.748 7.17142 13.7373 7.16236 13.7327 7.15852C13.7264 7.15316 13.7262 7.15303 13.7269 7.15361L12.7496 8.29156ZM12.7818 8.31891L12.2308 9.71403C12.4794 9.81222 12.7572 9.95579 13.0022 10.1054C13.1224 10.1789 13.2243 10.2475 13.302 10.3043C13.3873 10.3669 13.4149 10.3945 13.4048 10.3845L14.4645 9.32281L15.5241 8.26117C15.2684 8.00586 14.9016 7.75032 14.5661 7.54533C14.2076 7.32633 13.7746 7.09824 13.3329 6.92378L12.7818 8.31891ZM14.4645 9.32281L13.3555 10.3329C13.9641 11.001 14.5795 11.6654 15.1849 12.322L16.2877 11.3052L17.3905 10.2885C16.7787 9.62487 16.1738 8.97195 15.5734 8.31273L14.4645 9.32281ZM16.2877 11.3052L16.3133 12.805C16.4352 12.8029 16.6385 12.8013 16.789 12.798L16.7565 11.2984L16.7239 9.79875C16.5622 9.80226 16.4527 9.8022 16.2621 9.80545L16.2877 11.3052ZM16.7565 11.2984H18.2565V11.2974H16.7565H15.2565V11.2984H16.7565ZM16.7565 11.2974V12.7974H16.7691V11.2974V9.79742H16.7565V11.2974ZM16.7691 11.2974L16.8548 12.795C18.3287 12.7107 19.7192 12.7694 21.344 12.7475L21.3238 11.2476L21.3036 9.74775C19.9025 9.76663 18.2251 9.71174 16.6835 9.79987L16.7691 11.2974ZM21.3238 11.2476V12.7476H21.3531V11.2476V9.74762H21.3238V11.2476ZM21.3531 11.2476H19.8531V11.2486H21.3531H22.8531V11.2476H21.3531ZM21.3531 11.2486L21.3906 12.7481C21.8122 12.7376 22.2487 12.7544 22.687 12.7957L22.8277 11.3023L22.9685 9.80892C22.4223 9.75744 21.8664 9.73531 21.3157 9.74906L21.3531 11.2486ZM22.8277 11.3023L22.8622 12.8019C23.6684 12.7834 24.6678 12.8085 25.9333 12.8827L26.0211 11.3853L26.1089 9.88788C24.7982 9.81104 23.7106 9.78162 22.7933 9.8027L22.8277 11.3023ZM26.0211 11.3853L25.9333 12.8827C26.5664 12.9199 26.8719 13.0333 26.9987 13.1015C27.0568 13.1328 27.0766 13.154 27.0789 13.1565C27.081 13.1587 27.0836 13.1613 27.089 13.1729C27.1068 13.2117 27.1355 13.3058 27.1514 13.5471C27.1602 13.6806 27.1617 13.7721 27.1701 13.9514C27.177 14.0978 27.1889 14.3043 27.2254 14.5165L28.7037 14.2623L30.182 14.0081C30.1589 13.8736 30.1769 13.8349 30.1449 13.3498C30.1214 12.9933 30.0636 12.4595 29.8134 11.9169C29.2203 10.6306 27.9278 9.99458 26.1089 9.88789L26.0211 11.3853ZM28.7037 14.2623L27.204 14.231C27.1768 15.5394 27.2974 16.9794 27.3885 18.2882C27.4828 19.6436 27.548 20.881 27.4578 21.9599C27.3667 23.0494 27.1292 23.7878 26.7703 24.2601C26.4594 24.669 25.9349 25.0413 24.8411 25.1416L24.9781 26.6353L25.1151 28.129C26.8878 27.9665 28.2494 27.2717 29.1587 26.0753C30.0199 24.9423 30.3364 23.5369 30.4474 22.2099C30.5592 20.8724 30.4746 19.4207 30.3812 18.0799C30.2847 16.6927 30.1797 15.4296 30.2034 14.2935L28.7037 14.2623ZM24.9781 26.6353L24.8412 25.1416C24.3956 25.1824 23.9293 25.2026 23.4564 25.2067L23.4693 26.7066L23.4823 28.2065C24.0211 28.2019 24.5718 28.1789 25.1151 28.129L24.9781 26.6353ZM23.4693 26.7066L23.3175 25.2143C23.1707 25.2292 23.019 25.2374 22.8581 25.24L22.8824 26.7398L22.9068 28.2396C23.1384 28.2358 23.3764 28.2238 23.6212 28.1989L23.4693 26.7066ZM22.8824 26.7398L22.8582 25.24C22.7047 25.2425 22.5424 25.2413 22.3484 25.2405C22.1623 25.2398 21.9524 25.2395 21.7393 25.2452L21.7799 26.7447L21.8205 28.2441C21.9827 28.2397 22.1514 28.2398 22.3363 28.2405C22.5135 28.2412 22.7148 28.2427 22.9067 28.2396L22.8824 26.7398ZM21.7799 26.7447L21.4857 25.2738L21.476 25.2758L21.7701 26.7466L22.0643 28.2175L22.0741 28.2156L21.7799 26.7447ZM21.7701 26.7466V25.2466H21.7125V26.7466V28.2466H21.7701V26.7466ZM21.7125 26.7466L21.6517 25.2479C21.0547 25.2721 20.5116 25.299 19.9618 25.3053L19.9791 26.8052L19.9964 28.3051C20.603 28.2981 21.2125 28.2682 21.7733 28.2454L21.7125 26.7466ZM19.9791 26.8052L19.9841 25.3052L19.3962 25.3033L19.3912 26.8033L19.3862 28.3033L19.9741 28.3052L19.9791 26.8052ZM19.3912 26.8033L19.3899 25.3033L11.7561 25.3101L11.7574 26.8101L11.7588 28.3101L19.3926 28.3033L19.3912 26.8033ZM11.7574 26.8101H10.2574V26.8111H11.7574H13.2574V26.8101H11.7574ZM11.7574 26.8111L11.7421 25.3112L11.6464 25.3121L11.6617 26.8121L11.677 28.312L11.7727 28.311L11.7574 26.8111ZM11.6617 26.8121L11.6547 25.3121C11.4604 25.313 11.2593 25.309 11.0465 25.3029L11.0035 26.8023L10.9605 28.3017C11.1877 28.3082 11.4263 28.3132 11.6687 28.3121L11.6617 26.8121ZM11.0035 26.8023L10.9557 25.3031C9.73877 25.3418 8.55262 25.1445 7.71335 24.724C6.92892 24.3308 6.55272 23.8184 6.51072 23.1022L5.01329 23.19L3.51586 23.2778C3.63588 25.3245 4.88432 26.6618 6.36926 27.406C7.79936 28.1227 9.52731 28.3501 11.0513 28.3015L11.0035 26.8023ZM5.01329 23.19L6.51317 23.1715C6.49171 21.4314 6.49987 20.0097 6.51993 18.7709L5.02012 18.7466L3.52032 18.7224C3.49984 19.987 3.49155 21.4374 3.5134 23.2085L5.01329 23.19ZM5.02012 18.7466L6.51605 18.6361C6.49419 18.3403 6.4987 18.053 6.53142 17.7737L5.04161 17.5992L3.5518 17.4246C3.495 17.9094 3.48957 18.3884 3.5242 18.8572L5.02012 18.7466ZM5.04161 17.5992L6.54117 17.6354C6.59854 15.2587 6.70193 13.3845 6.71054 10.9101L5.21055 10.9048L3.71056 10.8996C3.70205 13.3443 3.60217 15.0718 3.54205 17.563L5.04161 17.5992ZM5.21055 10.9048L6.7069 11.0095C6.71968 10.8267 6.72369 10.7335 6.73604 10.6199C6.74669 10.5219 6.75876 10.4655 6.76935 10.4301C6.77856 10.3994 6.78641 10.3854 6.79251 10.3762C6.79837 10.3674 6.81819 10.3392 6.87366 10.2953L5.942 9.11969L5.01033 7.9441C3.73141 8.95766 3.74831 10.3127 3.71421 10.8002L5.21055 10.9048Z" fill="#AFB1B3" mask="url(#path-3-outside-1_1990_7821)"/>
<path d="M17.2465 18.8121C17.6968 18.6165 18.2471 18.6171 18.6664 18.8922C19.0073 19.1027 19.2254 19.4636 19.2895 19.8561C19.3619 20.2966 19.3844 20.739 19.3046 21.1758C19.2906 21.2524 19.2836 21.2908 19.2904 21.3174C19.297 21.344 19.3064 21.36 19.3264 21.3787C19.3464 21.3976 19.3851 21.4107 19.4624 21.4369C19.6609 21.5043 19.8317 21.6093 19.9653 21.7926C20.1753 22.05 20.1206 22.3437 20.1147 22.651C20.0853 23.11 20.1398 23.5805 20.0795 24.0358C19.9853 24.455 19.532 24.7786 19.1039 24.7457C18.2454 24.7472 17.3861 24.7327 16.5268 24.7467C16.1637 24.7708 15.8213 24.5643 15.6996 24.2184C15.5746 23.7366 15.6024 23.2842 15.6274 22.7965C15.6472 22.4573 15.4103 22.1875 15.5825 21.8541C15.7213 21.558 15.9552 21.4314 16.2365 21.3537C16.3077 21.334 16.3433 21.3241 16.3645 21.3064C16.3846 21.2895 16.3962 21.272 16.404 21.2469C16.4121 21.2206 16.4075 21.1849 16.3983 21.1136C16.3538 20.7697 16.3519 20.4191 16.392 20.0758C16.4553 19.5615 16.7698 19.0388 17.2465 18.8121ZM15.1411 14.4772C15.6911 14.2549 16.3007 14.1807 16.8774 14.3024C17.269 14.4064 17.6785 14.608 17.9877 14.9127C18.0774 15.0012 18.1591 15.0987 18.2289 15.2047C18.3997 15.4671 18.5587 15.7272 18.6694 16.0133C18.6778 16.0351 18.6859 16.0576 18.6938 16.0797C18.7477 16.2316 18.7881 16.3917 18.809 16.5631C18.8428 16.9007 18.8709 17.2683 18.8043 17.6068C18.7919 17.6694 18.7858 17.7007 18.7656 17.7253C18.7484 17.7463 18.7229 17.7622 18.6964 17.7684C18.6655 17.7756 18.6279 17.7655 18.5528 17.7453C18.1602 17.6397 17.7551 17.6391 17.3804 17.7147C17.3303 17.7248 17.2881 17.6736 17.308 17.6266C17.3143 17.612 17.3205 17.5973 17.3266 17.5826C17.5562 17.1183 17.4135 16.4982 17.0903 16.1159C17.0587 16.0785 17.0255 16.0428 16.9907 16.0104C16.9745 15.9954 16.9576 15.9812 16.9409 15.9674C16.8025 15.8439 16.6414 15.817 16.475 15.7897C16.4141 15.7797 16.352 15.7696 16.2905 15.7545C15.9483 15.6702 15.5596 15.6272 15.2504 15.8473C15.2079 15.8778 15.1635 15.9071 15.1196 15.9371C14.974 16.0368 14.8254 16.1383 14.7055 16.2692C14.5031 16.517 14.3195 16.7853 14.2348 17.11C14.1783 17.3051 14.237 17.5333 14.2875 17.7321C14.2933 17.7547 14.2987 17.7776 14.3041 17.7994C14.4081 18.1887 14.6425 18.4734 14.893 18.7594C14.9227 18.7932 14.955 18.826 14.9868 18.859C15.0927 18.9692 15.2006 19.0812 15.2465 19.236C15.3183 19.4387 15.3024 19.6638 15.2866 19.8903C15.277 20.0263 15.2669 20.1631 15.2761 20.2964C15.2771 20.3103 15.2733 20.3242 15.2651 20.3356C15.1629 20.4697 15.0669 20.5959 14.9164 20.6696C14.611 20.8235 14.3248 20.8555 14.0239 20.8893C13.8693 20.9067 13.7105 20.9243 13.5431 20.9592C13.5048 20.9672 13.4856 20.9712 13.468 20.9814C13.4528 20.9902 13.4385 21.0032 13.4284 21.0175C13.4165 21.0341 13.4102 21.0544 13.3977 21.095C13.2861 21.4565 13.1488 21.8329 12.9418 22.1364C12.802 22.3369 12.5065 22.4504 12.3002 22.3112C12.2422 22.2816 12.1842 22.2579 12.1284 22.235C11.9916 22.1788 11.8632 22.1259 11.7514 21.9948C11.6194 21.8427 11.4456 21.6059 11.518 21.3825C11.5729 21.1071 11.6677 20.8658 11.7661 20.6149C11.7948 20.5414 11.8244 20.4664 11.853 20.3903C11.9544 20.1312 12.1094 19.8263 12.3373 19.6803C12.5757 19.5651 12.8375 19.4959 13.0981 19.484C13.2723 19.4769 13.438 19.4383 13.6049 19.4C13.6922 19.38 13.7187 19.2647 13.6513 19.2058C13.5517 19.1188 13.4596 19.0235 13.3823 18.9078C13.1395 18.5535 13.0273 18.0803 12.9672 17.6481C12.8864 17.0967 12.9986 16.538 13.2055 16.0348C13.3666 15.6475 13.6336 15.3597 13.9389 15.1071C14.2825 14.8275 14.6848 14.6639 15.0825 14.5016C15.102 14.4936 15.1216 14.4851 15.1411 14.4772ZM18.9155 14.4772C19.4655 14.2549 20.0752 14.1806 20.6518 14.3024C21.1571 14.4366 21.6926 14.7334 22.0034 15.2047C22.2767 15.6246 22.5194 16.0388 22.5834 16.5631C22.6317 17.045 22.6682 17.5874 22.434 18.0201C22.2593 18.3535 22.0263 18.6549 21.7704 18.9206C21.7054 18.9882 21.7326 19.1015 21.8227 19.1276C22.0625 19.1969 22.3051 19.2675 22.5209 19.3981C22.6829 19.4998 22.8348 19.6289 22.9643 19.776C23.2628 20.1375 23.408 20.5826 23.478 21.0582C23.5431 21.3528 23.4556 21.6777 23.3725 21.984C23.3607 22.0275 23.349 22.0707 23.3378 22.1134C23.3237 22.1674 23.3166 22.1944 23.3021 22.2141C23.2892 22.2314 23.272 22.2452 23.2524 22.2541C23.2301 22.2642 23.2044 22.2652 23.1531 22.2674C23.0018 22.2737 22.8507 22.2723 22.6991 22.2692C22.6666 22.2685 22.6503 22.2682 22.636 22.2645C22.6223 22.261 22.6119 22.2565 22.6001 22.249C22.5876 22.2411 22.5747 22.228 22.549 22.2018C22.5112 22.1631 22.4715 22.1258 22.4321 22.0885C22.351 22.012 22.27 21.9347 22.2035 21.8461C22.1985 21.8395 22.196 21.8362 22.193 21.8312C22.1907 21.8275 22.1874 21.8214 22.1856 21.8174C22.1832 21.812 22.1818 21.808 22.179 21.8C22.1278 21.6526 22.1033 21.4863 22.0786 21.319C22.0466 21.1031 22.0144 20.8851 21.9243 20.7028C21.8573 20.5642 21.7463 20.4596 21.601 20.4401C21.4838 20.4243 21.367 20.4064 21.2504 20.3883C21.0762 20.3612 20.9022 20.3344 20.7268 20.3153C20.6811 20.3104 20.6583 20.3079 20.6386 20.2983C20.6219 20.2902 20.6054 20.2769 20.594 20.2623C20.5805 20.245 20.5742 20.2258 20.5615 20.1875C20.5525 20.1603 20.544 20.1331 20.5356 20.1061C20.5034 20.0023 20.4717 19.8997 20.416 19.8051C20.3984 19.7753 20.3896 19.7603 20.3858 19.7499C20.3816 19.7389 20.3802 19.7329 20.3788 19.7212C20.3774 19.7102 20.3781 19.6969 20.3795 19.6703C20.385 19.5655 20.3894 19.4602 20.394 19.3551C20.4061 19.0761 20.4187 18.7961 20.4496 18.5201C20.4572 18.3941 20.5327 18.3369 20.6137 18.276C20.6395 18.2566 20.666 18.237 20.6909 18.2145C20.8884 18.0619 21.003 17.818 21.101 17.5826C21.3634 17.0518 21.1393 16.3175 20.7153 15.9674C20.5769 15.8439 20.4158 15.817 20.2494 15.7897C20.1885 15.7796 20.1264 15.7696 20.0649 15.7545C19.9189 15.7185 19.7645 15.6899 19.6113 15.686C19.5481 15.6844 19.5166 15.6836 19.4963 15.6759C19.4758 15.6681 19.4642 15.6603 19.4492 15.6443C19.4344 15.6285 19.4228 15.6023 19.3996 15.5498C19.2624 15.2389 19.0942 14.9724 18.9439 14.7415C18.9432 14.7404 18.9426 14.7392 18.9422 14.738C18.9419 14.7373 18.9417 14.7366 18.9413 14.736L18.9409 14.735C18.9068 14.6834 18.8711 14.6335 18.834 14.5853C18.8122 14.5569 18.8228 14.5151 18.8559 14.5016L18.8578 14.5006C18.8768 14.4929 18.8965 14.4849 18.9155 14.4772ZM17.851 19.569C17.5177 19.5874 17.3177 19.9133 17.2846 20.2164C17.2625 20.5252 17.2752 20.8356 17.2616 21.1454C17.2582 21.2224 17.2565 21.2608 17.2692 21.2886C17.2806 21.3136 17.2985 21.333 17.3224 21.3464C17.3491 21.3613 17.3855 21.3627 17.4585 21.3654C17.7159 21.375 17.9736 21.3789 18.2311 21.3825C18.3213 21.3838 18.3663 21.3844 18.3953 21.3687C18.4227 21.3539 18.44 21.3349 18.452 21.3061C18.4647 21.2757 18.459 21.2267 18.4478 21.1289C18.4051 20.7577 18.4443 20.3872 18.3959 20.0143C18.3657 19.7452 18.1216 19.5435 17.851 19.569Z" fill="#AFB1B3"/>
</svg>
