<svg width="35" height="35" viewBox="0 0 35 35" fill="none" xmlns="http://www.w3.org/2000/svg">
<path d="M11.9908 8.56166C13.2746 8.04272 14.6978 7.86937 16.0436 8.15346C16.9572 8.39609 17.9119 8.86716 18.6333 9.57815C18.6339 9.57879 18.635 9.57894 18.6359 9.57875C18.6368 9.57856 18.6378 9.57871 18.6384 9.57935C18.8473 9.78541 19.0371 10.0111 19.1998 10.2579C19.3365 10.468 19.4667 10.6793 19.5934 10.8908C19.63 10.9518 19.6664 11.0129 19.7018 11.0744C19.928 11.4673 20.1307 11.8684 20.2832 12.2973C20.2836 12.2983 20.2832 12.2994 20.2824 12.2999C20.2815 12.3005 20.2811 12.3016 20.2815 12.3026C20.4069 12.6563 20.5007 13.0277 20.5494 13.4269C20.6621 14.5519 20.7488 15.8191 20.2018 16.8292C20.0251 17.1663 19.8219 17.4886 19.601 17.7969C19.6006 17.7975 19.6006 17.7984 19.6012 17.799C19.6018 17.7995 19.6018 17.8004 19.6014 17.8011C19.4626 17.9945 19.3137 18.1798 19.1617 18.3615C19.1296 18.4 19.0978 18.4387 19.0651 18.4767C19.0016 18.5504 18.9369 18.6228 18.8717 18.6945C18.8522 18.716 18.8328 18.7376 18.8131 18.7589C18.7604 18.8159 18.7075 18.8725 18.6542 18.9284C18.6461 18.9369 18.642 18.9412 18.641 18.9423C18.4953 19.0986 18.5624 19.3465 18.767 19.4081C18.7684 19.4085 18.7716 19.4094 18.778 19.4113C18.9511 19.4613 19.1241 19.5139 19.2965 19.5685C19.3539 19.5867 19.4114 19.6049 19.4684 19.6242C19.6072 19.6711 19.7445 19.7218 19.8795 19.7785C19.8935 19.7843 19.9076 19.79 19.9215 19.796C20.0722 19.8609 20.2203 19.9324 20.3629 20.0158C20.3778 20.0245 20.3931 20.0332 20.4078 20.0421C20.4978 20.0986 20.5855 20.1603 20.6725 20.2238C20.6809 20.23 20.6895 20.2361 20.6979 20.2423C20.8619 20.3637 21.0207 20.4957 21.1694 20.6387C21.1701 20.6394 21.1703 20.6404 21.17 20.6413C21.1697 20.6421 21.17 20.6431 21.1707 20.6438C21.2642 20.7339 21.3544 20.8276 21.4401 20.9249C22.1365 21.7684 22.4761 22.8063 22.6393 23.9162C22.8141 24.7057 22.5172 25.589 22.3078 26.3926C22.2763 26.5135 22.2606 26.574 22.2279 26.6182C22.1991 26.6571 22.1605 26.6882 22.1164 26.7082C22.0663 26.7308 22.0088 26.7332 21.8937 26.738C21.5334 26.7531 21.1734 26.7488 20.8123 26.741C20.7391 26.7394 20.7025 26.7387 20.6703 26.7303C20.6398 26.7223 20.6163 26.7121 20.5897 26.6952C20.5616 26.6774 20.533 26.648 20.4759 26.5894C20.2054 26.3116 19.8959 26.0641 19.6634 25.7539C19.6522 25.7391 19.6467 25.7317 19.6398 25.7205C19.6347 25.7121 19.6274 25.6985 19.6234 25.6896C19.6179 25.6777 19.6148 25.6687 19.6085 25.6507C19.3337 24.8626 19.386 23.8441 19.0123 23.088C18.8561 22.7648 18.5984 22.5212 18.2594 22.4757C18.1818 22.4653 18.1044 22.4518 18.027 22.4406C17.8322 22.4124 17.6372 22.3838 17.443 22.3537C17.112 22.3022 16.7813 22.2516 16.4489 22.2101C16.3683 22.2 16.2876 22.1904 16.2068 22.1815C16.1044 22.1703 16.0532 22.1647 16.009 22.1432C15.9716 22.125 15.9346 22.0951 15.909 22.0623C15.8788 22.0235 15.8646 21.9805 15.8361 21.8945C15.7569 21.6549 15.6935 21.4146 15.5924 21.1876C15.5833 21.1673 15.5738 21.1472 15.5641 21.1271C15.5412 21.0797 15.5167 21.0328 15.4898 20.9867C15.4503 20.9192 15.4306 20.8854 15.422 20.8621C15.4128 20.8373 15.4097 20.8242 15.4065 20.798C15.4035 20.7733 15.405 20.7435 15.4082 20.6838C15.4558 19.7882 15.4713 18.8837 15.5709 17.9953C15.594 17.6066 15.8952 17.4988 16.1354 17.2804C16.596 16.9244 16.8628 16.3568 17.0914 15.8078C17.5865 14.8066 17.3399 13.4952 16.7047 12.5978C16.601 12.4514 16.4868 12.3167 16.3639 12.1954C16.3081 12.1403 16.2513 12.0872 16.192 12.0382C15.7507 11.6443 15.21 11.6734 14.6744 11.5421C13.8759 11.3452 12.9683 11.2433 12.2467 11.757C11.818 12.0638 11.3405 12.3456 10.9762 12.7433C10.504 13.3215 10.0752 13.9468 9.87757 14.7042C9.73069 15.2117 9.91576 15.8153 10.0387 16.3126C10.2812 17.2216 10.8297 17.886 11.4147 18.5538C11.7157 18.8959 12.0979 19.1966 12.2369 19.6662C12.4915 20.3855 12.2746 21.2218 12.3018 22.0143C12.3043 22.0871 12.3055 22.1234 12.3005 22.1525C12.2957 22.1801 12.2887 22.2017 12.2766 22.2269C12.2638 22.2535 12.2444 22.2787 12.2055 22.3292C11.9936 22.6046 11.7816 22.8563 11.4674 23.0099C10.3855 23.5553 9.4086 23.4457 8.25398 23.689C8.16766 23.7072 8.1245 23.7163 8.08497 23.7393C8.05105 23.759 8.01909 23.7882 7.99634 23.8202C7.96983 23.8574 7.95578 23.903 7.92769 23.9941C7.66673 24.8403 7.34565 25.722 6.86096 26.4328C6.53453 26.9009 5.84434 27.1655 5.36292 26.84C4.89527 26.6014 4.45036 26.5333 4.08264 26.1017C3.77471 25.747 3.37005 25.1953 3.5387 24.674C3.70417 23.8433 4.0248 23.1447 4.31897 22.3595C4.55572 21.7547 4.91773 21.0422 5.44983 20.7013C6.00605 20.4324 6.61631 20.2711 7.22425 20.2433C7.47068 20.2333 7.70947 20.1968 7.94608 20.1497C8.26301 20.0866 8.42147 20.0551 8.48434 19.9862C8.54406 19.9209 8.56642 19.8529 8.55713 19.7648C8.54735 19.6721 8.42404 19.5368 8.17741 19.2663C8.07409 19.1529 7.97706 19.0315 7.88831 18.8986C7.32176 18.0716 7.06075 16.9679 6.92054 15.9591C6.73206 14.6725 6.99352 13.3707 7.4762 12.1964C7.852 11.2924 8.4746 10.6201 9.18714 10.0304C10.0282 9.34631 11.0189 8.95927 11.9908 8.56166ZM20.8004 8.56166C22.0841 8.04272 23.5074 7.86937 24.8532 8.15346C26.0322 8.46661 27.2813 9.15836 28.0065 10.2579C28.6442 11.2376 29.2095 12.2036 29.359 13.4269C29.4716 14.5519 29.5574 15.8191 29.0104 16.8292C28.6027 17.6071 28.0595 18.3103 27.4625 18.9301C27.4557 18.9372 27.4522 18.9408 27.4512 18.9419C27.3046 19.0973 27.3715 19.3472 27.5761 19.4088C27.5775 19.4092 27.5799 19.4099 27.5846 19.4113C28.1442 19.5731 28.7107 19.7373 29.2145 20.0421C29.5925 20.2795 29.9474 20.5815 30.2496 20.9249C30.9461 21.7684 31.2857 22.8063 31.4489 23.9162C31.6011 24.6038 31.3948 25.363 31.2008 26.0783C31.1721 26.1841 31.1436 26.289 31.1166 26.3925C31.0849 26.5136 31.0691 26.5742 31.0364 26.6183C31.0076 26.6572 30.9691 26.6883 30.925 26.7082C30.8749 26.7308 30.8174 26.7332 30.7023 26.738C30.3423 26.7531 29.9827 26.7488 29.6219 26.741C29.5487 26.7394 29.5121 26.7387 29.4799 26.7303C29.4494 26.7223 29.4259 26.7121 29.3993 26.6952C29.3712 26.6774 29.3426 26.648 29.2854 26.5894C29.1956 26.4972 29.1015 26.4083 29.0074 26.3195C28.8178 26.1404 28.6275 25.9612 28.472 25.7539C28.4608 25.7391 28.4553 25.7317 28.4484 25.7205C28.4433 25.7122 28.436 25.6985 28.432 25.6896C28.4265 25.6777 28.4234 25.6687 28.4171 25.6506C28.2969 25.306 28.2392 24.917 28.1813 24.5255C28.1067 24.0217 28.0312 23.5134 27.8209 23.088C27.6647 22.7649 27.4078 22.5213 27.069 22.4757C26.7954 22.4389 26.5227 22.3959 26.2506 22.3537C25.84 22.2898 25.4293 22.2261 25.0155 22.1812C24.9133 22.1702 24.8622 22.1646 24.8178 22.1431C24.7804 22.125 24.7431 22.0949 24.7176 22.062C24.6873 22.0231 24.6732 21.9802 24.6449 21.8944C24.623 21.8277 24.6023 21.761 24.5817 21.6945C24.506 21.4501 24.4319 21.2087 24.3 20.9863C24.2606 20.9199 24.2409 20.8866 24.2321 20.8631C24.2228 20.8384 24.2194 20.8247 24.2161 20.7984C24.213 20.7735 24.2146 20.7436 24.2177 20.6838C24.2307 20.4372 24.2409 20.1899 24.2516 19.9425C24.2798 19.2914 24.3083 18.6391 24.3805 17.9953C24.398 17.7009 24.5751 17.568 24.7643 17.4259C24.8248 17.3804 24.8867 17.3333 24.9449 17.2804C25.4055 16.9244 25.6724 16.3568 25.901 15.8078C26.5135 14.5692 25.991 12.8552 25.0016 12.0382C24.6788 11.7501 24.3027 11.688 23.9147 11.6242C23.7723 11.6007 23.6277 11.5774 23.484 11.5421C23.1388 11.457 22.7732 11.3894 22.411 11.3816C22.2699 11.3786 22.1993 11.3771 22.1536 11.3598C22.1075 11.3423 22.081 11.3246 22.0473 11.2887C22.0138 11.253 21.988 11.1942 21.9363 11.0765C21.6147 10.3439 21.2192 9.71578 20.8658 9.17299L20.86 9.16322C20.7808 9.04321 20.6979 8.92729 20.6118 8.81515C20.5602 8.74802 20.5853 8.64931 20.6637 8.61732C20.7093 8.59873 20.7549 8.58027 20.8004 8.56166Z" fill="#AFB1B3"/>
</svg>
