<svg width="35" height="35" viewBox="0 0 35 35" fill="none" xmlns="http://www.w3.org/2000/svg">
<mask id="path-3-outside-1_1990_7808" maskUnits="userSpaceOnUse" x="3.00098" y="6" width="28" height="23" fill="black">
<rect fill="white" x="3.00098" y="6" width="28" height="23"/>
<path d="M5.94188 9.11986C7.01206 8.38523 10.1676 7.68319 12.2554 8.15111C12.2682 8.15395 12.2814 8.15682 12.2944 8.1599C12.4528 8.19675 12.6052 8.23968 12.7495 8.29076C12.7599 8.2997 12.7704 8.30924 12.7807 8.31811C13.4714 8.59069 14.2031 9.06227 14.4643 9.32299C15.0688 9.98664 15.679 10.6453 16.2876 11.3054C16.4438 11.3027 16.6002 11.302 16.7563 11.2986V11.2976H16.769C18.2768 11.2114 19.8107 11.2682 21.3237 11.2478H21.353V11.2488C21.8392 11.2366 22.3354 11.2561 22.8276 11.3025C23.6894 11.2827 24.7329 11.309 26.021 11.3845C29.0834 11.5642 28.5447 13.3392 28.7036 14.2624C28.6019 19.1512 30.7108 26.1097 24.978 26.6355C24.4864 26.6806 23.9809 26.7012 23.478 26.7058C23.2793 26.7264 23.0816 26.7368 22.8823 26.74C22.5369 26.7456 22.1551 26.7347 21.7798 26.7449L21.77 26.7468H21.7124C21.1334 26.7703 20.5572 26.7988 19.979 26.8054L19.3911 26.8035L11.7573 26.8103V26.8113L11.6616 26.8122C11.4432 26.8133 11.2234 26.8088 11.0034 26.8025C8.26245 26.8898 5.17611 25.9521 5.01414 23.1892C4.99249 21.434 4.99974 19.9983 5.02 18.7468C4.99177 18.3646 4.99676 17.9813 5.04148 17.5994C5.10023 15.1651 5.20187 13.364 5.21043 10.904C5.25105 10.3232 5.25106 9.66738 5.94188 9.11986Z"/>
</mask>
<path d="M5.94188 9.11986L5.09296 7.8832L5.05052 7.91233L5.01017 7.94431L5.94188 9.11986ZM12.2554 8.15111L11.9273 9.61481L11.9331 9.61609L12.2554 8.15111ZM12.2944 8.1599L11.9486 9.61951L11.9544 9.62087L12.2944 8.1599ZM12.7495 8.29076L13.727 7.15301L13.5144 6.97034L13.2501 6.87678L12.7495 8.29076ZM12.7807 8.31811L11.803 9.45568L11.9948 9.62052L12.2301 9.71337L12.7807 8.31811ZM14.4643 9.32299L15.5733 8.31291L15.5493 8.28654L15.524 8.26135L14.4643 9.32299ZM16.2876 11.3054L15.1848 12.3222L15.6407 12.8167L16.3132 12.8052L16.2876 11.3054ZM16.7563 11.2986L16.7888 12.7982L18.2563 12.7664V11.2986H16.7563ZM16.7563 11.2976V9.7976H15.2563V11.2976H16.7563ZM16.769 11.2976V12.7976H16.8119L16.8546 12.7952L16.769 11.2976ZM21.3237 11.2478V9.74779H21.3136L21.3035 9.74793L21.3237 11.2478ZM21.353 11.2478H22.853V9.74779H21.353V11.2478ZM21.353 11.2488H19.853V12.7867L21.3905 12.7483L21.353 11.2488ZM22.8276 11.3025L22.6868 12.7959L22.7743 12.8041L22.8621 12.8021L22.8276 11.3025ZM26.021 11.3845L26.1088 9.88709L26.1088 9.88708L26.021 11.3845ZM28.7036 14.2624L30.2033 14.2936L30.2063 14.1498L30.1819 14.008L28.7036 14.2624ZM24.978 26.6355L25.1149 28.1292L25.115 28.1292L24.978 26.6355ZM23.478 26.7058L23.4644 25.2059L23.3938 25.2065L23.3237 25.2138L23.478 26.7058ZM22.8823 26.74L22.9065 28.2398L22.9066 28.2398L22.8823 26.74ZM21.7798 26.7449L21.7391 25.2454L21.6111 25.2489L21.4856 25.274L21.7798 26.7449ZM21.77 26.7468V28.2468H21.9185L22.0642 28.2177L21.77 26.7468ZM21.7124 26.7468V25.2468H21.682L21.6516 25.2481L21.7124 26.7468ZM19.979 26.8054L19.974 28.3054L19.9851 28.3054L19.9962 28.3053L19.979 26.8054ZM19.3911 26.8035L19.3961 25.3035L19.3898 25.3035L19.3911 26.8035ZM11.7573 26.8103L11.756 25.3103L10.2573 25.3116V26.8103H11.7573ZM11.7573 26.8113L11.7726 28.3112L13.2573 28.296V26.8113H11.7573ZM11.6616 26.8122L11.6686 28.3123L11.6769 28.3122L11.6616 26.8122ZM11.0034 26.8025L11.0464 25.3031L11.001 25.3018L10.9556 25.3032L11.0034 26.8025ZM5.01414 23.1892L3.51425 23.2077L3.51468 23.2424L3.51671 23.277L5.01414 23.1892ZM5.02 18.7468L6.5198 18.7711L6.5209 18.7036L6.51593 18.6363L5.02 18.7468ZM5.04148 17.5994L6.53131 17.7738L6.53937 17.7049L6.54105 17.6355L5.04148 17.5994ZM5.21043 10.904L3.71408 10.7994L3.71061 10.849L3.71044 10.8988L5.21043 10.904ZM5.94188 9.11986L6.79079 10.3565C7.05927 10.1722 7.86155 9.85865 8.97768 9.66171C10.059 9.47092 11.1515 9.44091 11.9273 9.6148L12.2554 8.15111L12.5834 6.68743C11.2715 6.3934 9.74233 6.48045 8.45639 6.70735C7.20526 6.92811 5.89466 7.33287 5.09296 7.8832L5.94188 9.11986ZM12.2554 8.15111L11.9331 9.61609C11.9373 9.61701 11.9393 9.61745 11.9423 9.61811C11.9448 9.61867 11.9466 9.61906 11.948 9.61937C11.9508 9.62001 11.9506 9.61997 11.9486 9.6195L12.2944 8.1599L12.6402 6.7003C12.6127 6.69379 12.5859 6.68796 12.5776 6.68614L12.2554 8.15111ZM12.2944 8.1599L11.9544 9.62087C12.0704 9.64786 12.1677 9.67601 12.2488 9.70475L12.7495 8.29076L13.2501 6.87678C13.0428 6.80335 12.8351 6.74565 12.6344 6.69894L12.2944 8.1599ZM12.7495 8.29076L11.772 9.42852C11.7696 9.42643 11.7681 9.42519 11.7684 9.4254C11.7688 9.42577 11.7696 9.42643 11.7724 9.42898C11.7747 9.43098 11.7792 9.43491 11.7839 9.43906C11.7888 9.44338 11.7954 9.44914 11.803 9.45568L12.7807 8.31811L13.7585 7.18054C13.7609 7.18264 13.7623 7.18388 13.762 7.18364C13.7616 7.18323 13.7608 7.18256 13.7578 7.17994C13.7555 7.17788 13.751 7.17393 13.7462 7.16972C13.7413 7.16535 13.7346 7.15956 13.727 7.15301L12.7495 8.29076ZM12.7807 8.31811L12.2301 9.71337C12.4784 9.81138 12.7561 9.95497 13.0012 10.1048C13.1215 10.1784 13.2236 10.2471 13.3013 10.304C13.3868 10.3667 13.4146 10.3945 13.4047 10.3846L14.4643 9.32299L15.524 8.26135C15.2684 8.00622 14.9018 7.75051 14.5659 7.54517C14.2072 7.32591 13.7737 7.09742 13.3314 6.92285L12.7807 8.31811ZM14.4643 9.32299L13.3554 10.3331C13.9639 11.0012 14.5794 11.6656 15.1848 12.3222L16.2876 11.3054L17.3904 10.2887C16.7786 9.62505 16.1737 8.97212 15.5733 8.31291L14.4643 9.32299ZM16.2876 11.3054L16.3132 12.8052C16.4351 12.8031 16.6384 12.8015 16.7888 12.7982L16.7563 11.2986L16.7238 9.79893C16.5621 9.80243 16.4526 9.80238 16.262 9.80563L16.2876 11.3054ZM16.7563 11.2986H18.2563V11.2976H16.7563H15.2563V11.2986H16.7563ZM16.7563 11.2976V12.7976H16.769V11.2976V9.7976H16.7563V11.2976ZM16.769 11.2976L16.8546 12.7952C18.3286 12.7109 19.719 12.7695 21.3439 12.7477L21.3237 11.2478L21.3035 9.74793C19.9023 9.76681 18.225 9.71191 16.6834 9.80004L16.769 11.2976ZM21.3237 11.2478V12.7478H21.353V11.2478V9.74779H21.3237V11.2478ZM21.353 11.2478H19.853V11.2488H21.353H22.853V11.2478H21.353ZM21.353 11.2488L21.3905 12.7483C21.8121 12.7378 22.2486 12.7545 22.6868 12.7959L22.8276 11.3025L22.9684 9.8091C22.4222 9.75762 21.8663 9.73548 21.3156 9.74924L21.353 11.2488ZM22.8276 11.3025L22.8621 12.8021C23.669 12.7835 24.6688 12.8078 25.9332 12.8819L26.021 11.3845L26.1088 9.88708C24.797 9.81018 23.7097 9.78181 22.7932 9.80288L22.8276 11.3025ZM26.021 11.3845L25.9331 12.8819C26.5662 12.9191 26.8717 13.0325 26.9984 13.1008C27.0565 13.132 27.0763 13.1532 27.0786 13.1557C27.0807 13.158 27.0834 13.1606 27.0888 13.1724C27.1067 13.2113 27.1354 13.3055 27.1513 13.5471C27.1601 13.6808 27.1615 13.7721 27.17 13.9516C27.1769 14.0981 27.1888 14.3046 27.2253 14.5168L28.7036 14.2624L30.1819 14.008C30.1588 13.8739 30.1768 13.835 30.1448 13.35C30.1213 12.9934 30.0635 12.4596 29.8134 11.9169C29.2206 10.6303 27.9282 9.99381 26.1088 9.88709L26.021 11.3845ZM28.7036 14.2624L27.2039 14.2312C27.1767 15.5395 27.2973 16.9795 27.3884 18.2884C27.4827 19.6437 27.5479 20.8811 27.4577 21.9601C27.3666 23.0496 27.1291 23.7879 26.7701 24.2602C26.4593 24.6692 25.9347 25.0415 24.841 25.1418L24.978 26.6355L25.115 28.1292C26.8877 27.9666 28.2493 27.2719 29.1586 26.0755C30.0197 24.9424 30.3363 23.5371 30.4472 22.2101C30.5591 20.8726 30.4744 19.4209 30.3811 18.0801C30.2846 16.6928 30.1796 15.4297 30.2033 14.2936L28.7036 14.2624ZM24.978 26.6355L24.8411 25.1418C24.3997 25.1822 23.9365 25.2016 23.4644 25.2059L23.478 26.7058L23.4916 28.2057C24.0253 28.2009 24.5732 28.1789 25.1149 28.1292L24.978 26.6355ZM23.478 26.7058L23.3237 25.2138C23.1749 25.2292 23.0212 25.2375 22.858 25.2402L22.8823 26.74L22.9066 28.2398C23.142 28.236 23.3836 28.2236 23.6324 28.1978L23.478 26.7058ZM22.8823 26.74L22.8581 25.2402C22.7045 25.2427 22.5423 25.2415 22.3483 25.2407C22.1621 25.24 21.9523 25.2396 21.7391 25.2454L21.7798 26.7449L21.8204 28.2443C21.9826 28.2399 22.1513 28.2399 22.3362 28.2407C22.5133 28.2414 22.7147 28.2429 22.9065 28.2398L22.8823 26.74ZM21.7798 26.7449L21.4856 25.274L21.4758 25.2759L21.77 26.7468L22.0642 28.2177L22.0739 28.2157L21.7798 26.7449ZM21.77 26.7468V25.2468H21.7124V26.7468V28.2468H21.77V26.7468ZM21.7124 26.7468L21.6516 25.2481C21.0545 25.2723 20.5115 25.2992 19.9617 25.3055L19.979 26.8054L19.9962 28.3053C20.6029 28.2983 21.2123 28.2683 21.7732 28.2456L21.7124 26.7468ZM19.979 26.8054L19.984 25.3054L19.3961 25.3035L19.3911 26.8035L19.3861 28.3034L19.974 28.3054L19.979 26.8054ZM19.3911 26.8035L19.3898 25.3035L11.756 25.3103L11.7573 26.8103L11.7586 28.3103L19.3924 28.3035L19.3911 26.8035ZM11.7573 26.8103H10.2573V26.8113H11.7573H13.2573V26.8103H11.7573ZM11.7573 26.8113L11.742 25.3113L11.6463 25.3123L11.6616 26.8122L11.6769 28.3122L11.7726 28.3112L11.7573 26.8113ZM11.6616 26.8122L11.6546 25.3123C11.4602 25.3132 11.2592 25.3092 11.0464 25.3031L11.0034 26.8025L10.9604 28.3019C11.1876 28.3084 11.4262 28.3134 11.6686 28.3122L11.6616 26.8122ZM11.0034 26.8025L10.9556 25.3032C9.73884 25.342 8.55302 25.1445 7.71403 24.7238C6.92988 24.3306 6.55357 23.8179 6.51157 23.1014L5.01414 23.1892L3.51671 23.277C3.63667 25.3234 4.88452 26.661 6.36927 27.4055C7.79918 28.1226 9.527 28.3503 11.0512 28.3017L11.0034 26.8025ZM5.01414 23.1892L6.51403 23.1707C6.49256 21.4304 6.49976 20.009 6.5198 18.7711L5.02 18.7468L3.5202 18.7225C3.49972 19.9877 3.49242 21.4377 3.51425 23.2077L5.01414 23.1892ZM5.02 18.7468L6.51593 18.6363C6.49409 18.3406 6.4986 18.0531 6.53131 17.7738L5.04148 17.5994L3.55166 17.4249C3.49493 17.9095 3.48946 18.3885 3.52407 18.8573L5.02 18.7468ZM5.04148 17.5994L6.54105 17.6355C6.59842 15.2585 6.70181 13.3841 6.71042 10.9093L5.21043 10.904L3.71044 10.8988C3.70193 13.3438 3.60205 15.0717 3.54192 17.5632L5.04148 17.5994ZM5.21043 10.904L6.70677 11.0087C6.71954 10.8261 6.72357 10.7329 6.73591 10.6195C6.74655 10.5216 6.75861 10.4654 6.76916 10.4302C6.77832 10.3996 6.78614 10.3857 6.79223 10.3765C6.7981 10.3677 6.81797 10.3395 6.87358 10.2954L5.94188 9.11986L5.01017 7.94431C3.73168 8.95759 3.74823 10.3111 3.71408 10.7994L5.21043 10.904Z" fill="#AFB1B3" mask="url(#path-3-outside-1_1990_7808)"/>
<path d="M15.1392 15.6686C15.6893 15.4462 16.2997 15.3721 16.8765 15.4938C17.2679 15.5978 17.676 15.8008 17.9851 16.1054C17.9855 16.1058 17.9862 16.1059 17.9868 16.1056C17.9874 16.1053 17.9881 16.1055 17.9886 16.1059C18.0173 16.1343 18.0439 16.1648 18.0708 16.195C18.0815 16.207 18.0936 16.2178 18.104 16.2301C18.1486 16.2829 18.1907 16.3381 18.229 16.3962C18.2911 16.4916 18.3495 16.588 18.4067 16.6842C18.4195 16.7057 18.4324 16.7271 18.4448 16.7487C18.4662 16.7859 18.4871 16.8233 18.5073 16.861C18.5125 16.8708 18.5178 16.8805 18.5229 16.8903C18.5563 16.9538 18.5876 17.0181 18.6167 17.0837C18.6376 17.1308 18.657 17.1787 18.6753 17.2272C18.6807 17.2415 18.6871 17.2553 18.6923 17.2697C18.6926 17.2705 18.6922 17.2714 18.6914 17.2716C18.6906 17.2719 18.6902 17.2728 18.6905 17.2736C18.7442 17.4251 18.7862 17.5836 18.8071 17.7546C18.8554 18.2367 18.8921 18.7797 18.6577 19.2126C18.5827 19.3557 18.4933 19.4904 18.3996 19.6214C18.3986 19.6228 18.3986 19.6246 18.3994 19.6261C18.4002 19.6276 18.4002 19.6295 18.3992 19.6309C18.2761 19.8024 18.1394 19.9632 17.9954 20.1127C17.9925 20.1158 17.991 20.1173 17.9907 20.1176C17.9274 20.1843 17.9562 20.2919 18.0443 20.3181C18.0447 20.3182 18.0456 20.3185 18.0474 20.319C18.0672 20.3247 18.0871 20.3318 18.1069 20.3376C18.1841 20.36 18.2612 20.3832 18.3374 20.4089C18.4279 20.4393 18.5168 20.4734 18.603 20.5143C18.6301 20.5272 18.6567 20.541 18.6831 20.5553C18.6975 20.5632 18.7128 20.5695 18.727 20.5778C18.7335 20.5815 18.7402 20.5857 18.7466 20.5895C18.7557 20.5952 18.7639 20.6022 18.7729 20.6081C18.8124 20.6338 18.8511 20.6612 18.8892 20.6901C18.9083 20.7046 18.9271 20.7197 18.9458 20.735C18.974 20.7581 19.0018 20.7817 19.0288 20.8063C19.043 20.8192 19.058 20.8313 19.072 20.8446C19.0724 20.8451 19.0726 20.8458 19.0723 20.8464C19.072 20.8469 19.0721 20.8476 19.0726 20.8481C19.1126 20.8867 19.1523 20.9258 19.189 20.9674C19.4874 21.3289 19.6327 21.774 19.7026 22.2497C19.7775 22.588 19.6499 22.9669 19.56 23.3114C19.5465 23.3633 19.5398 23.3892 19.5257 23.4081C19.5134 23.4248 19.4969 23.4381 19.478 23.4467C19.4565 23.4563 19.4318 23.4574 19.3825 23.4594C19.2282 23.4659 19.074 23.4639 18.9194 23.4606C18.888 23.4599 18.8723 23.4596 18.8585 23.456C18.8454 23.4526 18.8353 23.4482 18.8239 23.441C18.8119 23.4333 18.7996 23.4207 18.7752 23.3956C18.6594 23.2766 18.5272 23.1705 18.4275 23.0377C18.4228 23.0314 18.4204 23.0282 18.4174 23.0234C18.4152 23.0198 18.4121 23.014 18.4104 23.0101C18.408 23.005 18.4067 23.0012 18.404 22.9934C18.2862 22.6556 18.3082 22.2182 18.1479 21.8942C18.081 21.7559 17.9708 21.652 17.8257 21.6325C17.7087 21.6167 17.5924 21.5978 17.4761 21.5798C17.2672 21.5473 17.0583 21.5156 16.8472 21.4967C16.8352 21.4957 16.8247 21.4878 16.8203 21.4766C16.7912 21.4027 16.7698 21.3275 16.7466 21.2536C16.7156 21.1553 16.681 21.0599 16.6235 20.9714C16.6084 20.948 16.601 20.92 16.6025 20.8922C16.6241 20.4994 16.6297 20.1024 16.6733 19.7126C16.6832 19.5459 16.8126 19.4995 16.9155 19.4059C17.113 19.2533 17.2277 19.0094 17.3257 18.7741C17.5702 18.2789 17.3912 17.6072 17.022 17.235C17.0158 17.2288 17.0097 17.2225 17.0034 17.2165C16.9827 17.1965 16.9618 17.1769 16.9399 17.1589C16.7509 16.9901 16.519 17.0032 16.2895 16.9469C15.9472 16.8625 15.5578 16.8185 15.2485 17.0387C15.0649 17.1702 14.8607 17.2912 14.7046 17.4616C14.5023 17.7093 14.3186 17.9769 14.2339 18.3014C14.1709 18.5189 14.2495 18.7777 14.3022 18.9909C14.4062 19.3805 14.6414 19.6656 14.8921 19.9518C15.0211 20.0984 15.1851 20.2272 15.2446 20.4284C15.3536 20.7366 15.2608 21.0948 15.2724 21.4343C15.2735 21.4655 15.274 21.4811 15.2719 21.4936C15.2698 21.5054 15.2668 21.5147 15.2616 21.5255C15.2561 21.5369 15.2478 21.5476 15.2312 21.5692C15.1403 21.6873 15.0492 21.7952 14.9145 21.861C14.451 22.0946 14.0326 22.0482 13.5379 22.1525C13.5009 22.1603 13.4824 22.1642 13.4655 22.174C13.4509 22.1825 13.4373 22.195 13.4275 22.2087C13.4161 22.2246 13.4101 22.2442 13.3981 22.2832C13.2862 22.6457 13.1485 23.0233 12.9409 23.3278C12.801 23.5286 12.5047 23.6422 12.2983 23.5026C12.0979 23.4004 11.9071 23.3712 11.7495 23.1862C11.6175 23.0341 11.4447 22.7973 11.5171 22.5739C11.588 22.2181 11.7251 21.919 11.8511 21.5827C11.9525 21.3236 12.1075 21.0179 12.3354 20.8717C12.5738 20.7565 12.8357 20.6874 13.0962 20.6755C13.2018 20.6712 13.3041 20.6556 13.4055 20.6355C13.5414 20.6086 13.6094 20.5951 13.6363 20.5656C13.662 20.5377 13.6716 20.5085 13.6676 20.4708C13.6635 20.4311 13.6107 20.373 13.505 20.2568C13.4609 20.2082 13.4194 20.1562 13.3813 20.0993C13.1385 19.7449 13.0264 19.2719 12.9663 18.8395C12.8855 18.2882 12.9978 17.7304 13.2046 17.2272C13.3656 16.8398 13.6326 16.5512 13.938 16.2985C14.2984 16.0054 14.7226 15.839 15.1392 15.6686ZM18.9145 15.6686C19.4645 15.4463 20.0743 15.3722 20.6509 15.4938C21.1561 15.628 21.6916 15.925 22.0024 16.3962C22.2758 16.8161 22.5185 17.2302 22.5825 17.7546C22.6308 18.2367 22.6675 18.7797 22.4331 19.2126C22.2584 19.5459 22.0256 19.8471 21.7698 20.1127C21.7669 20.1158 21.7654 20.1173 21.7651 20.1176C21.7018 20.1843 21.7306 20.2919 21.8187 20.3181C21.8191 20.3182 21.82 20.3185 21.8218 20.319C22.0616 20.3884 22.3051 20.4589 22.521 20.5895C22.6829 20.6912 22.8349 20.8204 22.9644 20.9674C23.2628 21.3289 23.4081 21.774 23.478 22.2497C23.5433 22.5444 23.4547 22.8699 23.3716 23.1764C23.3593 23.2218 23.347 23.2669 23.3354 23.3114C23.3219 23.3633 23.3152 23.3892 23.3011 23.4081C23.2888 23.4248 23.2723 23.4381 23.2534 23.4467C23.2319 23.4563 23.2072 23.4574 23.1579 23.4594C23.0036 23.4659 22.8494 23.4639 22.6948 23.4606C22.6634 23.4599 22.6477 23.4596 22.6339 23.456C22.6208 23.4526 22.6106 23.4481 22.5992 23.4409C22.5871 23.4332 22.575 23.4206 22.5507 23.3955C22.5124 23.356 22.4724 23.3179 22.4321 23.2799C22.351 23.2033 22.2695 23.1264 22.2029 23.0377C22.1982 23.0314 22.1958 23.0282 22.1928 23.0234C22.1906 23.0198 22.1875 23.014 22.1858 23.0102C22.1834 23.005 22.1821 23.0012 22.1794 22.9934C22.1278 22.8458 22.1025 22.6791 22.0776 22.5114C22.0457 22.2954 22.0135 22.0765 21.9233 21.8942C21.8564 21.7559 21.7461 21.652 21.6011 21.6325C21.4838 21.6167 21.3671 21.5979 21.2505 21.5798C21.0745 21.5524 20.8985 21.5254 20.7211 21.5062C20.6774 21.5015 20.6556 21.4992 20.6365 21.4899C20.6205 21.4821 20.6044 21.4691 20.5935 21.455C20.5805 21.4383 20.5745 21.4199 20.5626 21.3833C20.5533 21.3547 20.5445 21.326 20.5356 21.2975C20.5032 21.1929 20.4712 21.0894 20.4146 20.9941C20.3978 20.9657 20.3893 20.9515 20.3855 20.9414C20.3816 20.9308 20.3801 20.9249 20.3787 20.9137C20.3774 20.903 20.378 20.8902 20.3794 20.8646C20.385 20.7588 20.3894 20.6526 20.394 20.5465C20.4061 20.2677 20.4178 19.9883 20.4487 19.7126C20.4562 19.5863 20.5327 19.5294 20.6138 19.4684C20.6397 19.449 20.666 19.4286 20.6909 19.4059C20.8883 19.2533 21.0021 19.0094 21.1001 18.7741C21.3625 18.2433 21.1393 17.509 20.7153 17.1589C20.5771 17.0354 20.4157 17.0094 20.2495 16.9821C20.1886 16.9721 20.1264 16.962 20.0649 16.9469C19.917 16.9104 19.7599 16.8815 19.6045 16.8783C19.5441 16.877 19.5138 16.8763 19.4942 16.8689C19.4745 16.8614 19.4631 16.8538 19.4486 16.8384C19.4343 16.8232 19.4232 16.7979 19.4011 16.7475C19.2634 16.4334 19.0943 16.164 18.9429 15.9313L18.9427 15.9309C18.9421 15.9299 18.9415 15.929 18.9407 15.9282C18.9402 15.9277 18.9397 15.9271 18.9394 15.9265C18.9056 15.8753 18.8702 15.8255 18.8335 15.7775C18.8116 15.7487 18.8224 15.7067 18.856 15.693C18.8755 15.685 18.895 15.6766 18.9145 15.6686Z" fill="#AFB1B3"/>
</svg>
