<svg width="35" height="35" viewBox="0 0 35 35" fill="none" xmlns="http://www.w3.org/2000/svg">
<mask id="path-3-outside-1_1990_7767" maskUnits="userSpaceOnUse" x="3.00098" y="6" width="28" height="23" fill="black">
<rect fill="white" x="3.00098" y="6" width="28" height="23"/>
<path d="M5.94188 9.11968C7.01362 8.38418 10.1757 7.68147 12.2632 8.15288C12.2712 8.15469 12.2795 8.15684 12.2876 8.15874C12.4485 8.19594 12.6031 8.23971 12.7495 8.29155C12.76 8.30059 12.7703 8.30994 12.7807 8.3189C13.4713 8.5915 14.2032 9.06211 14.4643 9.3228C15.0688 9.98647 15.679 10.6451 16.2876 11.3052C16.4438 11.3026 16.6002 11.3018 16.7563 11.2984V11.2974H16.769C18.2768 11.2112 19.8107 11.268 21.3237 11.2476H21.353V11.2486C21.8392 11.2364 22.3354 11.2559 22.8276 11.3023C23.6894 11.2825 24.7329 11.3098 26.021 11.3853C29.0831 11.5649 28.5449 13.3389 28.7036 14.2623C28.6018 19.151 30.7109 26.1095 24.978 26.6353C24.4835 26.6806 23.9751 26.7022 23.4692 26.7066C23.2734 26.7265 23.0786 26.7366 22.8823 26.7398C22.5369 26.7454 22.1551 26.7345 21.7798 26.7447L21.77 26.7466H21.7124C21.1334 26.7701 20.5572 26.7986 19.979 26.8052L19.3911 26.8033L11.7573 26.8101V26.8111L11.6616 26.8121C11.4432 26.8131 11.2234 26.8086 11.0034 26.8023C8.26247 26.8896 5.17619 25.9528 5.01415 23.19C4.99249 21.4344 4.99974 19.9984 5.02001 18.7466C4.99176 18.3643 4.99673 17.9812 5.04149 17.5992C5.10024 15.1653 5.20187 13.3644 5.21044 10.9048C5.25107 10.3239 5.25094 9.66726 5.94188 9.11968Z"/>
</mask>
<path d="M5.94188 9.11968L5.09313 7.8829L5.05062 7.91207L5.01022 7.94409L5.94188 9.11968ZM12.2632 8.15288L11.9328 9.61604L11.9353 9.61661L12.2632 8.15288ZM12.2876 8.15874L11.9457 9.61927L11.9497 9.62019L12.2876 8.15874ZM12.7495 8.29155L13.7269 7.15375L13.5144 6.97115L13.2502 6.87761L12.7495 8.29155ZM12.7807 8.3189L11.803 9.45646L11.9948 9.62128L12.23 9.71413L12.7807 8.3189ZM14.4643 9.3228L15.5733 8.31272L15.5493 8.28636L15.524 8.26116L14.4643 9.3228ZM16.2876 11.3052L15.1848 12.322L15.6407 12.8165L16.3132 12.805L16.2876 11.3052ZM16.7563 11.2984L16.7888 12.798L18.2563 12.7662V11.2984H16.7563ZM16.7563 11.2974V9.79741H15.2563V11.2974H16.7563ZM16.769 11.2974V12.7974H16.8119L16.8546 12.795L16.769 11.2974ZM21.3237 11.2476V9.74761H21.3136L21.3035 9.74775L21.3237 11.2476ZM21.353 11.2476H22.853V9.74761H21.353V11.2476ZM21.353 11.2486H19.853V12.7865L21.3905 12.7481L21.353 11.2486ZM22.8276 11.3023L22.6868 12.7957L22.7743 12.8039L22.8621 12.8019L22.8276 11.3023ZM26.021 11.3853L26.1088 9.88788L26.1088 9.88788L26.021 11.3853ZM28.7036 14.2623L30.2033 14.2935L30.2063 14.1498L30.1819 14.0081L28.7036 14.2623ZM24.978 26.6353L25.115 28.129L25.115 28.129L24.978 26.6353ZM23.4692 26.7066L23.4563 25.2066L23.3867 25.2073L23.3174 25.2143L23.4692 26.7066ZM22.8823 26.7398L22.9065 28.2396L22.9066 28.2396L22.8823 26.7398ZM21.7798 26.7447L21.7391 25.2452L21.6111 25.2487L21.4856 25.2738L21.7798 26.7447ZM21.77 26.7466V28.2466H21.9185L22.0642 28.2175L21.77 26.7466ZM21.7124 26.7466V25.2466H21.682L21.6516 25.2479L21.7124 26.7466ZM19.979 26.8052L19.974 28.3052L19.9851 28.3053L19.9963 28.3051L19.979 26.8052ZM19.3911 26.8033L19.3961 25.3033L19.3898 25.3033L19.3911 26.8033ZM11.7573 26.8101L11.756 25.3101L10.2573 25.3115V26.8101H11.7573ZM11.7573 26.8111L11.7726 28.311L13.2573 28.2959V26.8111H11.7573ZM11.6616 26.8121L11.6686 28.3121L11.6769 28.312L11.6616 26.8121ZM11.0034 26.8023L11.0464 25.3029L11.001 25.3016L10.9556 25.3031L11.0034 26.8023ZM5.01415 23.19L3.51426 23.2085L3.51469 23.2432L3.51672 23.2778L5.01415 23.19ZM5.02001 18.7466L6.51981 18.7709L6.5209 18.7034L6.51593 18.6361L5.02001 18.7466ZM5.04149 17.5992L6.5313 17.7737L6.53938 17.7048L6.54105 17.6354L5.04149 17.5992ZM5.21044 10.9048L3.71409 10.8002L3.71062 10.8498L3.71044 10.8996L5.21044 10.9048ZM5.94188 9.11968L6.79064 10.3565C7.05973 10.1718 7.86386 9.85776 8.98168 9.66097C10.0649 9.47028 11.158 9.44109 11.9328 9.61604L12.2632 8.15288L12.5936 6.68973C11.2808 6.39327 9.74917 6.47973 8.46154 6.70641C7.20853 6.927 5.89577 7.33208 5.09313 7.8829L5.94188 9.11968ZM12.2632 8.15288L11.9353 9.61661C11.9286 9.61511 11.9235 9.6139 11.9207 9.61325C11.9182 9.61263 11.9166 9.61224 11.9178 9.61254C11.9188 9.61279 11.9186 9.61274 11.9206 9.61322C11.9219 9.61354 11.9239 9.61403 11.9261 9.61458C11.9306 9.61566 11.9375 9.61734 11.9457 9.61927L12.2876 8.15874L12.6294 6.69821C12.6336 6.69919 12.6365 6.69989 12.6368 6.69998C12.637 6.70003 12.637 6.70002 12.6363 6.69984C12.6362 6.69981 12.6339 6.69927 12.6329 6.69901C12.63 6.69831 12.6244 6.69693 12.6178 6.69534C12.611 6.69372 12.6018 6.69156 12.591 6.68915L12.2632 8.15288ZM12.2876 8.15874L11.9497 9.62019C12.0653 9.64692 12.1645 9.67566 12.2487 9.7055L12.7495 8.29155L13.2502 6.87761C13.0417 6.80376 12.8316 6.74495 12.6255 6.6973L12.2876 8.15874ZM12.7495 8.29155L11.7721 9.42936C11.7697 9.42731 11.7683 9.42607 11.7684 9.42622C11.7688 9.42654 11.7695 9.42716 11.7724 9.42969C11.7746 9.43167 11.7791 9.43561 11.7838 9.43979C11.7888 9.44416 11.7954 9.44993 11.803 9.45646L12.7807 8.3189L13.7585 7.18133C13.7609 7.18339 13.7623 7.18462 13.7621 7.18444C13.7616 7.18406 13.7609 7.18343 13.758 7.18082C13.7556 7.17876 13.7511 7.17479 13.7463 7.17054C13.7412 7.16611 13.7346 7.16031 13.7269 7.15375L12.7495 8.29155ZM12.7807 8.3189L12.23 9.71413C12.4788 9.81235 12.7569 9.95596 13.002 10.1056C13.1223 10.1791 13.2243 10.2477 13.302 10.3045C13.3874 10.367 13.4149 10.3947 13.4047 10.3844L14.4643 9.3228L15.524 8.26116C15.268 8.00557 14.9008 7.74994 14.5651 7.54502C14.2064 7.32605 13.7732 7.09804 13.3315 6.92367L12.7807 8.3189ZM14.4643 9.3228L13.3554 10.3329C13.964 11.001 14.5794 11.6654 15.1848 12.322L16.2876 11.3052L17.3904 10.2885C16.7786 9.62485 16.1737 8.97195 15.5733 8.31272L14.4643 9.3228ZM16.2876 11.3052L16.3132 12.805C16.4351 12.8029 16.6384 12.8013 16.7888 12.798L16.7563 11.2984L16.7238 9.79874C16.5621 9.80225 16.4526 9.80219 16.262 9.80544L16.2876 11.3052ZM16.7563 11.2984H18.2563V11.2974H16.7563H15.2563V11.2984H16.7563ZM16.7563 11.2974V12.7974H16.769V11.2974V9.79741H16.7563V11.2974ZM16.769 11.2974L16.8546 12.795C18.3286 12.7107 19.719 12.7694 21.3439 12.7475L21.3237 11.2476L21.3035 9.74775C19.9024 9.76662 18.225 9.71173 16.6834 9.79986L16.769 11.2974ZM21.3237 11.2476V12.7476H21.353V11.2476V9.74761H21.3237V11.2476ZM21.353 11.2476H19.853V11.2486H21.353H22.853V11.2476H21.353ZM21.353 11.2486L21.3905 12.7481C21.8121 12.7376 22.2486 12.7544 22.6868 12.7957L22.8276 11.3023L22.9684 9.80892C22.4222 9.75743 21.8663 9.7353 21.3156 9.74905L21.353 11.2486ZM22.8276 11.3023L22.8621 12.8019C23.6683 12.7834 24.6677 12.8085 25.9332 12.8827L26.021 11.3853L26.1088 9.88788C24.7981 9.81104 23.7105 9.78162 22.7932 9.80269L22.8276 11.3023ZM26.021 11.3853L25.9331 12.8827C26.5662 12.9199 26.8718 13.0333 26.9986 13.1015C27.0567 13.1328 27.0765 13.154 27.0788 13.1565C27.0809 13.1587 27.0835 13.1613 27.0889 13.173C27.1067 13.2117 27.1354 13.3058 27.1513 13.5471C27.1601 13.6806 27.1616 13.7721 27.17 13.9514C27.1769 14.0978 27.1888 14.3043 27.2253 14.5164L28.7036 14.2623L30.1819 14.0081C30.1588 13.8736 30.1768 13.8349 30.1448 13.3498C30.1213 12.9932 30.0634 12.4595 29.8132 11.9168C29.2202 10.6306 27.9277 9.99457 26.1088 9.88788L26.021 11.3853ZM28.7036 14.2623L27.2039 14.231C27.1767 15.5393 27.2972 16.9794 27.3883 18.2882C27.4827 19.6435 27.5479 20.881 27.4577 21.9599C27.3666 23.0494 27.1291 23.7878 26.7701 24.26C26.4593 24.669 25.9348 25.0413 24.841 25.1416L24.978 26.6353L25.115 28.129C26.8877 27.9665 28.2493 27.2717 29.1586 26.0753C30.0198 24.9422 30.3363 23.5369 30.4473 22.2099C30.5591 20.8724 30.4744 19.4207 30.3811 18.0799C30.2845 16.6927 30.1796 15.4296 30.2033 14.2935L28.7036 14.2623ZM24.978 26.6353L24.8411 25.1416C24.3954 25.1824 23.9292 25.2026 23.4563 25.2066L23.4692 26.7066L23.4822 28.2065C24.021 28.2019 24.5716 28.1788 25.115 28.129L24.978 26.6353ZM23.4692 26.7066L23.3174 25.2143C23.1706 25.2292 23.0189 25.2374 22.858 25.24L22.8823 26.7398L22.9066 28.2396C23.1383 28.2358 23.3763 28.2238 23.621 28.1989L23.4692 26.7066ZM22.8823 26.7398L22.8581 25.24C22.7046 25.2425 22.5423 25.2413 22.3483 25.2405C22.1621 25.2398 21.9523 25.2395 21.7391 25.2452L21.7798 26.7447L21.8204 28.2441C21.9825 28.2397 22.1513 28.2398 22.3362 28.2405C22.5134 28.2412 22.7147 28.2427 22.9065 28.2396L22.8823 26.7398ZM21.7798 26.7447L21.4856 25.2738L21.4758 25.2758L21.77 26.7466L22.0642 28.2175L22.0739 28.2156L21.7798 26.7447ZM21.77 26.7466V25.2466H21.7124V26.7466V28.2466H21.77V26.7466ZM21.7124 26.7466L21.6516 25.2479C21.0545 25.2721 20.5115 25.299 19.9617 25.3053L19.979 26.8052L19.9963 28.3051C20.6029 28.2981 21.2124 28.2681 21.7732 28.2454L21.7124 26.7466ZM19.979 26.8052L19.984 25.3052L19.3961 25.3033L19.3911 26.8033L19.3861 28.3033L19.974 28.3052L19.979 26.8052ZM19.3911 26.8033L19.3898 25.3033L11.756 25.3101L11.7573 26.8101L11.7587 28.3101L19.3924 28.3033L19.3911 26.8033ZM11.7573 26.8101H10.2573V26.8111H11.7573H13.2573V26.8101H11.7573ZM11.7573 26.8111L11.742 25.3112L11.6463 25.3121L11.6616 26.8121L11.6769 28.312L11.7726 28.311L11.7573 26.8111ZM11.6616 26.8121L11.6546 25.3121C11.4602 25.313 11.2592 25.309 11.0464 25.3029L11.0034 26.8023L10.9604 28.3017C11.1876 28.3082 11.4262 28.3132 11.6686 28.312L11.6616 26.8121ZM11.0034 26.8023L10.9556 25.3031C9.73867 25.3418 8.55282 25.1445 7.71385 24.724C6.92979 24.331 6.55359 23.8186 6.51157 23.1022L5.01415 23.19L3.51672 23.2778C3.63675 25.3242 4.88471 26.6617 6.36953 27.4059C7.79944 28.1227 9.5272 28.3501 11.0512 28.3015L11.0034 26.8023ZM5.01415 23.19L6.51403 23.1715C6.49256 21.4308 6.49976 20.009 6.51981 18.7709L5.02001 18.7466L3.5202 18.7223C3.49971 19.9877 3.49242 21.4381 3.51426 23.2085L5.01415 23.19ZM5.02001 18.7466L6.51593 18.6361C6.49408 18.3403 6.49858 18.053 6.5313 17.7737L5.04149 17.5992L3.55168 17.4246C3.49489 17.9094 3.48945 18.3884 3.52408 18.8571L5.02001 18.7466ZM5.04149 17.5992L6.54105 17.6354C6.59842 15.2587 6.70181 13.3845 6.71043 10.9101L5.21044 10.9048L3.71044 10.8996C3.70193 13.3443 3.60206 15.0719 3.54193 17.563L5.04149 17.5992ZM5.21044 10.9048L6.70678 11.0095C6.71956 10.8268 6.72358 10.7335 6.73592 10.6199C6.74657 10.5219 6.75864 10.4655 6.76923 10.4301C6.77844 10.3994 6.7863 10.3854 6.7924 10.3762C6.79826 10.3674 6.81808 10.3392 6.87355 10.2953L5.94188 9.11968L5.01022 7.94409C3.73131 8.95764 3.74819 10.3127 3.71409 10.8002L5.21044 10.9048Z" fill="#AFB1B3" mask="url(#path-3-outside-1_1990_7767)"/>
</svg>
