<svg width="35" height="35" viewBox="0 0 35 35" fill="none" xmlns="http://www.w3.org/2000/svg">
<path fill-rule="evenodd" clip-rule="evenodd" d="M16.4875 6.09223C16.0438 6.09228 15.5999 6.09233 15.1546 6.05646C13.9513 5.98123 12.7686 6.04184 11.5812 6.10269C10.9945 6.13275 10.4067 6.16287 9.81471 6.1767C9.14055 6.18977 8.49495 6.37667 7.87666 6.64853C7.13824 6.93625 6.87315 7.96009 7.11572 8.72924C7.2539 9.16736 7.65062 9.45383 8.06036 9.66159C8.41955 9.84372 8.78071 10.0269 9.05488 10.3878C9.33908 10.7867 9.3221 11.2105 9.30357 11.6727C9.3017 11.7193 9.29982 11.7663 9.29822 11.8138C9.27265 12.1984 9.27847 12.5818 9.2843 12.9653C9.28838 13.2334 9.29245 13.5015 9.28581 13.7703C9.24324 14.8177 9.26074 15.8714 9.27823 16.9247C9.28829 17.5302 9.29834 18.1356 9.29699 18.7395C9.29401 19.21 9.30309 19.68 9.31218 20.15C9.31824 20.4635 9.3243 20.7771 9.32678 21.0908C9.32374 21.3663 9.33136 21.6357 9.33888 21.902C9.33964 21.9286 9.34039 21.9553 9.34113 21.9818C9.37787 23.3008 8.49458 24.3362 7.47192 25.17C7.07959 25.4797 7.04235 26.1215 7.05352 26.592C7.06345 26.9592 7.324 27.1853 7.57728 27.3971C7.86823 27.6409 8.18843 27.6491 8.53515 27.6579C8.57311 27.6588 8.61138 27.6598 8.64997 27.6611C9.00028 27.6623 9.34468 27.6695 9.69608 27.6768C10.0994 27.6852 10.5119 27.6938 10.9532 27.6938C11.5558 27.6794 12.1722 27.6822 12.7929 27.6851C13.5798 27.6888 14.3737 27.6925 15.1558 27.6611C15.825 27.6258 16.5898 27.5239 17.1609 27.1252C17.5421 26.8507 17.6166 26.3737 17.6166 25.9215C17.6389 25.5555 17.4055 25.2222 17.182 24.9648C16.9697 24.7301 16.6647 24.5947 16.3589 24.459C16.0551 24.3242 15.7505 24.189 15.5357 23.9558C15.416 23.7944 15.4007 23.5414 15.3876 23.3237C15.3847 23.2751 15.3819 23.2283 15.3781 23.1846C15.3559 22.3903 15.3549 21.595 15.3539 20.7996C15.3535 20.4591 15.3531 20.1187 15.351 19.7783C15.3498 19.5921 15.5043 19.4376 15.6902 19.4281C16.1872 19.4026 16.6192 19.6671 16.9396 20.048C17.4781 20.6885 18.0121 21.4411 18.4999 22.1286C18.686 22.391 18.8655 22.6439 19.0359 22.8775C19.1756 23.0723 19.3085 23.2709 19.4411 23.4689C19.7337 23.906 20.0249 24.341 20.3854 24.7295C20.6613 25.024 20.8827 25.3597 21.104 25.6952C21.3039 25.9983 21.5038 26.3013 21.7437 26.5737C22.1472 26.9906 22.6537 27.367 23.2062 27.516C23.6582 27.6456 24.1489 27.66 24.6291 27.6741C24.7979 27.679 24.9653 27.6839 25.1293 27.6938C25.2766 27.695 25.4268 27.6977 25.5788 27.7004C26.4336 27.716 27.3469 27.7326 28.1438 27.4807C28.8229 27.2938 29.1333 26.4116 28.9967 25.7463C28.7695 24.9765 28.1612 24.3648 27.4287 24.1361C27.2725 24.0799 27.1004 24.0342 26.9241 23.9873C26.4276 23.8552 25.8972 23.7141 25.5912 23.3062C25.329 22.9696 25.084 22.619 24.8388 22.2682C24.5766 21.8929 24.3142 21.5175 24.0306 21.1588C23.6104 20.6291 23.1765 19.9622 22.7651 19.3297C22.4721 18.8794 22.6594 18.2739 23.1469 18.0481C24.0654 17.6227 24.9321 17.0963 25.5339 16.204C26.6115 14.8734 26.6525 13.1012 26.5072 11.4465C26.0851 9.26252 24.527 7.36084 22.4822 6.71519C21.6404 6.4747 20.7465 6.25643 19.8712 6.24205C19.7498 6.23796 19.6284 6.23446 19.5072 6.23097C19.0098 6.21663 18.5137 6.20234 18.0176 6.14664C17.507 6.09212 16.9974 6.09218 16.4875 6.09223ZM20.7114 9.96578C20.7354 9.66684 20.4282 9.47948 20.2131 9.68837C20.0536 9.8432 19.9121 10.0125 19.7681 10.1849C19.6056 10.3794 19.4399 10.5778 19.2412 10.7638C18.6813 11.2845 18.2056 11.8597 17.7259 12.4398C17.3846 12.8527 17.0411 13.268 16.6638 13.6679C16.0632 14.3165 15.4891 14.9859 14.9666 15.7031C14.8738 15.8305 15.006 15.9904 15.1496 15.9255C15.6328 15.7071 16.111 15.4909 16.6266 15.3396C17.6187 15.0586 18.6206 14.9489 19.6326 14.9425C20.4221 14.9375 21.1072 14.4563 20.9021 13.6939C20.8496 13.4984 20.7967 13.3018 20.7708 13.1033C20.5451 12.0356 20.6269 11.0174 20.7114 9.96578Z" fill="#A7A9AB"/>
</svg>
