<svg width="35" height="35" viewBox="0 0 35 35" fill="none" xmlns="http://www.w3.org/2000/svg">
<path d="M15.0655 7.37789C16.8271 6.91461 18.683 6.98158 20.4122 7.55464C21.6894 7.90387 22.9008 8.44698 24.0372 9.12007C24.9116 9.61995 25.5539 10.5549 26.2579 11.29C26.7802 11.8349 27.0127 12.4896 27.3126 13.164C27.8224 14.2892 28.0328 15.5641 27.9962 16.7949C27.995 17.2383 27.9924 17.6861 27.9711 18.1315C27.857 20.5094 26.7251 22.7802 25.0851 24.5058C24.7316 24.9226 24.4145 25.3387 23.9483 25.6386C22.9824 26.261 21.9911 27.0216 20.921 27.4257C19.0497 28.0692 17.1712 27.9997 15.2394 27.7392C13.2777 27.2858 11.4214 26.2957 9.97373 24.8945C9.41754 24.3806 8.84542 23.9649 8.44834 23.3017C7.79375 22.1951 7.40343 20.9745 7.22178 19.706C6.97396 18.6992 6.96736 17.6822 7.03916 16.6543C7.23208 14.9602 7.6925 13.3323 8.67393 11.9199C9.30902 10.8764 10.0304 9.92268 10.9767 9.14253C11.5554 8.67513 12.1988 8.39888 12.8634 8.07222C13.5744 7.72164 14.2996 7.58768 15.0655 7.37789ZM17.0675 9.70503C16.2183 9.69924 15.4416 10.0528 14.6544 10.3378C13.9306 10.6318 13.2211 10.7822 12.6065 11.249C11.9182 11.7645 11.3683 12.5178 10.838 13.1914C10.0359 14.218 9.71001 15.4356 9.60361 16.7177C9.33918 18.0222 9.5755 19.33 10.0733 20.5488C10.3746 21.2089 10.7494 21.9074 11.2765 22.414C12.0933 23.2102 12.958 23.943 14.0245 24.3789C15.4381 24.9254 16.8786 25.2555 18.4015 25.0429C20.0339 24.7696 21.4994 23.9549 22.6856 22.8115C23.7463 21.9458 24.7604 20.8427 25.044 19.457C25.2523 18.4347 25.2624 17.3529 25.1886 16.3144C25.1383 15.3203 24.6745 14.323 24.1974 13.4648C23.5356 12.5445 22.8126 11.7072 21.7667 11.2138C21.102 10.8006 20.4383 10.486 19.7355 10.207L18.7784 9.84761C18.2196 9.67012 17.6648 9.70116 17.0675 9.70503ZM17.1769 11.3818C17.6062 11.2061 18.0937 11.3375 18.378 11.7021C18.7001 12.0936 18.6616 12.654 18.67 13.1298C18.6664 13.2594 18.6631 13.389 18.6601 13.5185C18.6181 15.3363 20.0417 16.5765 21.8429 16.8252C22.8285 17.0068 22.8444 18.6931 21.8829 18.9033C21.1253 19.1103 20.2631 19.0429 19.4815 19.0556C18.7649 19.0373 18.0088 19.105 17.3048 18.9628C16.788 18.8474 16.4127 18.4598 16.3761 17.9218C16.3141 16.9403 16.4061 15.9472 16.4005 14.9628C16.3906 14.1097 16.3846 13.2789 16.4747 12.4257C16.5198 11.9779 16.753 11.5649 17.1769 11.3818Z" fill="#B0B2B3" fill-opacity="0.5"/>
</svg>
