<svg width="35" height="35" viewBox="0 0 35 35" fill="none" xmlns="http://www.w3.org/2000/svg">
<path fill-rule="evenodd" clip-rule="evenodd" d="M19.309 7.57123C18.4847 7.05006 17.5714 6.47261 16.612 6.53783C16.3502 6.54196 16.0796 6.53577 15.8053 6.5295C14.7997 6.50652 13.7448 6.48241 12.8958 6.96108C11.0168 7.95829 9.29172 9.01 8.12778 10.8537C7.43123 11.7717 7.33361 12.7842 7.22986 13.8603C7.18937 14.2802 7.14795 14.7097 7.06965 15.1471C6.87406 16.7279 7.07605 18.0297 7.85843 19.4181C8.55227 20.7634 9.84447 21.4364 11.1468 22.1148C11.5176 22.3079 11.8892 22.5015 12.2481 22.7111C14.0936 23.468 16.3986 23.7315 18.3069 23.0106C18.4598 22.9529 18.5363 22.924 18.5938 22.9158C18.6538 22.9073 18.6875 22.9075 18.7474 22.9167C18.8048 22.9256 18.877 22.9538 19.0216 23.0104C19.0278 23.0129 19.0341 23.0153 19.0403 23.0178C19.4043 23.1602 19.7807 23.3074 20.0173 23.5961C21.2037 24.9685 22.4093 26.36 23.7496 27.5817C24.3652 28.1544 25.101 28.3614 25.9 28.4608C25.9994 28.4732 26.0491 28.4793 26.1035 28.4748C26.1501 28.4709 26.2006 28.4595 26.2445 28.4431C26.2955 28.4239 26.3421 28.3943 26.4351 28.3351C26.7086 28.1611 26.9834 27.9904 27.2604 27.8223C27.3717 27.7548 27.4273 27.721 27.4667 27.6844C27.507 27.6468 27.5279 27.6213 27.5567 27.5742C27.5848 27.5284 27.6109 27.4557 27.6632 27.3104C27.6897 27.2368 27.7179 27.1626 27.7462 27.088C27.9535 26.5413 28.1689 25.9733 27.7994 25.4654C27.1084 24.365 26.1455 23.4541 25.1803 22.5409C24.3481 21.7536 23.5141 20.9646 22.8511 20.0511C22.8189 20.0068 22.8028 19.9846 22.7862 19.9536C22.7737 19.9305 22.7575 19.8925 22.7493 19.8676C22.7384 19.8342 22.7342 19.8114 22.7258 19.7658C22.5742 18.9405 22.8122 18.2336 23.0611 17.4945C23.1726 17.1634 23.2862 16.8258 23.368 16.4682C24.3332 13.2457 22.3965 9.63846 19.7448 7.84286C19.6025 7.75684 19.4572 7.66495 19.309 7.57123ZM19.7538 12.5321C19.0256 11.2122 17.8281 10.2753 16.4504 9.69764C16.4297 9.68895 16.4193 9.68461 16.4052 9.67962C16.3949 9.67599 16.3775 9.67057 16.367 9.66774C16.3526 9.66383 16.3437 9.66197 16.3259 9.65825C14.8516 9.34904 13.2512 10.4414 12.1202 11.2853C10.4969 12.4966 10.2163 14.7593 10.4329 16.6348C10.6042 17.6949 11.7114 18.4472 12.6771 19.1033C12.8981 19.2534 13.1117 19.3985 13.3049 19.5412C13.3834 19.5991 13.4227 19.6281 13.4566 19.6461C13.4909 19.6644 13.5138 19.6739 13.5509 19.6852C13.5877 19.6963 13.6357 19.7035 13.7318 19.7179C13.9697 19.7536 14.1992 19.7985 14.4237 19.8424C15.2763 20.0093 16.0564 20.1619 16.9474 19.7405C16.9816 19.7244 16.9987 19.7163 17.0093 19.7118C17.022 19.7065 17.0248 19.7054 17.0378 19.7008C17.0486 19.697 17.0665 19.6915 17.1022 19.6806C18.7329 19.1833 19.742 17.5 20.1589 15.9351C20.165 15.9122 20.168 15.9008 20.1709 15.8873C20.1733 15.8759 20.1756 15.8625 20.1772 15.851C20.1791 15.8373 20.1802 15.8242 20.1824 15.7979C20.1827 15.7951 20.1829 15.7924 20.1831 15.7897C20.2745 14.7158 20.3815 13.458 19.7538 12.5321Z" fill="#A7A9AB"/>
</svg>
