<svg width="35" height="35" viewBox="0 0 35 35" fill="none" xmlns="http://www.w3.org/2000/svg">
<path fill-rule="evenodd" clip-rule="evenodd" d="M19.2111 8.01442C18.8195 7.59478 18.4493 7.20455 17.8746 7.04952C17.4283 6.89316 16.8884 7.13372 16.5302 7.39967C16.0364 7.78889 15.619 8.30528 15.2126 8.80812C15.0789 8.97345 14.9465 9.13732 14.8129 9.29472C14.1901 10.0137 13.6529 10.8263 13.1517 11.6348C12.9365 11.9836 12.8163 12.3485 12.998 12.744C13.1958 13.1557 13.4938 13.6688 13.9923 13.7357C14.4702 13.8049 14.9567 13.8236 15.4421 13.8422C15.6964 13.8519 15.9505 13.8617 16.2028 13.8787C16.1907 14.6364 16.152 15.3955 16.0878 16.1519C16.0684 16.5357 16.0716 16.9205 16.0747 17.3053C16.077 17.5824 16.0793 17.8596 16.0731 18.1365C16.0727 18.4729 16.0549 18.8201 16.0369 19.1706C16.0018 19.8534 15.9661 20.5483 16.0571 21.1983C16.1507 21.8317 16.7387 22.3035 17.3735 22.2941C17.9709 22.2955 18.5282 21.8718 18.6578 21.2851C18.7978 20.5393 18.746 19.7372 18.6972 18.9821C18.6934 18.9227 18.6896 18.8635 18.6859 18.8047C18.6461 17.8705 18.6566 16.938 18.6672 16.0049C18.6751 15.307 18.683 14.6088 18.6698 13.9094C19.4383 13.9147 20.2 13.8452 20.9551 13.6996C21.4095 13.6167 21.7743 13.2519 21.8492 12.7962C21.9173 12.2616 21.7035 11.711 21.4683 11.2392C20.8656 10.0712 20.0878 8.99269 19.2111 8.01442ZM11.4069 17.1513C11.4426 16.6607 11.4775 16.1807 11.2406 15.7138C10.9346 15.1351 10.1474 14.9467 9.60886 15.3195C9.24135 15.5962 8.95 16.0198 8.88853 16.4822C8.75696 17.1513 8.76412 17.8112 8.77129 18.4717C8.77686 18.9853 8.78244 19.4993 8.72281 20.0184C8.61189 21.1517 8.6306 22.293 8.7883 23.4223C8.92461 24.3177 9.34024 25.1757 9.88951 25.8893C10.2584 26.3237 10.6887 26.7687 11.2513 26.9317C12.6345 27.3981 14.0445 27.759 15.4958 27.93C16.8829 28.0143 18.2667 28.0037 19.6542 27.9931C19.7853 27.9921 19.9165 27.9911 20.0477 27.9902C20.2761 27.9744 20.4999 27.964 20.7206 27.9538C21.4888 27.9183 22.2203 27.8844 22.9865 27.628C23.9247 27.318 24.8802 26.7406 25.3359 25.8305C25.7622 24.9979 26.095 24.16 26.1004 23.2098C26.0997 22.8925 26.1201 22.5767 26.1405 22.2608C26.1602 21.9553 26.1799 21.6497 26.1806 21.3428C26.1766 20.9813 26.2206 20.6302 26.2645 20.2801C26.3245 19.8017 26.3842 19.3254 26.3209 18.8276C26.257 18.3514 26.2409 17.8747 26.2248 17.3984C26.2122 17.0272 26.1996 16.6562 26.1645 16.2857C26.0883 15.6803 25.4803 15.2834 24.8936 15.369C24.3336 15.4318 23.922 15.9917 23.763 16.4916C23.6244 17.1252 23.6332 17.8075 23.642 18.4851C23.6477 18.9251 23.6533 19.3631 23.6186 19.7845C23.5903 20.083 23.5842 20.3812 23.5781 20.6793C23.5701 21.0712 23.5621 21.4629 23.5037 21.8546C23.4655 22.0904 23.4559 22.333 23.4462 22.5754C23.4329 22.9101 23.4197 23.2445 23.3313 23.5599C22.9264 24.5409 22.0376 25.0861 20.9899 25.1235C19.9181 25.1409 18.8409 25.1463 17.7691 25.1075C17.5587 25.0993 17.3565 25.1245 17.1566 25.1493C16.8979 25.1814 16.643 25.2131 16.3792 25.1717C15.8972 25.08 15.4431 25.06 14.9985 25.0405C14.2572 25.008 13.5421 24.9766 12.7668 24.6157C12.7119 24.5752 12.6568 24.5353 12.6019 24.4956C12.2097 24.2117 11.8294 23.9364 11.6055 23.5038C11.4083 23.1674 11.3718 22.8264 11.3326 22.4606C11.3248 22.3875 11.3168 22.3134 11.3075 22.2382C11.258 21.8065 11.2313 21.3749 11.2714 20.9405C11.3663 19.8727 11.385 18.8063 11.381 17.7358C11.3787 17.5394 11.3929 17.3446 11.4069 17.1513Z" fill="#A7A9AB"/>
</svg>
