<svg width="35" height="35" viewBox="0 0 35 35" fill="none" xmlns="http://www.w3.org/2000/svg">
<path fill-rule="evenodd" clip-rule="evenodd" d="M23.4418 6.79646C24.0263 6.9497 24.5615 7.4129 25.0372 7.82456L25.0372 7.82461C25.123 7.89884 25.2068 7.97139 25.2887 8.04015C25.9549 8.56315 26.5466 9.16299 27.141 9.76543L27.141 9.76544C27.4549 10.0836 27.7695 10.4025 28.0961 10.7112C28.5086 11.0633 28.4792 11.5493 28.4495 12.0396L28.4495 12.0397C28.4446 12.1195 28.4398 12.1993 28.4369 12.2788C28.4326 12.4935 28.2868 12.6449 28.1439 12.7935C28.1001 12.8389 28.0567 12.8841 28.0176 12.9308C26.9574 14.1436 25.6967 15.2078 24.387 16.143C23.7938 16.5931 22.8935 16.5763 22.4363 15.9411C21.9396 15.3222 21.8926 14.3425 21.8525 13.5077L21.8525 13.5077C21.8454 13.3595 21.8386 13.2159 21.8294 13.0797C21.8273 13.048 21.7951 13.0273 21.7653 13.0384L21.7653 13.0384C21.3395 13.1963 20.9166 13.3531 20.5039 13.5407C19.8817 13.7728 19.3909 14.328 18.9301 14.8494C18.8063 14.9895 18.6846 15.1272 18.5631 15.2555C17.8124 16.3051 17.1637 17.4459 16.5244 18.5703L16.5244 18.5703L16.3825 18.8197C16.0664 19.5069 15.6435 20.113 15.2183 20.7223L15.2183 20.7223C15.0042 21.0292 14.7895 21.3368 14.5876 21.6561C14.4773 21.8118 14.371 21.9667 14.266 22.1197L14.266 22.1198C13.6599 23.0036 13.0984 23.8224 12.062 24.3244C10.7971 24.9147 9.24894 24.9988 7.87186 24.9483C7.16228 24.9329 6.54386 24.3482 6.506 23.6359C6.44009 22.8984 6.97858 22.1904 7.73583 22.1483C7.9447 22.1375 8.16023 22.1322 8.37962 22.1267L8.37972 22.1267H8.37974C9.1045 22.1086 9.87145 22.0895 10.5797 21.8721C11.0296 21.74 11.3014 21.3787 11.5703 21.0213L11.6287 20.9439C12.2064 20.1475 12.7379 19.3258 13.254 18.4874C13.6836 17.8816 14.0267 17.2393 14.3726 16.5918C14.5111 16.3325 14.65 16.0724 14.7951 15.8135C14.9855 15.4562 15.2115 15.1286 15.4387 14.7993C15.5913 14.578 15.7444 14.3561 15.8875 14.124C16.0993 13.779 16.3363 13.4608 16.6237 13.1747C16.8178 12.982 16.9939 12.784 17.1676 12.5887L17.1676 12.5887C17.56 12.1474 17.9402 11.7199 18.4874 11.3982C19.497 10.8359 20.5485 10.3731 21.6975 10.2009C21.768 10.1904 21.8232 10.134 21.8306 10.0631C21.8856 9.5399 21.9404 9.01758 21.9469 8.49163C21.9509 8.42885 21.9534 8.36598 21.9559 8.30328V8.30325C21.9677 8.0089 21.9793 7.71834 22.1377 7.45827C22.3845 7.03343 22.9496 6.71234 23.4418 6.79646ZM8.99814 10.4537C9.2324 10.4765 9.46524 10.4808 9.69615 10.485C10.1895 10.4941 10.6742 10.503 11.1451 10.6921C11.7305 10.9222 12.2461 11.384 12.7193 11.808C12.7652 11.8492 12.8108 11.89 12.8559 11.9302C13.4301 12.4446 13.8224 13.0443 14.2326 13.6715C14.2326 13.6715 14.2326 13.6715 14.2326 13.6715C14.2326 13.6715 14.2326 13.6715 14.2326 13.6715C14.2423 13.6864 14.2521 13.7014 14.2619 13.7163C14.3757 13.8902 14.3761 14.1151 14.2629 14.2894C14.1318 14.4912 14.0018 14.6937 13.8717 14.8962L13.8716 14.8962L13.8716 14.8963C13.6076 15.3071 13.3437 15.718 13.0713 16.1236C12.9525 16.3005 12.6942 16.3009 12.573 16.1257L12.5729 16.1255C12.0444 15.3616 11.5064 14.5839 10.866 13.917L10.8359 13.8884C10.5367 13.6039 10.1461 13.2327 9.71753 13.2313C9.27018 13.2055 8.95284 13.209 8.61974 13.2127H8.61973H8.61971C8.35765 13.2156 8.08582 13.2186 7.73325 13.2075C7.23262 13.2103 6.82315 12.8345 6.63523 12.3957C6.36178 11.7605 6.62402 10.9809 7.22982 10.6458C7.79504 10.343 8.15543 10.3767 8.69469 10.4273L8.6947 10.4273C8.78961 10.4361 8.89006 10.4456 8.99814 10.4537ZM25.1216 19.6499C24.63 19.2285 24.0988 18.773 23.5145 18.5772C22.8666 18.4244 22.1276 18.96 22.0112 19.6106C21.9085 20.0866 21.9023 20.5855 21.8963 21.0813C21.8948 21.1975 21.8934 21.3137 21.8907 21.4293C21.8854 21.659 21.6732 21.8255 21.4457 21.7927C21.043 21.7346 20.6707 21.6809 20.2906 21.4585C19.6747 21.01 19.1505 20.3565 18.6451 19.7264C18.2922 19.2865 17.5966 19.3771 17.2883 19.8494C17.2487 19.9101 17.2089 19.9706 17.169 20.0311C16.9243 20.4027 16.68 20.7737 16.4945 21.1781C16.3734 21.3961 16.5272 21.5787 16.6695 21.7475C16.7084 21.7937 16.7464 21.8388 16.7778 21.8834C16.9271 22.0447 17.0714 22.2127 17.2158 22.3807C17.6763 22.9165 18.1372 23.4528 18.7606 23.7763C18.8381 23.8162 18.9157 23.857 18.9936 23.8979C19.4687 24.1478 19.9546 24.4034 20.4799 24.4913C21.2671 24.6329 21.8438 25.3099 21.9325 26.1048C21.97 26.4411 22.029 26.7759 22.1192 27.1119C22.2538 27.5438 22.5217 27.9251 22.9424 28.113C23.4416 28.3065 23.9871 28.2252 24.4134 27.9055C25.6306 27.046 26.7749 26.0645 27.786 24.9709C27.8458 24.9045 27.9111 24.8396 27.977 24.7741C28.2216 24.531 28.4744 24.2799 28.4843 23.9165C28.5096 23.5449 28.5334 23.0626 28.3231 22.7359C28.1893 22.5437 28.015 22.3758 27.8442 22.2113C27.8019 22.1706 27.7598 22.1301 27.7187 22.0895C27.4611 21.8445 27.2151 21.5942 26.9701 21.3449C26.5001 20.8668 26.0339 20.3925 25.4974 19.9667C25.3747 19.8668 25.2495 19.7595 25.1216 19.6499Z" fill="#ADACAB"/>
</svg>
