<svg width="35" height="35" viewBox="0 0 35 35" fill="none" xmlns="http://www.w3.org/2000/svg">
<path d="M17.833 7.32877C17.8708 7.30098 17.9125 7.27895 17.9566 7.26289C18.5612 7.04266 19.1369 6.88626 19.7525 7.20133C20.9995 7.70125 21.4414 9.23304 21.7661 10.505C22.2427 12.7397 22.5453 15.0345 22.8268 17.3114C22.8617 17.5931 23.1146 17.7932 23.3985 17.7952C24.9667 17.8065 26.5341 18.5481 27.5982 19.8029C28.8155 21.3049 28.6984 23.5193 27.853 25.1945C26.9691 27.0406 24.9957 28.0678 23.1353 27.9689C21.5883 27.8006 20.0729 26.9867 19.146 25.591C18.4605 24.5219 18.0224 23.289 18.0337 21.965C18.0856 20.9851 18.3634 19.8792 19.0669 19.2111C19.3412 18.899 19.7266 18.7929 20.1204 18.7148C20.4509 18.6491 20.611 18.2977 20.4529 18.0001C20.0283 17.201 19.6444 16.4039 19.4409 15.4787C19.0874 13.8814 18.9997 12.3399 18.5177 10.7977C18.4085 10.4483 17.9732 10.3461 17.7161 10.6067C17.4503 10.8762 17.201 11.1628 16.9859 11.4894C15.8213 13.2735 14.8057 15.1746 14.0116 17.1878C13.915 17.4327 14.0215 17.7076 14.2517 17.8353C14.7948 18.1365 15.2806 18.4692 15.6216 19.0802C16.1942 20.2011 16.6566 21.3987 16.4966 22.715C16.3703 23.8385 16.2003 25.1356 15.6343 26.1007C15.1314 26.9519 14.2657 27.3451 13.3931 27.548C12.1911 27.7584 10.8674 27.4219 9.7173 27.0334C8.2628 26.479 6.92765 25.3778 6.56007 23.6603C6.4248 22.1211 6.44048 20.3118 7.4507 19.1017C8.38615 18.0426 9.68038 17.903 10.9294 18.1316C11.211 18.1832 11.4933 18.0215 11.5778 17.748C12.2269 15.6483 13.2904 13.6526 14.313 11.757C15.2636 10.1666 16.3751 8.39994 17.833 7.32877ZM25.6118 21.7952C25.4403 21.666 25.2058 21.6521 25.015 21.7507C24.698 21.9145 24.374 22.0923 24.2544 22.467C23.9836 23.1938 23.8129 23.957 23.6974 24.7294C23.6677 24.9286 23.7589 25.1263 23.9286 25.2348C24.0335 25.3019 24.1389 25.368 24.2452 25.4322C24.3798 25.5135 24.5458 25.5272 24.6876 25.4593C25.6322 25.0072 26.1054 24.1895 26.3357 23.084C26.353 23.0009 26.3478 22.9148 26.323 22.8336C26.2736 22.672 26.2244 22.5096 26.1759 22.3479C26.1437 22.2407 26.0782 22.1464 25.9888 22.0791C25.8632 21.9845 25.7375 21.8898 25.6118 21.7952ZM14.3874 21.7362C14.2402 21.5981 14.0117 21.6075 13.8692 21.7506C13.3185 22.3039 13.0824 23.2202 12.8433 23.9748C12.7193 24.5613 13.1008 25.0171 13.6646 24.881C14.8559 24.5884 15.3356 22.6252 14.3874 21.7362Z" fill="#A7A9AB"/>
</svg>
