<svg width="24" height="24" viewBox="0 0 24 24" fill="none" xmlns="http://www.w3.org/2000/svg">
<path d="M22.9818 23.9829C22.9818 23.989 22.8167 23.9939 22.8167 24C22.8718 24 22.7617 24 22.8167 24C15.3106 24 8.8882 24 1.38211 23.9988C1.04454 23.9988 0.738768 23.8923 0.484366 23.6672C0.172478 23.392 0.00491606 23.0434 0.00369297 22.6262C2.37074e-05 21.4041 0.00613836 20.1808 2.29234e-05 18.9586C-0.00120016 18.7299 0.0465002 18.5231 0.148016 18.3213C0.402419 17.8161 0.828054 17.5641 1.376 17.5604C3.54942 17.5481 5.72407 17.553 7.8975 17.5482C8.12133 17.5482 8.35127 17.5506 8.56653 17.5004C8.91144 17.4197 9.25268 17.3231 9.5768 17.164C10.2348 16.8386 10.7644 16.3799 11.1448 15.7535C11.5227 15.1308 11.76 14.4617 11.7258 13.7216C11.7135 13.4549 11.694 13.1858 11.6463 12.924C11.5533 12.4089 11.3368 11.9416 11.0482 11.5073C10.8525 11.2113 10.5895 10.9789 10.3376 10.733C9.37622 9.79345 8.41854 8.85148 7.45964 7.90952C7.11473 7.57066 6.77593 7.22446 6.42001 6.8966C6.19986 6.69353 5.98092 6.4929 5.79134 6.26047C5.15778 5.48365 4.89482 4.59674 4.99634 3.5985C5.03425 3.22661 5.13944 2.87429 5.30456 2.54644C5.55896 2.03876 5.89775 1.59224 6.33562 1.22034C6.86888 0.767711 7.45719 0.422736 8.13234 0.239237C8.50171 0.138923 8.87475 0.0545111 9.26125 0.0227045C9.58781 -0.00420878 9.91071 -0.00787847 10.236 0.0153648C10.7302 0.0508414 11.2096 0.154827 11.6732 0.323647C12.3618 0.575653 12.9721 0.959778 13.487 1.48459C13.9078 1.91398 14.2123 2.41431 14.4019 2.98561C14.4153 3.0272 14.4398 3.06513 14.4581 3.10428C14.4765 3.14342 14.501 3.18134 14.5095 3.22294C14.5964 3.656 14.682 4.09028 14.7664 4.52334C14.9633 5.52892 15.1614 6.5345 15.3559 7.54008C15.5406 8.49428 15.7216 9.4497 15.9026 10.4051C15.9748 10.788 16.0445 11.1697 16.1497 11.5465C16.2549 11.9196 16.464 12.2046 16.8077 12.3784C17.363 12.6597 17.9183 12.6573 18.4711 12.3563C18.7891 12.1838 18.9958 11.9318 19.0777 11.5795C19.1707 11.1783 19.2685 10.7795 19.3529 10.377C19.4899 9.7225 19.6147 9.0668 19.7504 8.41231C19.8703 7.83368 20.0024 7.25748 20.1223 6.67885C20.2213 6.20297 20.307 5.72465 20.4036 5.24877C20.4892 4.83284 20.5809 4.41813 20.6739 4.00342C20.7106 3.83705 20.735 3.66334 20.8048 3.51042C21.0958 2.86695 21.8383 2.57824 22.5073 2.62962C22.8387 2.65531 23.136 2.77397 23.4124 2.96359C23.8038 3.23272 23.9933 3.5985 23.9958 4.06336C24.0007 5.20351 23.9995 6.34243 23.9995 7.48258C23.9995 12.5092 23.9995 17.5347 23.9995 22.5614C23.9995 22.5858 24.0007 22.6115 23.9995 22.636C23.9848 23.1106 23.7989 23.4997 23.4014 23.77C23.2693 23.8593 23.1152 23.9156 22.9818 23.9829C23.3329 23.9829 22.6149 23.9829 22.9818 23.9829Z" fill="#404040"/>
</svg>
