<svg width="35" height="35" viewBox="0 0 35 35" fill="none" xmlns="http://www.w3.org/2000/svg">
<path fill-rule="evenodd" clip-rule="evenodd" d="M10.031 22.8504C11.1744 22.7564 12.337 22.8064 13.4822 22.8563C15.5313 22.9119 17.5786 22.8758 19.6277 22.8201C20.1265 22.8106 20.5754 22.803 20.9764 23.1463C21.6228 23.6547 21.7057 24.6564 21.1668 25.2742C20.6911 25.8249 20.1057 25.7982 19.4344 25.7733C17.1321 25.6505 14.8294 25.7563 12.5271 25.6815C11.6523 25.6508 10.7294 25.7345 9.86991 25.5867C9.12744 25.4256 8.68747 24.6431 8.85624 23.9178C8.96368 23.3517 9.45738 22.9022 10.031 22.8504ZM25.0066 18.0692C25.6724 18.0845 26.2119 18.6581 26.2273 19.3162C26.2523 19.9782 25.6762 20.6248 25.0027 20.6229C24.4887 20.6324 23.9728 20.5728 23.4588 20.5555C20.7708 20.6131 18.0921 20.5388 15.406 20.7C13.5987 20.6118 11.8336 20.9132 10.032 20.9266C9.58309 20.9381 9.16487 20.8396 8.89628 20.452C8.47055 19.8168 8.76793 18.8573 9.55448 18.6981C10.2528 18.5945 10.9666 18.6161 11.6668 18.5125C13.1057 18.3206 14.5335 18.4471 15.9725 18.3397C18.1499 18.2111 20.3273 18.299 22.5066 18.2127C23.3335 18.1859 24.1817 18.0481 25.0066 18.0692ZM24.8094 13.5076C25.5057 13.4022 26.2006 13.8284 26.3982 14.5057C26.5689 15.2809 25.912 16.0058 25.158 16.0672C23.0054 16.2974 20.8126 16.0809 18.6619 16.244C17.317 16.3591 15.9911 16.38 14.6404 16.3436C13.7967 16.4165 12.9086 16.4772 12.0203 16.4984C10.3192 16.539 7.75521 15.3706 9.15702 14.4061C10.0394 13.9149 11.3515 14.1488 12.3357 14.078C14.7033 13.9475 17.0697 13.8624 19.4353 13.7108C21.2311 13.6782 23.0175 13.6842 24.8094 13.5076ZM17.7078 9.3387C20.0063 9.36172 22.2863 9.13658 24.5867 9.24788C25.281 9.29794 25.8183 9.99268 25.7264 10.6776C25.6841 11.259 25.2022 11.7673 24.617 11.8172C23.4717 11.9151 22.311 11.8041 21.1619 11.8885C19.8918 11.9748 18.6273 11.9553 17.3572 11.9744C15.9701 12.0953 14.5823 12.0743 13.199 12.2508C12.0787 12.3026 10.9522 12.3294 9.83183 12.3582C9.17391 12.3887 8.63261 11.9187 8.5789 11.2625C8.53502 10.5989 9.02642 10.0681 9.6746 10.0008C12.3298 9.62473 15.0295 9.45958 17.7078 9.3387Z" fill="#A7A9AB"/>
</svg>
