<svg width="35" height="35" viewBox="0 0 35 35" fill="none" xmlns="http://www.w3.org/2000/svg">
<path d="M20.7697 9.43484C20.802 9.4306 20.8181 9.42848 20.8427 9.42662C20.8605 9.42529 20.8907 9.42415 20.9085 9.42414C20.9332 9.42412 20.9496 9.42502 20.9825 9.42683C21.7673 9.47008 22.5396 9.66349 23.2008 10.0691C23.5701 10.2956 23.7547 10.4088 23.8714 10.4421C23.9972 10.478 24.0594 10.484 24.1897 10.473C24.3106 10.4627 24.4417 10.4137 24.7041 10.3158C25.1406 10.153 25.5774 9.98964 26.0267 9.87588C26.7218 9.74249 27.1102 10.4563 26.8879 11.053C26.5484 11.8446 25.8646 12.5054 25.251 13.1559C25.1051 13.3105 25.0322 13.3878 24.9792 13.4816C24.9291 13.5704 24.9003 13.6484 24.8809 13.7485C24.8603 13.8542 24.8676 13.9983 24.882 14.2865C24.954 15.7233 24.5123 17.0605 23.9907 18.4154C22.865 21.1325 20.6792 23.1638 18.0581 24.4275C16.7405 24.912 15.2568 25.3168 13.869 25.5298C12.4625 25.593 10.7611 25.6959 9.45527 25.0898C9.1449 24.9361 8.92441 24.7626 8.84282 24.5119C8.83002 24.4726 8.86201 24.5709 8.88616 24.3754C8.89727 24.2855 9.03265 23.9779 9.09145 23.9089C9.21931 23.7591 9.26921 23.7364 9.36901 23.691C9.72926 23.5271 10.0999 23.3945 10.4721 23.2664C11.0528 23.0665 11.3431 22.9665 11.5085 22.727C11.6579 22.5106 11.7026 22.2662 11.6396 22.011C11.5697 21.7283 11.2244 21.4413 10.5338 20.8673C10.2621 20.6415 10.0098 20.3867 9.78057 20.0981C8.87226 19.0017 7.90775 17.3838 8.08125 15.9031C8.08827 15.8432 8.11164 15.7636 8.14031 15.7105C8.39891 15.2317 8.82657 14.8559 8.61632 14.354C8.2314 13.435 8.00513 12.4703 8.05721 11.4714C8.06777 11.2689 8.07305 11.1677 8.1824 10.9813C8.23606 10.8898 8.50213 10.6559 8.59971 10.6144C8.79856 10.5298 8.71627 10.5235 8.74918 10.526C8.85065 10.5337 8.96169 10.584 9.09956 10.6996C9.81334 11.2473 10.4101 11.8955 11.1918 12.3612C12.4176 13.1455 13.8131 13.5737 15.2297 13.8918C15.7415 14.0066 15.9974 14.0641 16.2045 14.0105C16.4091 13.9576 16.5344 13.8774 16.6683 13.7139C16.8038 13.5484 16.8783 13.2022 17.0273 12.5099C17.0837 12.2481 17.1696 11.9892 17.2998 11.7317C17.9419 10.3609 19.3177 9.62574 20.7697 9.43484Z" fill="#A7A9AB"/>
</svg>
