<svg width="35" height="35" viewBox="0 0 35 35" fill="none" xmlns="http://www.w3.org/2000/svg">
<path d="M22.0648 7.14427C23.0273 7.19646 24.2028 7.41987 24.9106 8.12766C25.7666 8.87513 26.4681 9.78962 26.4995 10.9735C26.5203 12.0111 25.9315 13.0217 25.3595 13.8527C24.7811 14.6899 24.0232 15.2724 23.328 15.9907C22.5262 16.8634 21.6451 17.6505 20.8705 18.5504C19.2378 20.275 17.7658 22.1625 15.728 23.434C14.7926 24.1314 13.2894 23.8641 12.567 22.9747C12.0283 22.365 11.6358 21.6656 11.8842 20.8262C12.1494 19.7071 12.9971 19.1079 13.755 18.327C14.6736 17.3624 15.7197 16.5419 16.6091 15.5459C17.5132 14.7672 18.2001 13.7295 19.1543 13.0259C19.741 12.5958 20.9311 13.2848 20.5344 14.0113C19.7952 15.0553 18.8327 15.9593 17.9955 16.9281C16.9536 17.9825 16.0579 19.1538 14.9576 20.1518C14.7683 20.3477 14.5475 20.5178 14.3831 20.7185C14.0976 21.0674 14.4297 21.7285 14.7926 21.4609C16.8743 20.1247 18.5154 18.1161 20.2608 16.4688C21.5679 15.1221 22.8185 13.7357 23.8645 12.174C24.2237 11.7 23.9126 10.9275 23.5868 10.5079C22.7125 9.37157 20.9463 9.97949 19.8149 10.8601C19.3901 11.1907 18.9835 11.5418 18.5989 11.8859C17.3148 12.8943 16.1644 14.0489 15.0975 15.285C13.9888 16.402 12.8968 17.5524 11.9051 18.778C11.4123 19.4273 10.8779 20.1706 10.7755 20.9995C10.6315 22.294 11.1472 23.6136 12.0826 24.5072C12.9992 25.2108 14.2895 25.5762 15.4086 25.1711C16.5653 24.8559 17.4944 23.9205 18.2982 23.0749C20.2128 21.1707 21.975 19.0912 23.923 17.2183C24.4535 16.6842 25.5553 16.8379 25.8029 17.5489C25.8558 17.7008 25.8777 17.8747 25.8585 18.0827C25.7374 18.8949 24.8521 19.5463 24.3322 20.1351C23.2319 21.3941 22.1399 22.6698 20.9853 23.8808C19.6658 25.096 18.3295 26.6264 16.6008 27.236C15.6529 27.5722 14.7363 27.9605 13.709 27.8353C12.8655 27.7685 12.187 27.3926 11.4499 27.0147C10.1116 26.3341 9.22215 24.8475 8.78996 23.457C8.45589 22.0518 8.3014 20.4922 8.9382 19.1455C10.3183 16.5335 12.6693 14.6628 14.5609 12.4496C15.2854 11.6332 16.1101 10.9338 16.9494 10.2427C17.651 9.6727 18.1813 8.98161 18.9434 8.48469C19.9059 7.85206 20.8413 7.0858 22.0648 7.14427Z" fill="#ADACAB"/>
</svg>
