<svg width="35" height="35" viewBox="0 0 35 35" fill="none" xmlns="http://www.w3.org/2000/svg">
<path fill-rule="evenodd" clip-rule="evenodd" d="M14.6555 10.1629C16.3957 10.1493 18.5331 9.88517 20.1546 10.6043C20.3752 10.7088 20.5791 10.8336 20.7674 10.9754C22.1353 12.0055 24.2412 12.6249 25.8362 12.0018C26.9319 11.6422 28.3432 12.0627 28.3636 13.3924C28.3839 16.3366 28.5465 19.2807 28.5227 22.2215C28.5287 23.1856 27.749 23.6904 26.898 23.7677C26.6604 23.7894 26.4231 23.7363 26.2033 23.6433C25.6323 23.4015 25.1247 23.0988 24.6493 22.7556C23.6711 22.0495 22.4381 22.6346 21.7507 23.626C21.6935 23.7085 21.6159 23.7925 21.5365 23.854C20.2359 24.8608 18.2449 24.7491 16.6946 24.7557C15.3639 24.7241 13.9037 24.8851 12.4688 24.8959C10.1632 24.9134 7.5579 24.0982 6.71805 21.951C6.47044 21.0759 6.5996 20.0715 6.5657 19.1658C6.60641 17.5071 6.34474 15.7939 6.5618 14.1522C6.7246 13.0261 7.28452 11.6726 8.35281 11.1297C10.1573 10.1019 12.6373 10.2578 14.6555 10.1629ZM18.0745 12.8563C15.5373 12.8257 12.9561 12.7689 10.4358 13.0877C9.97449 13.1963 9.15641 13.2331 9.01394 13.7928C8.66457 15.499 8.88853 17.4326 8.89871 19.1795C8.89532 20.1598 9.15003 21.53 10.1575 21.9676C12.3521 22.7748 14.6822 22.1139 16.9446 22.2088C17.9148 22.1952 18.7972 22.4255 19.5774 21.7029C20.0623 21.3366 20.0419 20.7636 20.1165 20.2107C20.176 18.8136 20.2525 17.4036 20.2282 16.0076C20.2034 14.5838 19.4982 12.8278 18.0745 12.8563Z" fill="#A7A9AB"/>
</svg>
