<svg width="35" height="35" viewBox="0 0 35 35" fill="none" xmlns="http://www.w3.org/2000/svg">
<path d="M9.54881 23.1958C10.7659 23.0957 12.0035 23.1485 13.2226 23.2016C15.4039 23.2609 17.5834 23.2228 19.7646 23.1636C20.2955 23.1533 20.7734 23.1447 21.2002 23.5102C21.8885 24.0516 21.9762 25.1181 21.4023 25.7759C20.8958 26.3621 20.2724 26.3337 19.5576 26.3071C17.1069 26.1764 14.6558 26.2881 12.2051 26.2085C11.2739 26.1758 10.2917 26.2661 9.37694 26.1089C8.58654 25.9373 8.11908 25.1037 8.29881 24.3315C8.41325 23.729 8.93819 23.2509 9.54881 23.1958ZM25.4902 18.1059C26.1989 18.1223 26.7737 18.7334 26.79 19.4341C26.8164 20.1387 26.2031 20.8267 25.4863 20.8247C24.9391 20.8349 24.3899 20.7718 23.8428 20.7534C20.9814 20.8147 18.1298 20.7351 15.2705 20.9067C13.3466 20.8128 11.4676 21.1336 9.54979 21.1479C9.07188 21.1602 8.62674 21.0557 8.34081 20.6431C7.88743 19.967 8.20376 18.9455 9.041 18.7759C9.78443 18.6656 10.5446 18.6879 11.29 18.5776C12.8218 18.3734 14.3413 18.5084 15.873 18.394C18.191 18.2572 20.509 18.3512 22.8291 18.2593C23.7092 18.2307 24.6121 18.0835 25.4902 18.1059ZM25.2803 13.2505C26.0214 13.1383 26.7602 13.5913 26.9707 14.312C27.1525 15.1372 26.454 15.9097 25.6514 15.9751C23.36 16.2202 21.0257 15.989 18.7363 16.1626C17.3046 16.2851 15.8929 16.3078 14.4551 16.269C13.5572 16.3466 12.6121 16.4112 11.6669 16.4337C9.85597 16.4768 7.12589 15.2334 8.61815 14.2065C9.55753 13.6837 10.9542 13.9324 12.0019 13.8569C14.5222 13.718 17.0413 13.6277 19.5596 13.4663C21.4711 13.4316 23.3728 13.4384 25.2803 13.2505ZM17.7207 8.81102C20.1674 8.83553 22.5942 8.59684 25.043 8.71532C25.782 8.76865 26.3537 9.50778 26.2558 10.2368C26.2109 10.8557 25.6981 11.3976 25.0752 11.4507C23.8559 11.5548 22.6198 11.436 21.3965 11.5259C20.0446 11.6178 18.6986 11.5972 17.3467 11.6177C15.8701 11.7463 14.3934 11.7247 12.9209 11.9126C11.7283 11.9677 10.5295 11.9962 9.3369 12.0268C8.63636 12.0595 8.0601 11.5585 8.00292 10.8598C7.95609 10.1533 8.47879 9.58767 9.16893 9.5161C11.9956 9.11573 14.8695 8.93971 17.7207 8.81102Z" fill="#ADACAB"/>
</svg>
