<svg width="35" height="35" viewBox="0 0 35 35" fill="none" xmlns="http://www.w3.org/2000/svg">
<path d="M27.8938 8.75646C27.6714 9.72956 27.0847 10.3202 26.5787 10.8303C24.6097 12.7199 13.961 24.2388 11.9925 26.1497C10.8106 27.2601 9.49079 28.9351 8.25644 29.4439C7.21692 29.5771 6.97186 27.4165 7.88569 26.0591C9.54387 23.6413 11.6664 22.0869 13.5001 20.206C14.8615 18.9442 24.8579 7.8035 26.2261 6.60708C27.2509 5.61664 28.3291 6.94047 27.8938 8.75646Z" fill="#A7A9AB"/>
<path d="M9.3311 7.10461C9.57514 6.93876 9.82823 6.78373 10.0361 6.56509C10.1654 6.30175 10.4337 6.23638 10.6262 6.06402C10.8072 5.85232 11.294 6.05737 12.0616 6.79053C12.3577 7.07051 12.675 7.3851 13.0863 7.91316C13.8875 8.9518 14.5766 9.78735 15.3923 11.0087C16.5947 12.7634 17.7874 14.5266 18.992 16.278C19.6822 17.2657 20.3504 18.2626 21.0302 19.2611C21.7904 20.3823 22.525 21.4606 23.2571 22.5914C23.7734 23.3935 24.1723 24.1036 24.526 24.7784C24.8643 25.3957 25.0765 25.8723 25.291 26.3568C25.4329 26.7095 25.4922 26.9673 25.536 27.1961C25.5914 27.5075 25.422 27.4716 25.3348 27.5819C25.255 27.7002 25.185 27.8308 25.0612 27.8848C24.7107 28.1438 24.3446 28.3794 23.9888 28.6306C23.881 28.7114 23.7218 28.7215 23.5432 28.6957C23.3495 28.6613 22.9562 28.2474 22.5676 27.8756C22.2609 27.5821 21.8889 27.1405 21.5009 26.6683C21.0692 26.1352 20.6516 25.6095 20.1956 24.9665C19.7309 24.3105 19.2727 23.635 18.8086 22.9749C17.7558 21.4544 16.7251 19.8943 15.6672 18.3772C15.192 17.6944 14.7228 17.0037 14.2654 16.3108C13.7664 15.5574 13.2547 14.8182 12.7582 14.0631C12.0685 13.011 11.4247 12.1144 10.8083 11.0728C9.6797 9.20187 9.06188 7.74422 9.16614 7.2922C9.19722 7.1956 9.26913 7.15616 9.3311 7.10461Z" fill="#FAFBFC" stroke="#A7A9AB" stroke-width="1.64151"/>
</svg>
